<svg id="Layer_1" data-name="Layer 1" xmlns="http://www.w3.org/2000/svg" viewBox="0 0 289.136 198"><defs><style>.cls-1{fill:#fff;}.cls-2{fill:#20201e;}.cls-3{fill:none;stroke:#20201e;stroke-width:3px;}</style></defs><title>category</title><rect class="cls-1" x="1.503" y="3.5" width="184.087" height="23"/><path class="cls-2" d="M73.3,18.443H71.755l-1.684-2.707-.575.413v2.294H68.134V12.019H69.5v2.94l.536-.756,1.74-2.184h1.512l-2.241,2.842Z"/><path class="cls-2" d="M77.161,18.443l-.26-.668h-.035a1.962,1.962,0,0,1-.7.591,2.233,2.233,0,0,1-.934.165,1.513,1.513,0,0,1-1.114-.4,1.552,1.552,0,0,1-.406-1.151,1.3,1.3,0,0,1,.547-1.154,3.173,3.173,0,0,1,1.65-.411l.853-.026V15.17A.669.669,0,0,0,76,14.422a3.49,3.49,0,0,0-1.385.356l-.443-.905a3.99,3.99,0,0,1,1.881-.443,2.345,2.345,0,0,1,1.515.429A1.6,1.6,0,0,1,78.1,15.17v3.273Zm-.395-2.276-.519.018a1.65,1.65,0,0,0-.87.211.662.662,0,0,0-.286.588q0,.567.65.567a1.028,1.028,0,0,0,.745-.268.943.943,0,0,0,.28-.712Z"/><path class="cls-2" d="M81.592,17.463a2.928,2.928,0,0,0,.844-.153v1a3,3,0,0,1-1.231.224,1.509,1.509,0,0,1-1.172-.406,1.774,1.774,0,0,1-.366-1.22V14.537h-.642V13.97l.739-.449.386-1.037h.857V13.53h1.376v1.007H81.007v2.368a.526.526,0,0,0,.16.422A.634.634,0,0,0,81.592,17.463Z"/><path class="cls-2" d="M85.688,18.531a2.536,2.536,0,0,1-1.854-.654,2.483,2.483,0,0,1-.668-1.856,2.726,2.726,0,0,1,.617-1.909,2.2,2.2,0,0,1,1.707-.674,2.165,2.165,0,0,1,1.622.593,2.246,2.246,0,0,1,.58,1.639v.65H84.523a1.292,1.292,0,0,0,.339.893,1.19,1.19,0,0,0,.888.32,3.657,3.657,0,0,0,.839-.092,4.082,4.082,0,0,0,.826-.295v1.038a3.049,3.049,0,0,1-.751.261A4.681,4.681,0,0,1,85.688,18.531ZM85.5,14.392a.847.847,0,0,0-.668.27,1.249,1.249,0,0,0-.276.767h1.881a1.118,1.118,0,0,0-.26-.767A.876.876,0,0,0,85.5,14.392Z"/><path class="cls-2" d="M93.1,13.53v.681l-.769.2a1.338,1.338,0,0,1,.211.738,1.492,1.492,0,0,1-.552,1.233,2.385,2.385,0,0,1-1.531.442l-.242-.013-.2-.022a.45.45,0,0,0-.207.352c0,.193.247.289.739.289h.835a1.909,1.909,0,0,1,1.233.347,1.245,1.245,0,0,1,.424,1.02,1.511,1.511,0,0,1-.719,1.336,3.744,3.744,0,0,1-2.063.474,2.854,2.854,0,0,1-1.571-.358,1.136,1.136,0,0,1-.543-1,1.05,1.05,0,0,1,.277-.743,1.58,1.58,0,0,1,.813-.426.887.887,0,0,1-.36-.288.7.7,0,0,1,.009-.891,1.853,1.853,0,0,1,.469-.368,1.314,1.314,0,0,1-.612-.536,1.63,1.63,0,0,1-.226-.87,1.535,1.535,0,0,1,.522-1.244,2.268,2.268,0,0,1,1.494-.439,3.632,3.632,0,0,1,.49.038c.19.024.31.043.363.054Zm-3.792,5.608a.482.482,0,0,0,.265.434,1.458,1.458,0,0,0,.745.158,2.632,2.632,0,0,0,1.129-.2.6.6,0,0,0,.409-.541.385.385,0,0,0-.242-.382,1.986,1.986,0,0,0-.747-.105h-.694a1.04,1.04,0,0,0-.617.174A.532.532,0,0,0,89.311,19.138Zm.487-4a1,1,0,0,0,.182.632.661.661,0,0,0,.556.233.647.647,0,0,0,.554-.233,1.026,1.026,0,0,0,.176-.632q0-.888-.73-.888T89.8,15.139Z"/><path class="cls-2" d="M98.421,15.979a2.639,2.639,0,0,1-.633,1.875,2.291,2.291,0,0,1-1.762.677,2.474,2.474,0,0,1-1.248-.309,2.07,2.07,0,0,1-.831-.89,3,3,0,0,1-.29-1.353,2.633,2.633,0,0,1,.629-1.874,2.313,2.313,0,0,1,1.767-.667,2.483,2.483,0,0,1,1.248.308,2.05,2.05,0,0,1,.83.883A2.971,2.971,0,0,1,98.421,15.979Zm-3.4,0a2.055,2.055,0,0,0,.24,1.1.856.856,0,0,0,.78.374.84.84,0,0,0,.77-.372,2.073,2.073,0,0,0,.236-1.1,2.022,2.022,0,0,0-.238-1.095,1.009,1.009,0,0,0-1.55,0A2.028,2.028,0,0,0,95.024,15.979Z"/><path class="cls-2" d="M102.307,13.438a2.123,2.123,0,0,1,.453.04l-.1,1.256a1.544,1.544,0,0,0-.395-.044,1.425,1.425,0,0,0-1,.33,1.191,1.191,0,0,0-.358.923v2.5H99.564V13.53h1.016l.2.826h.067a1.845,1.845,0,0,1,.617-.666A1.524,1.524,0,0,1,102.307,13.438Z"/><path class="cls-2" d="M103.63,12.26q0-.654.729-.655t.73.655a.64.64,0,0,1-.182.486.772.772,0,0,1-.548.174C103.873,12.92,103.63,12.7,103.63,12.26Zm1.4,6.183h-1.339V13.53h1.339Z"/><path class="cls-2" d="M108.693,18.531a2.536,2.536,0,0,1-1.854-.654,2.483,2.483,0,0,1-.668-1.856,2.731,2.731,0,0,1,.617-1.909,2.2,2.2,0,0,1,1.708-.674,2.165,2.165,0,0,1,1.621.593,2.246,2.246,0,0,1,.58,1.639v.65h-3.168a1.292,1.292,0,0,0,.338.893,1.19,1.19,0,0,0,.888.32,3.666,3.666,0,0,0,.84-.092,4.1,4.1,0,0,0,.826-.295v1.038a3.056,3.056,0,0,1-.752.261A4.681,4.681,0,0,1,108.693,18.531Zm-.188-4.139a.847.847,0,0,0-.668.27,1.249,1.249,0,0,0-.277.767h1.88a1.113,1.113,0,0,0-.258-.767A.876.876,0,0,0,108.505,14.392Z"/><path class="cls-2" d="M118.254,18.443l-.466-1.529h-2.343l-.466,1.529h-1.467l2.267-6.451h1.666l2.277,6.451Zm-.791-2.672q-.647-2.078-.728-2.351c-.054-.181-.092-.324-.116-.43q-.145.563-.831,2.781Z"/><rect class="cls-3" x="1.503" y="3.5" width="184.087" height="23"/><path class="cls-2" d="M3.663,39.356l-.686-2.2c-.044-.135-.124-.44-.244-.916H2.706q-.136.6-.239.922L1.76,39.356H1.1L.081,35.61h.6q.363,1.413.553,2.151a8.9,8.9,0,0,1,.216.994h.028c.024-.13.065-.3.121-.5s.1-.37.145-.49l.687-2.151h.615l.67,2.151a7.067,7.067,0,0,1,.26.987H4c.01-.082.034-.208.074-.38s.278-1.09.712-2.758h.588L4.337,39.356Z"/><path class="cls-2" d="M9.108,39.356l-.687-2.2q-.064-.2-.242-.916H8.151q-.136.6-.239.922L7.2,39.356H6.548L5.526,35.61h.6q.361,1.413.552,2.151a8.747,8.747,0,0,1,.217.994h.027q.038-.2.121-.5c.057-.206.1-.37.146-.49l.687-2.151h.615l.67,2.151a7.359,7.359,0,0,1,.26.987h.027a3.654,3.654,0,0,1,.074-.38q.06-.255.712-2.758h.588L9.781,39.356Z"/><path class="cls-2" d="M14.553,39.356l-.687-2.2c-.044-.135-.124-.44-.243-.916H13.6q-.136.6-.24.922l-.707,2.191h-.656L10.971,35.61h.594q.365,1.413.553,2.151a8.984,8.984,0,0,1,.217.994h.027c.025-.13.066-.3.121-.5s.1-.37.146-.49l.686-2.151h.616l.67,2.151a7.044,7.044,0,0,1,.259.987h.028a3.654,3.654,0,0,1,.074-.38q.058-.255.712-2.758h.588l-1.035,3.746Z"/><path class="cls-2" d="M16.856,38.994a.514.514,0,0,1,.1-.347.376.376,0,0,1,.3-.118.4.4,0,0,1,.309.118.486.486,0,0,1,.112.347.476.476,0,0,1-.114.342.4.4,0,0,1-.307.12.406.406,0,0,1-.289-.108A.47.47,0,0,1,16.856,38.994Z"/><path class="cls-2" d="M20.012,38.956a1.96,1.96,0,0,0,.29-.021,1.824,1.824,0,0,0,.222-.047v.434a1.039,1.039,0,0,1-.271.074,2.1,2.1,0,0,1-.323.029q-1.088,0-1.087-1.145V36.052h-.537v-.274l.537-.236.239-.8h.328v.868H20.5v.442H19.41v2.2a.764.764,0,0,0,.16.519A.56.56,0,0,0,20.012,38.956Z"/><path class="cls-2" d="M22.855,39.425a1.723,1.723,0,0,1-1.311-.506,1.963,1.963,0,0,1-.48-1.4,2.176,2.176,0,0,1,.446-1.44,1.484,1.484,0,0,1,1.2-.533,1.41,1.41,0,0,1,1.114.463,1.774,1.774,0,0,1,.41,1.223v.358h-2.58a1.482,1.482,0,0,0,.333,1,1.154,1.154,0,0,0,.891.342,3.026,3.026,0,0,0,1.2-.252v.506a3,3,0,0,1-.569.185A3.169,3.169,0,0,1,22.855,39.425ZM22.7,36.017a.926.926,0,0,0-.72.295,1.348,1.348,0,0,0-.315.812h1.958a1.243,1.243,0,0,0-.239-.821A.839.839,0,0,0,22.7,36.017Z"/><path class="cls-2" d="M27.616,38.335a.942.942,0,0,1-.389.807,1.84,1.84,0,0,1-1.094.283,2.359,2.359,0,0,1-1.162-.237v-.525a2.841,2.841,0,0,0,.58.215,2.38,2.38,0,0,0,.6.078,1.346,1.346,0,0,0,.684-.142.488.488,0,0,0,.05-.806,2.955,2.955,0,0,0-.74-.367,4.111,4.111,0,0,1-.744-.34,1.04,1.04,0,0,1-.328-.33.87.87,0,0,1-.107-.441.841.841,0,0,1,.372-.723,1.734,1.734,0,0,1,1.022-.265,2.994,2.994,0,0,1,1.183.246l-.2.461a2.733,2.733,0,0,0-1.022-.232,1.177,1.177,0,0,0-.608.127.389.389,0,0,0-.2.348.421.421,0,0,0,.077.257.759.759,0,0,0,.247.2,5.709,5.709,0,0,0,.656.278,2.444,2.444,0,0,1,.9.488A.865.865,0,0,1,27.616,38.335Z"/><path class="cls-2" d="M29.749,38.956a1.963,1.963,0,0,0,.291-.021,1.912,1.912,0,0,0,.222-.047v.434a1.06,1.06,0,0,1-.272.074,2.085,2.085,0,0,1-.323.029q-1.088,0-1.087-1.145V36.052h-.536v-.274l.536-.236.239-.8h.328v.868h1.087v.442H29.147v2.2a.754.754,0,0,0,.162.519A.554.554,0,0,0,29.749,38.956Z"/><path class="cls-2" d="M30.929,38.994a.509.509,0,0,1,.1-.347.377.377,0,0,1,.3-.118.406.406,0,0,1,.31.118.5.5,0,0,1,.11.347.479.479,0,0,1-.112.342.448.448,0,0,1-.6.012A.47.47,0,0,1,30.929,38.994Z"/><path class="cls-2" d="M34.37,39.425a1.6,1.6,0,0,1-1.26-.5,2.061,2.061,0,0,1-.445-1.417,2.121,2.121,0,0,1,.452-1.452,1.634,1.634,0,0,1,1.291-.513,2.544,2.544,0,0,1,.54.059,1.761,1.761,0,0,1,.424.136l-.175.482a2.635,2.635,0,0,0-.41-.125,1.827,1.827,0,0,0-.392-.05q-1.143,0-1.142,1.457a1.739,1.739,0,0,0,.278,1.059.97.97,0,0,0,.825.369,2.53,2.53,0,0,0,.961-.2v.5A2.033,2.033,0,0,1,34.37,39.425Z"/><path class="cls-2" d="M38.77,39.356V36.933a.979.979,0,0,0-.209-.684.851.851,0,0,0-.653-.225,1.072,1.072,0,0,0-.863.321,1.628,1.628,0,0,0-.272,1.052v1.959h-.567V34.038h.567v1.609a3.56,3.56,0,0,1-.027.483h.034a1.165,1.165,0,0,1,.477-.426,1.557,1.557,0,0,1,.706-.155,1.441,1.441,0,0,1,1.03.326,1.371,1.371,0,0,1,.344,1.038v2.443Z"/><path class="cls-2" d="M42.4,34.359l-1.863,5h-.567l1.863-5Z"/><path class="cls-2" d="M46.3,39.356l-.622-1.589h-2l-.615,1.589h-.588l1.975-5.017h.49L46.9,39.356Zm-.8-2.112L44.915,35.7c-.075-.2-.153-.436-.232-.721a6.6,6.6,0,0,1-.216.721l-.588,1.548Z"/><path class="cls-2" d="M49.4,34.359l-1.863,5h-.567l1.863-5Z"/><rect class="cls-1" x="52.527" y="51.5" width="133.063" height="23"/><path class="cls-2" d="M98.145,66.443H96.782V61.152H95.037V60.019h4.852v1.133H98.145Z"/><path class="cls-2" d="M105.344,66.443H104V63.574q0-1.063-.791-1.064a.9.9,0,0,0-.813.383,2.332,2.332,0,0,0-.251,1.239v2.311h-1.339V59.605h1.339V61c0,.109-.009.364-.03.766l-.031.394h.07a1.556,1.556,0,0,1,1.424-.72,1.746,1.746,0,0,1,1.315.466,1.855,1.855,0,0,1,.448,1.336Z"/><path class="cls-2" d="M108.982,66.531a2.536,2.536,0,0,1-1.854-.654,2.483,2.483,0,0,1-.668-1.856,2.731,2.731,0,0,1,.617-1.909,2.2,2.2,0,0,1,1.708-.674,2.164,2.164,0,0,1,1.621.593,2.246,2.246,0,0,1,.58,1.639v.65h-3.168a1.292,1.292,0,0,0,.338.893,1.19,1.19,0,0,0,.888.32,3.666,3.666,0,0,0,.84-.092,4.1,4.1,0,0,0,.826-.3v1.038a3.056,3.056,0,0,1-.752.261A4.681,4.681,0,0,1,108.982,66.531Zm-.188-4.139a.847.847,0,0,0-.668.27,1.249,1.249,0,0,0-.277.767h1.88a1.113,1.113,0,0,0-.258-.767A.876.876,0,0,0,108.794,62.392Z"/><path class="cls-2" d="M116.521,66.443h-1.34V63.574a1.453,1.453,0,0,0-.178-.8.628.628,0,0,0-.561-.266.814.814,0,0,0-.747.379,2.479,2.479,0,0,0-.233,1.243v2.311h-1.34V61.53h1.024l.18.628h.074a1.377,1.377,0,0,1,.572-.529,1.861,1.861,0,0,1,.857-.191,1.546,1.546,0,0,1,1.494.72h.118a1.334,1.334,0,0,1,.583-.531,1.939,1.939,0,0,1,.868-.189,1.715,1.715,0,0,1,1.263.428,1.882,1.882,0,0,1,.429,1.374v3.2h-1.345V63.574a1.454,1.454,0,0,0-.177-.8.629.629,0,0,0-.561-.266.839.839,0,0,0-.736.351,2.01,2.01,0,0,0-.244,1.118Z"/><path class="cls-2" d="M124.124,66.443l-.259-.668h-.035a1.964,1.964,0,0,1-.7.591,2.23,2.23,0,0,1-.934.165,1.513,1.513,0,0,1-1.114-.4,1.552,1.552,0,0,1-.406-1.151,1.3,1.3,0,0,1,.547-1.154,3.173,3.173,0,0,1,1.65-.411l.853-.026V63.17a.669.669,0,0,0-.765-.748,3.486,3.486,0,0,0-1.384.356l-.444-.905a3.99,3.99,0,0,1,1.881-.443,2.348,2.348,0,0,1,1.516.429,1.6,1.6,0,0,1,.528,1.311v3.273Zm-.395-2.276-.519.018a1.65,1.65,0,0,0-.87.211.659.659,0,0,0-.285.588q0,.567.65.567a1.024,1.024,0,0,0,.744-.268.939.939,0,0,0,.28-.712Z"/><path class="cls-2" d="M132.9,66.443l-.465-1.529H130.09l-.466,1.529h-1.468l2.268-6.451h1.665l2.276,6.451Zm-.791-2.672q-.645-2.078-.726-2.351c-.055-.181-.094-.324-.117-.43q-.145.563-.83,2.781Z"/><path class="cls-2" d="M134.925,65.814a.733.733,0,0,1,.2-.557.8.8,0,0,1,.576-.189.781.781,0,0,1,.565.194.853.853,0,0,1,0,1.1.768.768,0,0,1-.563.2.785.785,0,0,1-.571-.2A.729.729,0,0,1,134.925,65.814Z"/><path class="cls-2" d="M141.755,66.443l-.466-1.529h-2.343l-.466,1.529h-1.467l2.267-6.451h1.666l2.277,6.451Zm-.791-2.672q-.647-2.078-.728-2.351c-.054-.181-.092-.324-.116-.43q-.146.563-.831,2.781Z"/><rect class="cls-3" x="52.527" y="51.5" width="133.063" height="23"/><path class="cls-2" d="M54.687,87.356,54,85.159c-.044-.135-.124-.44-.243-.916h-.028q-.135.6-.239.922l-.707,2.191h-.656L51.1,83.61H51.7q.363,1.413.553,2.151a8.984,8.984,0,0,1,.217.994H52.5c.025-.13.066-.3.121-.5s.105-.37.146-.49l.686-2.151h.615l.67,2.151a7.067,7.067,0,0,1,.26.987h.027c.01-.082.035-.208.075-.38s.277-1.09.712-2.758H56.4L55.36,87.356Z"/><path class="cls-2" d="M60.132,87.356l-.688-2.2q-.064-.2-.242-.916h-.027c-.092.4-.171.706-.239.922l-.708,2.191h-.657L56.55,83.61h.6q.361,1.413.551,2.151a8.522,8.522,0,0,1,.217.994h.027c.026-.13.066-.3.122-.5s.1-.37.145-.49L58.9,83.61h.615l.67,2.151a7.186,7.186,0,0,1,.259.987h.028a3.586,3.586,0,0,1,.073-.38q.06-.255.713-2.758h.588l-1.036,3.746Z"/><path class="cls-2" d="M65.576,87.356l-.686-2.2c-.044-.135-.124-.44-.244-.916h-.027q-.136.6-.239.922l-.707,2.191h-.656L61.994,83.61h.595q.363,1.413.553,2.151a8.668,8.668,0,0,1,.216.994h.028c.024-.13.065-.3.121-.5s.1-.37.145-.49l.687-2.151h.615l.67,2.151a7.067,7.067,0,0,1,.26.987h.027c.01-.082.034-.208.074-.38s.278-1.09.712-2.758h.588L66.25,87.356Z"/><path class="cls-2" d="M67.88,86.994a.514.514,0,0,1,.1-.347.377.377,0,0,1,.3-.118.4.4,0,0,1,.31.118.49.49,0,0,1,.111.347.48.48,0,0,1-.113.342.448.448,0,0,1-.6.012A.47.47,0,0,1,67.88,86.994Z"/><path class="cls-2" d="M71.035,86.956a1.95,1.95,0,0,0,.29-.021,1.891,1.891,0,0,0,.223-.047v.434a1.048,1.048,0,0,1-.272.074,2.085,2.085,0,0,1-.323.029q-1.086,0-1.087-1.145V84.052h-.537v-.274l.537-.236.239-.8h.329v.868h1.087v.442H70.434v2.2a.759.759,0,0,0,.16.519A.558.558,0,0,0,71.035,86.956Z"/><path class="cls-2" d="M73.879,87.425a1.726,1.726,0,0,1-1.312-.506,1.963,1.963,0,0,1-.479-1.4,2.175,2.175,0,0,1,.445-1.44,1.484,1.484,0,0,1,1.2-.533,1.413,1.413,0,0,1,1.115.463,1.778,1.778,0,0,1,.41,1.223v.358h-2.58a1.482,1.482,0,0,0,.333,1,1.153,1.153,0,0,0,.89.342,3.031,3.031,0,0,0,1.2-.252v.506a3.008,3.008,0,0,1-.57.185A3.152,3.152,0,0,1,73.879,87.425Zm-.154-3.408a.926.926,0,0,0-.72.3,1.349,1.349,0,0,0-.316.812h1.958a1.243,1.243,0,0,0-.239-.821A.839.839,0,0,0,73.725,84.017Z"/><path class="cls-2" d="M78.64,86.335a.941.941,0,0,1-.39.807,1.84,1.84,0,0,1-1.094.283,2.359,2.359,0,0,1-1.162-.237v-.525a2.863,2.863,0,0,0,.58.215,2.388,2.388,0,0,0,.6.078,1.349,1.349,0,0,0,.684-.142.488.488,0,0,0,.049-.806,2.955,2.955,0,0,0-.74-.367,4.061,4.061,0,0,1-.743-.34,1.019,1.019,0,0,1-.328-.33.871.871,0,0,1-.108-.441.841.841,0,0,1,.372-.723,1.736,1.736,0,0,1,1.023-.265,3,3,0,0,1,1.183.246l-.2.461a2.729,2.729,0,0,0-1.021-.232,1.179,1.179,0,0,0-.609.127.391.391,0,0,0-.2.348.422.422,0,0,0,.078.257.738.738,0,0,0,.247.2,5.709,5.709,0,0,0,.656.278,2.446,2.446,0,0,1,.9.488A.862.862,0,0,1,78.64,86.335Z"/><path class="cls-2" d="M80.772,86.956a1.954,1.954,0,0,0,.291-.021,1.912,1.912,0,0,0,.222-.047v.434a1.039,1.039,0,0,1-.271.074,2.1,2.1,0,0,1-.324.029q-1.086,0-1.086-1.145V84.052h-.537v-.274l.537-.236.239-.8h.328v.868h1.087v.442H80.171v2.2a.759.759,0,0,0,.161.519A.556.556,0,0,0,80.772,86.956Z"/><path class="cls-2" d="M81.952,86.994a.5.5,0,0,1,.105-.347.375.375,0,0,1,.3-.118.4.4,0,0,1,.31.118.5.5,0,0,1,.11.347.479.479,0,0,1-.112.342.448.448,0,0,1-.6.012A.47.47,0,0,1,81.952,86.994Z"/><path class="cls-2" d="M85.394,87.425a1.6,1.6,0,0,1-1.26-.5,2.061,2.061,0,0,1-.446-1.417,2.121,2.121,0,0,1,.453-1.452,1.631,1.631,0,0,1,1.291-.513,2.558,2.558,0,0,1,.54.059,1.792,1.792,0,0,1,.424.136l-.175.482a2.668,2.668,0,0,0-.41-.125,1.843,1.843,0,0,0-.393-.05q-1.143,0-1.142,1.457a1.732,1.732,0,0,0,.279,1.059.968.968,0,0,0,.825.369,2.534,2.534,0,0,0,.961-.2v.5A2.036,2.036,0,0,1,85.394,87.425Z"/><path class="cls-2" d="M89.793,87.356V84.933a.974.974,0,0,0-.209-.684.849.849,0,0,0-.652-.225,1.072,1.072,0,0,0-.864.321A1.635,1.635,0,0,0,87.8,85.4v1.959h-.568V82.038H87.8v1.609a3.731,3.731,0,0,1-.027.483H87.8a1.155,1.155,0,0,1,.476-.426,1.56,1.56,0,0,1,.706-.155,1.445,1.445,0,0,1,1.031.326,1.375,1.375,0,0,1,.343,1.038v2.443Z"/><path class="cls-2" d="M93.423,82.359l-1.863,5h-.568l1.863-5Z"/><path class="cls-2" d="M97.322,87.356,96.7,85.767h-2l-.615,1.589h-.588l1.976-5.017h.489l1.965,5.017Zm-.8-2.112L95.938,83.7c-.075-.2-.153-.436-.232-.721a6.6,6.6,0,0,1-.216.721L94.9,85.244Z"/><path class="cls-2" d="M100.423,82.359l-1.863,5h-.568l1.863-5Z"/><path class="cls-2" d="M104.322,87.356l-.622-1.589h-2l-.615,1.589h-.588l1.976-5.017h.489l1.965,5.017Zm-.8-2.112-.582-1.548c-.075-.2-.153-.436-.232-.721a6.6,6.6,0,0,1-.216.721l-.588,1.548Z"/><path class="cls-2" d="M105.443,86.994a.514.514,0,0,1,.105-.347.376.376,0,0,1,.3-.118.4.4,0,0,1,.309.118.491.491,0,0,1,.112.347.48.48,0,0,1-.114.342.4.4,0,0,1-.307.12.4.4,0,0,1-.289-.108A.466.466,0,0,1,105.443,86.994Z"/><path class="cls-2" d="M109.952,87.356V84.933a.974.974,0,0,0-.209-.684.849.849,0,0,0-.652-.225,1.069,1.069,0,0,0-.863.321,1.628,1.628,0,0,0-.272,1.052v1.959h-.567V82.038h.567v1.609a3.731,3.731,0,0,1-.027.483h.034a1.155,1.155,0,0,1,.476-.426,1.564,1.564,0,0,1,.707-.155,1.442,1.442,0,0,1,1.03.326,1.375,1.375,0,0,1,.344,1.038v2.443Z"/><path class="cls-2" d="M112.9,86.956a1.973,1.973,0,0,0,.291-.021,1.889,1.889,0,0,0,.221-.047v.434a1.039,1.039,0,0,1-.271.074,2.1,2.1,0,0,1-.324.029q-1.086,0-1.086-1.145V84.052h-.537v-.274l.537-.236.239-.8h.328v.868h1.087v.442h-1.087v2.2a.759.759,0,0,0,.161.519A.558.558,0,0,0,112.9,86.956Z"/><path class="cls-2" d="M118.931,87.356V84.919a1.008,1.008,0,0,0-.192-.671.739.739,0,0,0-.594-.224.96.96,0,0,0-.783.3,1.444,1.444,0,0,0-.253.937v2.091h-.567V84.919a1.014,1.014,0,0,0-.191-.671.748.748,0,0,0-.6-.224.924.924,0,0,0-.78.32,1.722,1.722,0,0,0-.248,1.048v1.964h-.568V83.61h.461l.093.513h.027a1.105,1.105,0,0,1,.453-.427,1.379,1.379,0,0,1,.655-.154,1.114,1.114,0,0,1,1.148.636h.028a1.183,1.183,0,0,1,.485-.465,1.5,1.5,0,0,1,.724-.171,1.27,1.27,0,0,1,.953.326,1.468,1.468,0,0,1,.315,1.045v2.443Z"/><path class="cls-2" d="M121.234,87.356h-.567V82.038h.567Z"/><rect class="cls-1" x="52.527" y="105.5" width="133.063" height="23"/><path class="cls-2" d="M98.226,120.443H96.863v-5.291H95.119v-1.133h4.852v1.133H98.226Z"/><path class="cls-2" d="M105.425,120.443h-1.34v-2.869q0-1.064-.791-1.064a.9.9,0,0,0-.814.383,2.333,2.333,0,0,0-.25,1.239v2.311h-1.34v-6.838h1.34V115q0,.163-.031.766l-.03.394h.07a1.556,1.556,0,0,1,1.424-.72,1.744,1.744,0,0,1,1.314.466,1.855,1.855,0,0,1,.448,1.336Z"/><path class="cls-2" d="M109.064,120.531a2.536,2.536,0,0,1-1.854-.654,2.483,2.483,0,0,1-.668-1.856,2.726,2.726,0,0,1,.617-1.909,2.2,2.2,0,0,1,1.707-.674,2.165,2.165,0,0,1,1.622.593,2.246,2.246,0,0,1,.58,1.639v.65H107.9a1.292,1.292,0,0,0,.339.893,1.19,1.19,0,0,0,.888.32,3.657,3.657,0,0,0,.839-.092,4.082,4.082,0,0,0,.826-.3v1.038a3.049,3.049,0,0,1-.751.261A4.681,4.681,0,0,1,109.064,120.531Zm-.189-4.139a.847.847,0,0,0-.668.27,1.249,1.249,0,0,0-.276.767h1.881a1.118,1.118,0,0,0-.26-.767A.876.876,0,0,0,108.875,116.392Z"/><path class="cls-2" d="M116.6,120.443h-1.341v-2.869a1.453,1.453,0,0,0-.178-.8.628.628,0,0,0-.561-.266.814.814,0,0,0-.747.379,2.481,2.481,0,0,0-.232,1.243v2.311H112.2V115.53h1.025l.179.628h.075a1.377,1.377,0,0,1,.572-.529,1.857,1.857,0,0,1,.856-.191,1.544,1.544,0,0,1,1.494.72h.119a1.331,1.331,0,0,1,.582-.531,1.943,1.943,0,0,1,.869-.189,1.712,1.712,0,0,1,1.262.428,1.882,1.882,0,0,1,.429,1.374v3.2H118.32v-2.869a1.454,1.454,0,0,0-.177-.8.629.629,0,0,0-.561-.266.839.839,0,0,0-.736.351,2.011,2.011,0,0,0-.243,1.118Z"/><path class="cls-2" d="M124.206,120.443l-.26-.668h-.035a1.962,1.962,0,0,1-.7.591,2.233,2.233,0,0,1-.934.165,1.513,1.513,0,0,1-1.114-.4,1.552,1.552,0,0,1-.406-1.151,1.3,1.3,0,0,1,.547-1.154,3.173,3.173,0,0,1,1.65-.411l.853-.026v-.215a.669.669,0,0,0-.765-.748,3.49,3.49,0,0,0-1.385.356l-.443-.905a3.99,3.99,0,0,1,1.881-.443,2.345,2.345,0,0,1,1.515.429,1.6,1.6,0,0,1,.528,1.311v3.273Zm-.395-2.276-.519.018a1.65,1.65,0,0,0-.87.211.66.66,0,0,0-.286.588q0,.567.65.567a1.028,1.028,0,0,0,.745-.268.943.943,0,0,0,.28-.712Z"/><path class="cls-2" d="M132.979,120.443l-.465-1.529h-2.343l-.466,1.529h-1.468l2.268-6.451h1.666l2.276,6.451Zm-.791-2.672q-.645-2.078-.727-2.351c-.055-.181-.093-.324-.116-.43q-.145.563-.831,2.781Z"/><path class="cls-2" d="M135.006,119.814a.734.734,0,0,1,.2-.557.8.8,0,0,1,.575-.189.784.784,0,0,1,.566.194.855.855,0,0,1,0,1.1.767.767,0,0,1-.563.2.785.785,0,0,1-.571-.2A.729.729,0,0,1,135.006,119.814Z"/><path class="cls-2" d="M137.9,114.019h2a3.862,3.862,0,0,1,1.985.388,1.357,1.357,0,0,1,.617,1.238,1.562,1.562,0,0,1-.27.945,1.08,1.08,0,0,1-.718.443v.044a1.411,1.411,0,0,1,.88.51,1.856,1.856,0,0,1-.364,2.364,2.75,2.75,0,0,1-1.725.492h-2.4Zm1.363,2.543h.791a1.447,1.447,0,0,0,.8-.17.643.643,0,0,0,.248-.568.566.566,0,0,0-.269-.529,1.744,1.744,0,0,0-.856-.16h-.715Zm0,1.083v1.673h.887a1.317,1.317,0,0,0,.83-.214.8.8,0,0,0,.269-.661q0-.8-1.143-.8Z"/><rect class="cls-3" x="52.527" y="105.5" width="133.063" height="23"/><path class="cls-2" d="M54.687,141.356l-.687-2.2c-.044-.135-.124-.44-.243-.916h-.028q-.135.6-.239.922l-.707,2.191h-.656L51.1,137.61H51.7q.363,1.413.553,2.151a8.984,8.984,0,0,1,.217.994H52.5c.025-.13.066-.3.121-.5s.105-.37.146-.49l.686-2.151h.615l.67,2.151a7.067,7.067,0,0,1,.26.987h.027c.01-.082.035-.208.075-.38s.277-1.09.712-2.758H56.4l-1.036,3.746Z"/><path class="cls-2" d="M60.132,141.356l-.688-2.2q-.064-.2-.242-.916h-.027c-.092.4-.171.706-.239.922l-.708,2.191h-.657L56.55,137.61h.6q.361,1.413.551,2.151a8.522,8.522,0,0,1,.217.994h.027c.026-.13.066-.3.122-.5s.1-.37.145-.49l.688-2.151h.615l.67,2.151a7.186,7.186,0,0,1,.259.987h.028a3.586,3.586,0,0,1,.073-.38q.06-.255.713-2.758h.588l-1.036,3.746Z"/><path class="cls-2" d="M65.576,141.356l-.686-2.2c-.044-.135-.124-.44-.244-.916h-.027q-.136.6-.239.922l-.707,2.191h-.656l-1.023-3.746h.595q.363,1.413.553,2.151a8.668,8.668,0,0,1,.216.994h.028c.024-.13.065-.3.121-.5s.1-.37.145-.49l.687-2.151h.615l.67,2.151a7.067,7.067,0,0,1,.26.987h.027c.01-.082.034-.208.074-.38s.278-1.09.712-2.758h.588l-1.035,3.746Z"/><path class="cls-2" d="M67.88,140.994a.514.514,0,0,1,.1-.347.377.377,0,0,1,.3-.118.4.4,0,0,1,.31.118.49.49,0,0,1,.111.347.48.48,0,0,1-.113.342.448.448,0,0,1-.6.012A.47.47,0,0,1,67.88,140.994Z"/><path class="cls-2" d="M71.035,140.956a1.95,1.95,0,0,0,.29-.021,1.891,1.891,0,0,0,.223-.047v.434a1.048,1.048,0,0,1-.272.074,2.085,2.085,0,0,1-.323.029q-1.086,0-1.087-1.145v-2.228h-.537v-.274l.537-.236.239-.8h.329v.868h1.087v.442H70.434v2.2a.759.759,0,0,0,.16.519A.558.558,0,0,0,71.035,140.956Z"/><path class="cls-2" d="M73.879,141.425a1.726,1.726,0,0,1-1.312-.506,1.963,1.963,0,0,1-.479-1.4,2.175,2.175,0,0,1,.445-1.44,1.484,1.484,0,0,1,1.2-.533,1.413,1.413,0,0,1,1.115.463,1.778,1.778,0,0,1,.41,1.223v.358h-2.58a1.482,1.482,0,0,0,.333,1,1.153,1.153,0,0,0,.89.342,3.031,3.031,0,0,0,1.2-.252v.506a3.008,3.008,0,0,1-.57.185A3.152,3.152,0,0,1,73.879,141.425Zm-.154-3.408a.926.926,0,0,0-.72.3,1.349,1.349,0,0,0-.316.812h1.958a1.243,1.243,0,0,0-.239-.821A.839.839,0,0,0,73.725,138.017Z"/><path class="cls-2" d="M78.64,140.335a.941.941,0,0,1-.39.807,1.84,1.84,0,0,1-1.094.283,2.359,2.359,0,0,1-1.162-.237v-.525a2.863,2.863,0,0,0,.58.215,2.388,2.388,0,0,0,.6.078,1.349,1.349,0,0,0,.684-.142.488.488,0,0,0,.049-.806,2.955,2.955,0,0,0-.74-.367,4.061,4.061,0,0,1-.743-.34,1.019,1.019,0,0,1-.328-.33.871.871,0,0,1-.108-.441.841.841,0,0,1,.372-.723,1.736,1.736,0,0,1,1.023-.265,3,3,0,0,1,1.183.246l-.2.461a2.729,2.729,0,0,0-1.021-.232,1.179,1.179,0,0,0-.609.127.391.391,0,0,0-.2.348.422.422,0,0,0,.078.257.738.738,0,0,0,.247.2,5.709,5.709,0,0,0,.656.278,2.446,2.446,0,0,1,.9.488A.862.862,0,0,1,78.64,140.335Z"/><path class="cls-2" d="M80.772,140.956a1.954,1.954,0,0,0,.291-.021,1.912,1.912,0,0,0,.222-.047v.434a1.039,1.039,0,0,1-.271.074,2.1,2.1,0,0,1-.324.029q-1.086,0-1.086-1.145v-2.228h-.537v-.274l.537-.236.239-.8h.328v.868h1.087v.442H80.171v2.2a.759.759,0,0,0,.161.519A.556.556,0,0,0,80.772,140.956Z"/><path class="cls-2" d="M81.952,140.994a.5.5,0,0,1,.105-.347.375.375,0,0,1,.3-.118.4.4,0,0,1,.31.118.5.5,0,0,1,.11.347.479.479,0,0,1-.112.342.448.448,0,0,1-.6.012A.47.47,0,0,1,81.952,140.994Z"/><path class="cls-2" d="M85.394,141.425a1.6,1.6,0,0,1-1.26-.5,2.061,2.061,0,0,1-.446-1.417,2.121,2.121,0,0,1,.453-1.452,1.631,1.631,0,0,1,1.291-.513,2.558,2.558,0,0,1,.54.059,1.792,1.792,0,0,1,.424.136l-.175.482a2.668,2.668,0,0,0-.41-.125,1.843,1.843,0,0,0-.393-.05q-1.143,0-1.142,1.457a1.732,1.732,0,0,0,.279,1.059.968.968,0,0,0,.825.369,2.534,2.534,0,0,0,.961-.2v.5A2.036,2.036,0,0,1,85.394,141.425Z"/><path class="cls-2" d="M89.793,141.356v-2.423a.974.974,0,0,0-.209-.684.849.849,0,0,0-.652-.225,1.072,1.072,0,0,0-.864.321A1.635,1.635,0,0,0,87.8,139.4v1.959h-.568v-5.318H87.8v1.609a3.731,3.731,0,0,1-.027.483H87.8a1.155,1.155,0,0,1,.476-.426,1.56,1.56,0,0,1,.706-.155,1.445,1.445,0,0,1,1.031.326,1.375,1.375,0,0,1,.343,1.038v2.443Z"/><path class="cls-2" d="M93.423,136.359l-1.863,5h-.568l1.863-5Z"/><path class="cls-2" d="M97.322,141.356l-.622-1.589h-2l-.615,1.589h-.588l1.976-5.017h.489l1.965,5.017Zm-.8-2.112-.582-1.548c-.075-.2-.153-.436-.232-.721a6.6,6.6,0,0,1-.216.721l-.588,1.548Z"/><path class="cls-2" d="M100.423,136.359l-1.863,5h-.568l1.863-5Z"/><path class="cls-2" d="M101.182,136.359h1.411a2.658,2.658,0,0,1,1.439.3,1.049,1.049,0,0,1,.445.94,1.086,1.086,0,0,1-.248.733,1.2,1.2,0,0,1-.723.374v.034q1.138.195,1.138,1.2a1.282,1.282,0,0,1-.454,1.045,1.921,1.921,0,0,1-1.265.376h-1.743Zm.581,2.14h.957a1.549,1.549,0,0,0,.884-.193.744.744,0,0,0,.271-.651.66.66,0,0,0-.3-.607,1.882,1.882,0,0,0-.957-.186h-.854Zm0,.492v1.869h1.042a1.487,1.487,0,0,0,.911-.233.863.863,0,0,0,.305-.733.777.777,0,0,0-.312-.684,1.67,1.67,0,0,0-.952-.219Z"/><path class="cls-2" d="M105.55,140.994a.509.509,0,0,1,.1-.347.377.377,0,0,1,.3-.118.406.406,0,0,1,.31.118.5.5,0,0,1,.11.347.479.479,0,0,1-.112.342.448.448,0,0,1-.6.012A.47.47,0,0,1,105.55,140.994Z"/><path class="cls-2" d="M110.058,141.356v-2.423a.984.984,0,0,0-.208-.684.854.854,0,0,0-.654-.225,1.073,1.073,0,0,0-.863.321,1.629,1.629,0,0,0-.271,1.052v1.959h-.568v-5.318h.568v1.609a3.384,3.384,0,0,1-.028.483h.034a1.171,1.171,0,0,1,.477-.426,1.563,1.563,0,0,1,.706-.155,1.441,1.441,0,0,1,1.03.326,1.371,1.371,0,0,1,.344,1.038v2.443Z"/><path class="cls-2" d="M113,140.956a1.95,1.95,0,0,0,.29-.021,1.891,1.891,0,0,0,.223-.047v.434a1.06,1.06,0,0,1-.272.074,2.085,2.085,0,0,1-.323.029q-1.087,0-1.087-1.145v-2.228H111.3v-.274l.537-.236.239-.8h.328v.868h1.087v.442H112.4v2.2a.759.759,0,0,0,.161.519A.557.557,0,0,0,113,140.956Z"/><path class="cls-2" d="M119.037,141.356v-2.437a1.014,1.014,0,0,0-.191-.671.742.742,0,0,0-.595-.224.96.96,0,0,0-.783.3,1.45,1.45,0,0,0-.253.937v2.091h-.568v-2.437a1.008,1.008,0,0,0-.191-.671.745.745,0,0,0-.6-.224.927.927,0,0,0-.781.32,1.729,1.729,0,0,0-.248,1.048v1.964h-.567V137.61h.462l.091.513h.028a1.105,1.105,0,0,1,.453-.427,1.375,1.375,0,0,1,.654-.154,1.113,1.113,0,0,1,1.149.636h.027a1.189,1.189,0,0,1,.485-.465,1.508,1.508,0,0,1,.725-.171,1.267,1.267,0,0,1,.952.326,1.463,1.463,0,0,1,.316,1.045v2.443Z"/><path class="cls-2" d="M121.341,141.356h-.568v-5.318h.568Z"/><rect class="cls-1" x="52.527" y="159.5" width="133.063" height="23"/><path class="cls-2" d="M98.382,174.443H97.02v-5.291H95.274v-1.133h4.852v1.133H98.382Z"/><path class="cls-2" d="M105.581,174.443H104.24v-2.869q0-1.064-.791-1.064a.9.9,0,0,0-.812.383,2.332,2.332,0,0,0-.251,1.239v2.311h-1.34v-6.838h1.34V169q0,.163-.031.766l-.031.394h.071a1.553,1.553,0,0,1,1.423-.72,1.744,1.744,0,0,1,1.315.466,1.851,1.851,0,0,1,.448,1.336Z"/><path class="cls-2" d="M109.22,174.531a2.54,2.54,0,0,1-1.855-.654,2.483,2.483,0,0,1-.668-1.856,2.731,2.731,0,0,1,.617-1.909,2.205,2.205,0,0,1,1.708-.674,2.166,2.166,0,0,1,1.622.593,2.25,2.25,0,0,1,.58,1.639v.65h-3.168a1.287,1.287,0,0,0,.338.893,1.186,1.186,0,0,0,.887.32,3.666,3.666,0,0,0,.84-.092,4.082,4.082,0,0,0,.826-.3v1.038a3.056,3.056,0,0,1-.752.261A4.664,4.664,0,0,1,109.22,174.531Zm-.189-4.139a.847.847,0,0,0-.668.27,1.249,1.249,0,0,0-.277.767h1.881a1.118,1.118,0,0,0-.259-.767A.876.876,0,0,0,109.031,170.392Z"/><path class="cls-2" d="M116.758,174.443h-1.34v-2.869a1.453,1.453,0,0,0-.178-.8.626.626,0,0,0-.56-.266.812.812,0,0,0-.747.379,2.467,2.467,0,0,0-.234,1.243v2.311h-1.34V169.53h1.024l.18.628h.075a1.375,1.375,0,0,1,.571-.529,1.861,1.861,0,0,1,.857-.191,1.547,1.547,0,0,1,1.5.72h.118a1.328,1.328,0,0,1,.583-.531,1.937,1.937,0,0,1,.867-.189,1.717,1.717,0,0,1,1.264.428,1.882,1.882,0,0,1,.428,1.374v3.2h-1.344v-2.869a1.453,1.453,0,0,0-.178-.8.628.628,0,0,0-.561-.266.839.839,0,0,0-.736.351,2.01,2.01,0,0,0-.244,1.118Z"/><path class="cls-2" d="M124.361,174.443l-.258-.668h-.036a1.956,1.956,0,0,1-.7.591,2.228,2.228,0,0,1-.933.165,1.515,1.515,0,0,1-1.115-.4,1.556,1.556,0,0,1-.406-1.151,1.3,1.3,0,0,1,.547-1.154,3.173,3.173,0,0,1,1.65-.411l.853-.026v-.215a.669.669,0,0,0-.765-.748,3.494,3.494,0,0,0-1.384.356l-.444-.905a3.99,3.99,0,0,1,1.881-.443,2.353,2.353,0,0,1,1.517.429,1.6,1.6,0,0,1,.527,1.311v3.273Zm-.4-2.276-.519.018a1.656,1.656,0,0,0-.87.211.661.661,0,0,0-.285.588q0,.567.65.567a1.028,1.028,0,0,0,.745-.268.942.942,0,0,0,.279-.712Z"/><path class="cls-2" d="M133.135,174.443l-.466-1.529h-2.342l-.466,1.529h-1.467l2.267-6.451h1.665l2.277,6.451Zm-.791-2.672q-.646-2.077-.727-2.351c-.055-.181-.094-.324-.117-.43q-.146.563-.83,2.781Z"/><path class="cls-2" d="M135.162,173.814a.737.737,0,0,1,.2-.557.805.805,0,0,1,.577-.189.779.779,0,0,1,.564.194.853.853,0,0,1,0,1.1.766.766,0,0,1-.562.2.786.786,0,0,1-.572-.2A.729.729,0,0,1,135.162,173.814Z"/><path class="cls-2" d="M140.788,169.061a1.388,1.388,0,0,0-1.191.577,2.684,2.684,0,0,0-.422,1.61q0,2.151,1.613,2.149a5.087,5.087,0,0,0,1.639-.338V174.2a4.531,4.531,0,0,1-1.767.33,2.693,2.693,0,0,1-2.144-.85,3.6,3.6,0,0,1-.743-2.441,3.989,3.989,0,0,1,.365-1.756,2.635,2.635,0,0,1,1.048-1.156,3.113,3.113,0,0,1,1.6-.4,4.321,4.321,0,0,1,1.881.453l-.44,1.107a7.1,7.1,0,0,0-.725-.3A2.16,2.16,0,0,0,140.788,169.061Z"/><rect class="cls-3" x="52.527" y="159.5" width="133.063" height="23"/><path class="cls-2" d="M54.687,195.356l-.687-2.2c-.044-.135-.124-.44-.243-.916h-.028q-.135.6-.239.922l-.707,2.191h-.656L51.1,191.61H51.7q.363,1.413.553,2.151a8.984,8.984,0,0,1,.217.994H52.5c.025-.13.066-.3.121-.5s.105-.37.146-.49l.686-2.151h.615l.67,2.151a7.067,7.067,0,0,1,.26.987h.027c.01-.082.035-.208.075-.38s.277-1.09.712-2.758H56.4l-1.036,3.746Z"/><path class="cls-2" d="M60.132,195.356l-.688-2.2q-.064-.2-.242-.916h-.027c-.092.4-.171.706-.239.922l-.708,2.191h-.657L56.55,191.61h.6q.361,1.413.551,2.151a8.522,8.522,0,0,1,.217.994h.027c.026-.13.066-.3.122-.5s.1-.37.145-.49l.688-2.151h.615l.67,2.151a7.186,7.186,0,0,1,.259.987h.028a3.586,3.586,0,0,1,.073-.38q.06-.255.713-2.758h.588l-1.036,3.746Z"/><path class="cls-2" d="M65.576,195.356l-.686-2.2c-.044-.135-.124-.44-.244-.916h-.027q-.136.6-.239.922l-.707,2.191h-.656l-1.023-3.746h.595q.363,1.413.553,2.151a8.668,8.668,0,0,1,.216.994h.028c.024-.13.065-.3.121-.5s.1-.37.145-.49l.687-2.151h.615l.67,2.151a7.067,7.067,0,0,1,.26.987h.027c.01-.082.034-.208.074-.38s.278-1.09.712-2.758h.588l-1.035,3.746Z"/><path class="cls-2" d="M67.88,194.994a.514.514,0,0,1,.1-.347.377.377,0,0,1,.3-.118.4.4,0,0,1,.31.118.49.49,0,0,1,.111.347.48.48,0,0,1-.113.342.448.448,0,0,1-.6.012A.47.47,0,0,1,67.88,194.994Z"/><path class="cls-2" d="M71.035,194.956a1.95,1.95,0,0,0,.29-.021,1.891,1.891,0,0,0,.223-.047v.434a1.048,1.048,0,0,1-.272.074,2.085,2.085,0,0,1-.323.029q-1.086,0-1.087-1.145v-2.228h-.537v-.274l.537-.236.239-.8h.329v.868h1.087v.442H70.434v2.2a.759.759,0,0,0,.16.519A.558.558,0,0,0,71.035,194.956Z"/><path class="cls-2" d="M73.879,195.425a1.726,1.726,0,0,1-1.312-.506,1.963,1.963,0,0,1-.479-1.4,2.175,2.175,0,0,1,.445-1.44,1.484,1.484,0,0,1,1.2-.533,1.413,1.413,0,0,1,1.115.463,1.778,1.778,0,0,1,.41,1.223v.358h-2.58a1.482,1.482,0,0,0,.333,1,1.153,1.153,0,0,0,.89.342,3.031,3.031,0,0,0,1.2-.252v.506a3.008,3.008,0,0,1-.57.185A3.152,3.152,0,0,1,73.879,195.425Zm-.154-3.408a.926.926,0,0,0-.72.3,1.349,1.349,0,0,0-.316.812h1.958a1.243,1.243,0,0,0-.239-.821A.839.839,0,0,0,73.725,192.017Z"/><path class="cls-2" d="M78.64,194.335a.941.941,0,0,1-.39.807,1.84,1.84,0,0,1-1.094.283,2.359,2.359,0,0,1-1.162-.237v-.525a2.863,2.863,0,0,0,.58.215,2.388,2.388,0,0,0,.6.078,1.349,1.349,0,0,0,.684-.142.488.488,0,0,0,.049-.806,2.955,2.955,0,0,0-.74-.367,4.061,4.061,0,0,1-.743-.34,1.019,1.019,0,0,1-.328-.33.871.871,0,0,1-.108-.441.841.841,0,0,1,.372-.723,1.736,1.736,0,0,1,1.023-.265,3,3,0,0,1,1.183.246l-.2.461a2.729,2.729,0,0,0-1.021-.232,1.179,1.179,0,0,0-.609.127.391.391,0,0,0-.2.348.422.422,0,0,0,.078.257.738.738,0,0,0,.247.2,5.709,5.709,0,0,0,.656.278,2.446,2.446,0,0,1,.9.488A.862.862,0,0,1,78.64,194.335Z"/><path class="cls-2" d="M80.772,194.956a1.954,1.954,0,0,0,.291-.021,1.912,1.912,0,0,0,.222-.047v.434a1.039,1.039,0,0,1-.271.074,2.1,2.1,0,0,1-.324.029q-1.086,0-1.086-1.145v-2.228h-.537v-.274l.537-.236.239-.8h.328v.868h1.087v.442H80.171v2.2a.759.759,0,0,0,.161.519A.556.556,0,0,0,80.772,194.956Z"/><path class="cls-2" d="M81.952,194.994a.5.5,0,0,1,.105-.347.375.375,0,0,1,.3-.118.4.4,0,0,1,.31.118.5.5,0,0,1,.11.347.479.479,0,0,1-.112.342.448.448,0,0,1-.6.012A.47.47,0,0,1,81.952,194.994Z"/><path class="cls-2" d="M85.394,195.425a1.6,1.6,0,0,1-1.26-.5,2.061,2.061,0,0,1-.446-1.417,2.121,2.121,0,0,1,.453-1.452,1.631,1.631,0,0,1,1.291-.513,2.558,2.558,0,0,1,.54.059,1.792,1.792,0,0,1,.424.136l-.175.482a2.668,2.668,0,0,0-.41-.125,1.843,1.843,0,0,0-.393-.05q-1.143,0-1.142,1.457a1.732,1.732,0,0,0,.279,1.059.968.968,0,0,0,.825.369,2.534,2.534,0,0,0,.961-.2v.5A2.036,2.036,0,0,1,85.394,195.425Z"/><path class="cls-2" d="M89.793,195.356v-2.423a.974.974,0,0,0-.209-.684.849.849,0,0,0-.652-.225,1.072,1.072,0,0,0-.864.321A1.635,1.635,0,0,0,87.8,193.4v1.959h-.568v-5.318H87.8v1.609a3.731,3.731,0,0,1-.027.483H87.8a1.155,1.155,0,0,1,.476-.426,1.56,1.56,0,0,1,.706-.155,1.445,1.445,0,0,1,1.031.326,1.375,1.375,0,0,1,.343,1.038v2.443Z"/><path class="cls-2" d="M93.423,190.359l-1.863,5h-.568l1.863-5Z"/><path class="cls-2" d="M97.322,195.356l-.622-1.589h-2l-.615,1.589h-.588l1.976-5.017h.489l1.965,5.017Zm-.8-2.112-.582-1.548c-.075-.2-.153-.436-.232-.721a6.6,6.6,0,0,1-.216.721l-.588,1.548Z"/><path class="cls-2" d="M100.423,190.359l-1.863,5h-.568l1.863-5Z"/><path class="cls-2" d="M103.321,190.808a1.631,1.631,0,0,0-1.3.547,2.211,2.211,0,0,0-.477,1.5,2.259,2.259,0,0,0,.459,1.516,1.638,1.638,0,0,0,1.311.535,4.484,4.484,0,0,0,1.193-.188v.508a3.644,3.644,0,0,1-1.281.2,2.172,2.172,0,0,1-1.7-.67,2.757,2.757,0,0,1-.6-1.9,3.016,3.016,0,0,1,.288-1.354,2.074,2.074,0,0,1,.834-.894,2.525,2.525,0,0,1,1.284-.315,3.1,3.1,0,0,1,1.374.287l-.246.5A2.661,2.661,0,0,0,103.321,190.808Z"/><path class="cls-2" d="M105.43,194.994a.514.514,0,0,1,.1-.347.377.377,0,0,1,.3-.118.4.4,0,0,1,.31.118.49.49,0,0,1,.111.347.48.48,0,0,1-.113.342.448.448,0,0,1-.6.012A.47.47,0,0,1,105.43,194.994Z"/><path class="cls-2" d="M109.938,195.356v-2.423a.974.974,0,0,0-.209-.684.848.848,0,0,0-.652-.225,1.072,1.072,0,0,0-.863.321,1.628,1.628,0,0,0-.272,1.052v1.959h-.567v-5.318h.567v1.609a3.56,3.56,0,0,1-.027.483h.034a1.165,1.165,0,0,1,.477-.426,1.557,1.557,0,0,1,.706-.155,1.441,1.441,0,0,1,1.03.326,1.371,1.371,0,0,1,.344,1.038v2.443Z"/><path class="cls-2" d="M112.881,194.956a1.973,1.973,0,0,0,.291-.021,1.912,1.912,0,0,0,.222-.047v.434a1.06,1.06,0,0,1-.272.074,2.085,2.085,0,0,1-.323.029q-1.088,0-1.087-1.145v-2.228h-.536v-.274l.536-.236.239-.8h.328v.868h1.087v.442h-1.087v2.2a.759.759,0,0,0,.161.519A.558.558,0,0,0,112.881,194.956Z"/><path class="cls-2" d="M118.917,195.356v-2.437a1.008,1.008,0,0,0-.191-.671.741.741,0,0,0-.595-.224.957.957,0,0,0-.782.3,1.444,1.444,0,0,0-.253.937v2.091h-.568v-2.437a1.014,1.014,0,0,0-.191-.671.747.747,0,0,0-.6-.224.925.925,0,0,0-.78.32,1.722,1.722,0,0,0-.248,1.048v1.964h-.567V191.61h.461l.092.513h.028a1.093,1.093,0,0,1,.453-.427,1.372,1.372,0,0,1,.654-.154,1.113,1.113,0,0,1,1.148.636h.028a1.183,1.183,0,0,1,.485-.465,1.5,1.5,0,0,1,.725-.171,1.267,1.267,0,0,1,.952.326,1.468,1.468,0,0,1,.315,1.045v2.443Z"/><path class="cls-2" d="M121.221,195.356h-.568v-5.318h.568Z"/><polyline class="cls-3" points="35.518 46 35.518 62.5 51.026 62.5"/><polyline class="cls-3" points="35.518 58 35.518 116.5 51.026 116.5"/><polyline class="cls-3" points="35.518 112 35.518 170.5 51.026 170.5"/></svg>