<svg id="Layer_1" data-name="Layer 1" xmlns="http://www.w3.org/2000/svg" viewBox="0 0 289.14 141"><defs><style>.cls-1{fill:none;stroke:#20201e;stroke-width:3px;}.cls-2{fill:#fff;}.cls-3{fill:#20201e;}</style></defs><title>paging</title><path class="cls-1" d="M191.915,11.633C198.6,17.866,202.6,25.7,202.6,34.222s-2.384,14.853-9.071,21.086"/><polyline class="cls-1" points="194.127 46.923 193.526 55.307 201.932 55.297"/><path class="cls-1" d="M191.915,73.854C198.6,80.086,202.6,87.922,202.6,96.442s-2.384,14.853-9.071,21.086"/><polyline class="cls-1" points="194.127 109.143 193.526 117.527 201.932 117.517"/><rect class="cls-2" x="1.502" y="4.5" width="184.087" height="23"/><path class="cls-3" d="M60.93,19.443H59.568V14.152H57.824V13.019h4.852v1.133H60.93Z"/><path class="cls-3" d="M68.13,19.443H66.79V16.574q0-1.064-.791-1.064a.9.9,0,0,0-.814.383,2.333,2.333,0,0,0-.25,1.239v2.311H63.594V12.605h1.341V14q0,.164-.031.766l-.03.394h.07a1.555,1.555,0,0,1,1.424-.72,1.74,1.74,0,0,1,1.313.466,1.851,1.851,0,0,1,.449,1.336Z"/><path class="cls-3" d="M71.769,19.531a2.536,2.536,0,0,1-1.854-.654,2.479,2.479,0,0,1-.668-1.856,2.726,2.726,0,0,1,.617-1.909,2.2,2.2,0,0,1,1.707-.674,2.168,2.168,0,0,1,1.622.593,2.246,2.246,0,0,1,.58,1.639v.65H70.6a1.292,1.292,0,0,0,.339.893,1.19,1.19,0,0,0,.888.32,3.657,3.657,0,0,0,.839-.092,4.1,4.1,0,0,0,.826-.295v1.038a3.078,3.078,0,0,1-.751.261A4.681,4.681,0,0,1,71.769,19.531Zm-.189-4.139a.847.847,0,0,0-.668.27,1.255,1.255,0,0,0-.277.767h1.881a1.118,1.118,0,0,0-.259-.767A.876.876,0,0,0,71.58,15.392Z"/><path class="cls-3" d="M79.307,19.443h-1.34V16.574a1.453,1.453,0,0,0-.178-.8.628.628,0,0,0-.561-.266.812.812,0,0,0-.747.379,2.481,2.481,0,0,0-.232,1.243v2.311H74.908V14.53h1.024l.18.628h.075a1.371,1.371,0,0,1,.572-.529,1.857,1.857,0,0,1,.856-.191,1.546,1.546,0,0,1,1.494.72h.119a1.326,1.326,0,0,1,.582-.531,1.942,1.942,0,0,1,.868-.189,1.713,1.713,0,0,1,1.263.428,1.882,1.882,0,0,1,.429,1.374v3.2H81.025V16.574a1.444,1.444,0,0,0-.178-.8.626.626,0,0,0-.56-.266.839.839,0,0,0-.736.351,2,2,0,0,0-.244,1.118Z"/><path class="cls-3" d="M86.911,19.443l-.26-.668h-.035a1.971,1.971,0,0,1-.7.591,2.237,2.237,0,0,1-.934.165,1.51,1.51,0,0,1-1.114-.4,1.548,1.548,0,0,1-.406-1.151,1.3,1.3,0,0,1,.546-1.154,3.177,3.177,0,0,1,1.651-.411l.852-.026V16.17a.669.669,0,0,0-.764-.748,3.49,3.49,0,0,0-1.385.356l-.443-.905a3.989,3.989,0,0,1,1.88-.443,2.348,2.348,0,0,1,1.516.429,1.594,1.594,0,0,1,.527,1.311v3.273Zm-.4-2.276L86,17.185a1.65,1.65,0,0,0-.87.211.66.66,0,0,0-.286.588q0,.567.65.567a1.03,1.03,0,0,0,.745-.268.942.942,0,0,0,.279-.712Z"/><path class="cls-3" d="M95.693,19.443l-.466-1.529H92.884l-.465,1.529H90.951l2.267-6.451h1.666l2.277,6.451ZM94.9,16.771q-.646-2.078-.727-2.351c-.055-.181-.093-.324-.117-.43q-.144.563-.831,2.781Z"/><path class="cls-3" d="M99.949,17.527v-1.01h3.779v1.01Z"/><path class="cls-3" d="M109.8,19.443h-1.362V14.152H106.7V13.019h4.852v1.133H109.8Z"/><path class="cls-3" d="M114.691,19.531a2.536,2.536,0,0,1-1.854-.654,2.479,2.479,0,0,1-.668-1.856,2.726,2.726,0,0,1,.617-1.909,2.2,2.2,0,0,1,1.707-.674,2.168,2.168,0,0,1,1.622.593,2.246,2.246,0,0,1,.58,1.639v.65h-3.169a1.292,1.292,0,0,0,.339.893,1.19,1.19,0,0,0,.888.32,3.657,3.657,0,0,0,.839-.092,4.1,4.1,0,0,0,.826-.295v1.038a3.078,3.078,0,0,1-.751.261A4.681,4.681,0,0,1,114.691,19.531Zm-.189-4.139a.846.846,0,0,0-.668.27,1.255,1.255,0,0,0-.277.767h1.881a1.118,1.118,0,0,0-.26-.767A.873.873,0,0,0,114.5,15.392Z"/><path class="cls-3" d="M117.773,13.26q0-.654.73-.655t.729.655a.64.64,0,0,1-.182.486.772.772,0,0,1-.547.174C118.016,13.92,117.773,13.7,117.773,13.26Zm1.4,6.183H117.83V14.53h1.341Z"/><path class="cls-3" d="M121.953,19.443h-1.341V12.605h1.341Z"/><path class="cls-3" d="M128.793,19.443h-1.359V15.726l.014-.611.021-.668c-.225.226-.381.373-.469.444l-.739.593-.655-.818,2.07-1.647h1.117Z"/><rect class="cls-1" x="1.502" y="4.5" width="184.087" height="23"/><rect class="cls-2" x="1.502" y="52.5" width="184.087" height="23"/><path class="cls-3" d="M60.526,67.443H59.164V62.152H57.42V61.019h4.851v1.133H60.526Z"/><path class="cls-3" d="M67.725,67.443h-1.34V64.574q0-1.063-.791-1.064a.9.9,0,0,0-.813.383,2.333,2.333,0,0,0-.25,1.239v2.311H63.19V60.605h1.341V62c0,.109-.011.364-.031.766l-.031.394h.071a1.555,1.555,0,0,1,1.424-.72,1.741,1.741,0,0,1,1.313.466,1.851,1.851,0,0,1,.448,1.336Z"/><path class="cls-3" d="M71.365,67.531a2.54,2.54,0,0,1-1.855-.654,2.483,2.483,0,0,1-.668-1.856,2.727,2.727,0,0,1,.618-1.909,2.2,2.2,0,0,1,1.707-.674,2.168,2.168,0,0,1,1.622.593,2.246,2.246,0,0,1,.58,1.639v.65H70.2a1.292,1.292,0,0,0,.339.893,1.189,1.189,0,0,0,.887.32,3.651,3.651,0,0,0,.839-.092,4.112,4.112,0,0,0,.827-.3v1.038a3.078,3.078,0,0,1-.751.261A4.681,4.681,0,0,1,71.365,67.531Zm-.189-4.139a.846.846,0,0,0-.668.27,1.249,1.249,0,0,0-.277.767h1.881a1.118,1.118,0,0,0-.26-.767A.873.873,0,0,0,71.176,63.392Z"/><path class="cls-3" d="M78.9,67.443H77.562V64.574a1.444,1.444,0,0,0-.178-.8.626.626,0,0,0-.56-.266.812.812,0,0,0-.747.379,2.479,2.479,0,0,0-.233,1.243v2.311H74.5V62.53h1.024l.18.628h.075a1.375,1.375,0,0,1,.571-.529,1.858,1.858,0,0,1,.857-.191,1.546,1.546,0,0,1,1.494.72h.119a1.326,1.326,0,0,1,.582-.531,1.942,1.942,0,0,1,.868-.189,1.713,1.713,0,0,1,1.263.428,1.882,1.882,0,0,1,.429,1.374v3.2H80.621V64.574a1.453,1.453,0,0,0-.178-.8.627.627,0,0,0-.56-.266.84.84,0,0,0-.737.351,2.011,2.011,0,0,0-.243,1.118Z"/><path class="cls-3" d="M86.507,67.443l-.26-.668h-.035a1.964,1.964,0,0,1-.7.591,2.228,2.228,0,0,1-.933.165,1.514,1.514,0,0,1-1.115-.4,1.552,1.552,0,0,1-.406-1.151,1.3,1.3,0,0,1,.547-1.154,3.174,3.174,0,0,1,1.651-.411l.852-.026V64.17a.669.669,0,0,0-.765-.748,3.49,3.49,0,0,0-1.384.356l-.444-.905A4,4,0,0,1,85.4,62.43a2.35,2.35,0,0,1,1.516.429,1.6,1.6,0,0,1,.527,1.311v3.273Zm-.4-2.276-.519.018a1.656,1.656,0,0,0-.87.211.662.662,0,0,0-.286.588q0,.567.651.567a1.032,1.032,0,0,0,.745-.268.946.946,0,0,0,.279-.712Z"/><path class="cls-3" d="M95.28,67.443l-.466-1.529H92.471l-.465,1.529H90.538l2.267-6.451h1.666l2.277,6.451Zm-.791-2.672q-.647-2.078-.728-2.351c-.054-.181-.092-.324-.116-.43q-.144.563-.831,2.781Z"/><path class="cls-3" d="M99.536,65.527v-1.01h3.779v1.01Z"/><path class="cls-3" d="M109.39,67.443h-1.362V62.152h-1.745V61.019h4.851v1.133H109.39Z"/><path class="cls-3" d="M114.278,67.531a2.536,2.536,0,0,1-1.854-.654,2.479,2.479,0,0,1-.668-1.856,2.726,2.726,0,0,1,.617-1.909,2.2,2.2,0,0,1,1.707-.674,2.168,2.168,0,0,1,1.622.593,2.246,2.246,0,0,1,.58,1.639v.65h-3.169a1.292,1.292,0,0,0,.339.893,1.19,1.19,0,0,0,.888.32,3.648,3.648,0,0,0,.838-.092,4.112,4.112,0,0,0,.827-.3v1.038a3.078,3.078,0,0,1-.751.261A4.681,4.681,0,0,1,114.278,67.531Zm-.189-4.139a.846.846,0,0,0-.668.27,1.249,1.249,0,0,0-.277.767h1.881a1.118,1.118,0,0,0-.26-.767A.873.873,0,0,0,114.089,63.392Z"/><path class="cls-3" d="M117.359,61.26q0-.654.73-.655t.729.655a.637.637,0,0,1-.182.486.771.771,0,0,1-.547.174C117.6,61.92,117.359,61.7,117.359,61.26Zm1.4,6.183h-1.34V62.53h1.34Z"/><path class="cls-3" d="M121.54,67.443H120.2V60.605h1.341Z"/><path class="cls-3" d="M129.513,67.443h-4.491V66.5l1.612-1.63q.717-.733.937-1.017a2.238,2.238,0,0,0,.316-.525,1.327,1.327,0,0,0,.1-.5.73.73,0,0,0-.213-.575.826.826,0,0,0-.569-.188,1.644,1.644,0,0,0-.726.17,3.785,3.785,0,0,0-.733.488l-.738-.874a4.824,4.824,0,0,1,.786-.572,2.854,2.854,0,0,1,.681-.256,3.444,3.444,0,0,1,.827-.091,2.453,2.453,0,0,1,1.063.22,1.7,1.7,0,0,1,.716.616,1.63,1.63,0,0,1,.255.9,2.212,2.212,0,0,1-.156.833,3.2,3.2,0,0,1-.483.8,11.854,11.854,0,0,1-1.154,1.164l-.826.778V66.3h2.8Z"/><rect class="cls-1" x="1.502" y="52.5" width="184.087" height="23"/><rect class="cls-2" x="1.502" y="100.5" width="184.087" height="23"/><path class="cls-3" d="M60.526,115.443H59.164v-5.291H57.42v-1.133h4.851v1.133H60.526Z"/><path class="cls-3" d="M67.725,115.443h-1.34v-2.869q0-1.064-.791-1.064a.9.9,0,0,0-.813.383,2.333,2.333,0,0,0-.25,1.239v2.311H63.19v-6.838h1.341V110c0,.109-.011.364-.031.766l-.031.394h.071a1.555,1.555,0,0,1,1.424-.72,1.741,1.741,0,0,1,1.313.466,1.851,1.851,0,0,1,.448,1.336Z"/><path class="cls-3" d="M71.365,115.531a2.54,2.54,0,0,1-1.855-.654,2.483,2.483,0,0,1-.668-1.856,2.727,2.727,0,0,1,.618-1.909,2.2,2.2,0,0,1,1.707-.674,2.168,2.168,0,0,1,1.622.593,2.246,2.246,0,0,1,.58,1.639v.65H70.2a1.292,1.292,0,0,0,.339.893,1.189,1.189,0,0,0,.887.32,3.651,3.651,0,0,0,.839-.092,4.112,4.112,0,0,0,.827-.3v1.038a3.078,3.078,0,0,1-.751.261A4.681,4.681,0,0,1,71.365,115.531Zm-.189-4.139a.846.846,0,0,0-.668.27,1.249,1.249,0,0,0-.277.767h1.881a1.118,1.118,0,0,0-.26-.767A.873.873,0,0,0,71.176,111.392Z"/><path class="cls-3" d="M78.9,115.443H77.562v-2.869a1.444,1.444,0,0,0-.178-.8.626.626,0,0,0-.56-.266.812.812,0,0,0-.747.379,2.479,2.479,0,0,0-.233,1.243v2.311H74.5V110.53h1.024l.18.628h.075a1.375,1.375,0,0,1,.571-.529,1.858,1.858,0,0,1,.857-.191,1.546,1.546,0,0,1,1.494.72h.119a1.326,1.326,0,0,1,.582-.531,1.942,1.942,0,0,1,.868-.189,1.713,1.713,0,0,1,1.263.428,1.882,1.882,0,0,1,.429,1.374v3.2H80.621v-2.869a1.453,1.453,0,0,0-.178-.8.627.627,0,0,0-.56-.266.84.84,0,0,0-.737.351,2.011,2.011,0,0,0-.243,1.118Z"/><path class="cls-3" d="M86.507,115.443l-.26-.668h-.035a1.964,1.964,0,0,1-.7.591,2.228,2.228,0,0,1-.933.165,1.514,1.514,0,0,1-1.115-.4,1.552,1.552,0,0,1-.406-1.151,1.3,1.3,0,0,1,.547-1.154,3.174,3.174,0,0,1,1.651-.411l.852-.026v-.215a.669.669,0,0,0-.765-.748,3.49,3.49,0,0,0-1.384.356l-.444-.905a4,4,0,0,1,1.881-.443,2.35,2.35,0,0,1,1.516.429,1.6,1.6,0,0,1,.527,1.311v3.273Zm-.4-2.276-.519.018a1.656,1.656,0,0,0-.87.211.662.662,0,0,0-.286.588q0,.567.651.567a1.032,1.032,0,0,0,.745-.268.946.946,0,0,0,.279-.712Z"/><path class="cls-3" d="M95.28,115.443l-.466-1.529H92.471l-.465,1.529H90.538l2.267-6.451h1.666l2.277,6.451Zm-.791-2.672q-.647-2.078-.728-2.351c-.054-.181-.092-.324-.116-.43q-.144.563-.831,2.781Z"/><path class="cls-3" d="M99.536,113.527v-1.01h3.779v1.01Z"/><path class="cls-3" d="M109.39,115.443h-1.362v-5.291h-1.745v-1.133h4.851v1.133H109.39Z"/><path class="cls-3" d="M114.278,115.531a2.536,2.536,0,0,1-1.854-.654,2.479,2.479,0,0,1-.668-1.856,2.726,2.726,0,0,1,.617-1.909,2.2,2.2,0,0,1,1.707-.674,2.168,2.168,0,0,1,1.622.593,2.246,2.246,0,0,1,.58,1.639v.65h-3.169a1.292,1.292,0,0,0,.339.893,1.19,1.19,0,0,0,.888.32,3.648,3.648,0,0,0,.838-.092,4.112,4.112,0,0,0,.827-.3v1.038a3.078,3.078,0,0,1-.751.261A4.681,4.681,0,0,1,114.278,115.531Zm-.189-4.139a.846.846,0,0,0-.668.27,1.249,1.249,0,0,0-.277.767h1.881a1.118,1.118,0,0,0-.26-.767A.873.873,0,0,0,114.089,111.392Z"/><path class="cls-3" d="M117.359,109.26q0-.654.73-.655t.729.655a.637.637,0,0,1-.182.486.771.771,0,0,1-.547.174C117.6,109.92,117.359,109.7,117.359,109.26Zm1.4,6.183h-1.34V110.53h1.34Z"/><path class="cls-3" d="M121.54,115.443H120.2v-6.838h1.341Z"/><path class="cls-3" d="M129.262,110.455a1.511,1.511,0,0,1-.364,1.024,1.892,1.892,0,0,1-1.024.581v.026a2.037,2.037,0,0,1,1.177.473,1.32,1.32,0,0,1,.4,1.012,1.718,1.718,0,0,1-.673,1.444,3.1,3.1,0,0,1-1.92.516,4.652,4.652,0,0,1-1.854-.347v-1.156a4.172,4.172,0,0,0,.821.308,3.466,3.466,0,0,0,.888.119,1.73,1.73,0,0,0,.993-.228.841.841,0,0,0,.321-.735.662.662,0,0,0-.369-.641,2.732,2.732,0,0,0-1.178-.189h-.488V111.62h.5a2.318,2.318,0,0,0,1.092-.2.71.71,0,0,0,.344-.671c0-.485-.3-.729-.914-.729a2.1,2.1,0,0,0-.643.106,3.118,3.118,0,0,0-.728.364l-.628-.936a3.492,3.492,0,0,1,2.1-.633,2.72,2.72,0,0,1,1.576.4A1.3,1.3,0,0,1,129.262,110.455Z"/><rect class="cls-1" x="1.502" y="100.5" width="184.087" height="23"/><path class="cls-3" d="M3.663,40.356l-.687-2.2c-.044-.135-.124-.44-.243-.916H2.706q-.136.6-.239.922l-.708,2.191H1.1L.081,36.61h.6q.363,1.413.552,2.151a8.984,8.984,0,0,1,.217.994h.027c.025-.13.066-.3.121-.5s.1-.37.146-.49l.687-2.151h.615l.67,2.151a6.907,6.907,0,0,1,.259.987H4c.01-.082.034-.208.074-.38s.277-1.09.712-2.758h.588L4.337,40.356Z"/><path class="cls-3" d="M9.108,40.356l-.687-2.2q-.064-.2-.243-.916H8.151c-.092.4-.171.706-.239.922L7.2,40.356H6.548L5.526,36.61h.6q.361,1.413.552,2.151a8.447,8.447,0,0,1,.216.994h.028q.038-.2.121-.5c.056-.206.1-.37.145-.49l.688-2.151h.615l.67,2.151a7.359,7.359,0,0,1,.26.987h.027a3.586,3.586,0,0,1,.073-.38q.06-.255.713-2.758h.588L9.781,40.356Z"/><path class="cls-3" d="M14.552,40.356l-.686-2.2c-.044-.135-.124-.44-.243-.916H13.6q-.135.6-.239.922l-.707,2.191h-.656L10.97,36.61h.595q.363,1.413.553,2.151a8.984,8.984,0,0,1,.217.994h.027c.024-.13.065-.3.121-.5s.1-.37.146-.49l.686-2.151h.615l.67,2.151a7.067,7.067,0,0,1,.26.987h.027c.01-.082.035-.208.075-.38s.277-1.09.712-2.758h.587l-1.035,3.746Z"/><path class="cls-3" d="M16.856,39.994a.509.509,0,0,1,.1-.347.375.375,0,0,1,.3-.118.4.4,0,0,1,.31.118.49.49,0,0,1,.111.347.48.48,0,0,1-.113.342.4.4,0,0,1-.308.12.408.408,0,0,1-.289-.108A.47.47,0,0,1,16.856,39.994Z"/><path class="cls-3" d="M20.011,39.956a1.94,1.94,0,0,0,.29-.021,1.891,1.891,0,0,0,.223-.047v.434a1.039,1.039,0,0,1-.271.074,2.1,2.1,0,0,1-.324.029q-1.086,0-1.087-1.145V37.052h-.537v-.274l.537-.236.24-.8h.328v.868H20.5v.442H19.41v2.2a.764.764,0,0,0,.16.519A.558.558,0,0,0,20.011,39.956Z"/><path class="cls-3" d="M22.855,40.425a1.722,1.722,0,0,1-1.311-.506,1.959,1.959,0,0,1-.48-1.4,2.181,2.181,0,0,1,.445-1.44,1.486,1.486,0,0,1,1.2-.533,1.411,1.411,0,0,1,1.114.463,1.778,1.778,0,0,1,.41,1.223v.358h-2.58a1.482,1.482,0,0,0,.333,1,1.154,1.154,0,0,0,.891.342,3.029,3.029,0,0,0,1.2-.252v.506a3.023,3.023,0,0,1-.569.185A3.169,3.169,0,0,1,22.855,40.425ZM22.7,37.017a.926.926,0,0,0-.72.295,1.342,1.342,0,0,0-.315.812h1.958a1.237,1.237,0,0,0-.24-.821A.837.837,0,0,0,22.7,37.017Z"/><path class="cls-3" d="M27.616,39.335a.941.941,0,0,1-.39.807,1.836,1.836,0,0,1-1.093.283,2.363,2.363,0,0,1-1.163-.237v-.525a2.85,2.85,0,0,0,.581.215,2.38,2.38,0,0,0,.6.078,1.346,1.346,0,0,0,.684-.142.488.488,0,0,0,.05-.806,2.947,2.947,0,0,0-.741-.367,4.128,4.128,0,0,1-.743-.34,1.029,1.029,0,0,1-.328-.33.87.87,0,0,1-.107-.441.841.841,0,0,1,.372-.723,1.734,1.734,0,0,1,1.022-.265,2.994,2.994,0,0,1,1.183.246l-.2.461a2.733,2.733,0,0,0-1.022-.232,1.175,1.175,0,0,0-.608.127.389.389,0,0,0-.2.348.421.421,0,0,0,.077.257.759.759,0,0,0,.247.2,5.709,5.709,0,0,0,.656.278,2.453,2.453,0,0,1,.9.488A.865.865,0,0,1,27.616,39.335Z"/><path class="cls-3" d="M29.749,39.956a1.973,1.973,0,0,0,.291-.021,1.844,1.844,0,0,0,.221-.047v.434a1.039,1.039,0,0,1-.271.074,2.1,2.1,0,0,1-.323.029q-1.088,0-1.087-1.145V37.052h-.536v-.274l.536-.236.239-.8h.328v.868h1.087v.442H29.147v2.2a.759.759,0,0,0,.161.519A.558.558,0,0,0,29.749,39.956Z"/><path class="cls-3" d="M30.928,39.994a.509.509,0,0,1,.105-.347.376.376,0,0,1,.3-.118.4.4,0,0,1,.309.118.49.49,0,0,1,.111.347.475.475,0,0,1-.113.342.4.4,0,0,1-.307.12.4.4,0,0,1-.289-.108A.47.47,0,0,1,30.928,39.994Z"/><path class="cls-3" d="M34.37,40.425a1.6,1.6,0,0,1-1.26-.5,2.061,2.061,0,0,1-.445-1.417,2.121,2.121,0,0,1,.452-1.452,1.632,1.632,0,0,1,1.291-.513,2.551,2.551,0,0,1,.54.059,1.776,1.776,0,0,1,.424.136l-.175.482a2.668,2.668,0,0,0-.41-.125,1.835,1.835,0,0,0-.393-.05q-1.141,0-1.141,1.457a1.732,1.732,0,0,0,.278,1.059.97.97,0,0,0,.825.369,2.53,2.53,0,0,0,.961-.2v.5A2.033,2.033,0,0,1,34.37,40.425Z"/><path class="cls-3" d="M38.769,40.356V37.933a.974.974,0,0,0-.209-.684.848.848,0,0,0-.652-.225,1.069,1.069,0,0,0-.863.321,1.628,1.628,0,0,0-.272,1.052v1.959h-.567V35.038h.567v1.609a3.731,3.731,0,0,1-.027.483h.034a1.158,1.158,0,0,1,.477-.426,1.557,1.557,0,0,1,.706-.155,1.442,1.442,0,0,1,1.03.326,1.375,1.375,0,0,1,.344,1.038v2.443Z"/><path class="cls-3" d="M42.4,35.359l-1.863,5h-.568l1.864-5Z"/><path class="cls-3" d="M46.3,40.356l-.623-1.589h-2l-.616,1.589H42.47l1.976-5.017h.489L46.9,40.356Zm-.8-2.112L44.915,36.7c-.075-.2-.154-.436-.233-.721a6.576,6.576,0,0,1-.215.721l-.588,1.548Z"/><path class="cls-3" d="M49.344,40.356h-.553V36.8q0-.444.027-.841c-.048.048-.1.1-.161.15s-.33.275-.814.667l-.3-.389,1.323-1.023h.478Z"/><path class="cls-3" d="M51.423,39.994a.509.509,0,0,1,.1-.347.376.376,0,0,1,.3-.118.4.4,0,0,1,.309.118.49.49,0,0,1,.111.347.479.479,0,0,1-.112.342.448.448,0,0,1-.6.012A.47.47,0,0,1,51.423,39.994Z"/><path class="cls-3" d="M55.93,40.356V37.933a.979.979,0,0,0-.208-.684.85.85,0,0,0-.653-.225,1.072,1.072,0,0,0-.863.321,1.628,1.628,0,0,0-.272,1.052v1.959h-.567V35.038h.567v1.609a3.4,3.4,0,0,1-.027.483h.034a1.165,1.165,0,0,1,.477-.426,1.563,1.563,0,0,1,.706-.155,1.441,1.441,0,0,1,1.03.326,1.371,1.371,0,0,1,.344,1.038v2.443Z"/><path class="cls-3" d="M58.874,39.956a1.96,1.96,0,0,0,.29-.021,1.824,1.824,0,0,0,.222-.047v.434a1.039,1.039,0,0,1-.271.074,2.1,2.1,0,0,1-.323.029q-1.088,0-1.087-1.145V37.052h-.537v-.274l.537-.236.239-.8h.328v.868h1.087v.442H58.272v2.2a.764.764,0,0,0,.16.519A.56.56,0,0,0,58.874,39.956Z"/><path class="cls-3" d="M64.91,40.356V37.919a1.013,1.013,0,0,0-.192-.671.74.74,0,0,0-.594-.224.958.958,0,0,0-.783.3,1.45,1.45,0,0,0-.253.937v2.091H62.52V37.919a1.008,1.008,0,0,0-.191-.671.745.745,0,0,0-.6-.224.927.927,0,0,0-.781.32,1.729,1.729,0,0,0-.248,1.048v1.964h-.568V36.61H60.6l.092.513h.028a1.1,1.1,0,0,1,.453-.427,1.375,1.375,0,0,1,.654-.154,1.111,1.111,0,0,1,1.148.636H63a1.189,1.189,0,0,1,.485-.465,1.508,1.508,0,0,1,.725-.171,1.267,1.267,0,0,1,.952.326,1.463,1.463,0,0,1,.316,1.045v2.443Z"/><path class="cls-3" d="M67.214,40.356h-.568V35.038h.568Z"/><path class="cls-3" d="M3.663,88.355l-.687-2.2c-.044-.135-.124-.44-.243-.916H2.706q-.136.6-.239.922l-.708,2.191H1.1L.081,84.609h.6q.363,1.413.552,2.151a8.984,8.984,0,0,1,.217.994h.027c.025-.13.066-.3.121-.5s.1-.37.146-.49l.687-2.151h.615l.67,2.151a6.907,6.907,0,0,1,.259.987H4c.01-.082.034-.208.074-.38s.277-1.09.712-2.758h.588L4.337,88.355Z"/><path class="cls-3" d="M9.108,88.355l-.687-2.2q-.064-.2-.243-.916H8.151c-.092.4-.171.706-.239.922L7.2,88.355H6.548L5.526,84.609h.6q.361,1.413.552,2.151a8.447,8.447,0,0,1,.216.994h.028q.038-.2.121-.5c.056-.206.1-.37.145-.49l.688-2.151h.615l.67,2.151a7.359,7.359,0,0,1,.26.987h.027a3.586,3.586,0,0,1,.073-.38q.06-.255.713-2.758h.588L9.781,88.355Z"/><path class="cls-3" d="M14.552,88.355l-.686-2.2c-.044-.135-.124-.44-.243-.916H13.6q-.135.6-.239.922l-.707,2.191h-.656L10.97,84.609h.595q.363,1.413.553,2.151a8.984,8.984,0,0,1,.217.994h.027c.024-.13.065-.3.121-.5s.1-.37.146-.49l.686-2.151h.615l.67,2.151a7.067,7.067,0,0,1,.26.987h.027c.01-.082.035-.208.075-.38s.277-1.09.712-2.758h.587l-1.035,3.746Z"/><path class="cls-3" d="M16.856,87.993a.509.509,0,0,1,.1-.347.375.375,0,0,1,.3-.118.4.4,0,0,1,.31.118.49.49,0,0,1,.111.347.48.48,0,0,1-.113.342.4.4,0,0,1-.308.12.408.408,0,0,1-.289-.108A.47.47,0,0,1,16.856,87.993Z"/><path class="cls-3" d="M20.011,87.955a1.94,1.94,0,0,0,.29-.021,1.891,1.891,0,0,0,.223-.047v.434a1.039,1.039,0,0,1-.271.074,2.1,2.1,0,0,1-.324.029q-1.086,0-1.087-1.145V85.051h-.537v-.274l.537-.236.24-.8h.328v.868H20.5v.442H19.41v2.2a.764.764,0,0,0,.16.519A.555.555,0,0,0,20.011,87.955Z"/><path class="cls-3" d="M22.855,88.424a1.722,1.722,0,0,1-1.311-.506,1.959,1.959,0,0,1-.48-1.4,2.181,2.181,0,0,1,.445-1.44,1.486,1.486,0,0,1,1.2-.533A1.411,1.411,0,0,1,23.822,85a1.778,1.778,0,0,1,.41,1.223v.358h-2.58a1.482,1.482,0,0,0,.333,1,1.154,1.154,0,0,0,.891.342,3.029,3.029,0,0,0,1.2-.252v.506a3.023,3.023,0,0,1-.569.185A3.169,3.169,0,0,1,22.855,88.424ZM22.7,85.016a.926.926,0,0,0-.72.3,1.342,1.342,0,0,0-.315.812h1.958a1.237,1.237,0,0,0-.24-.821A.837.837,0,0,0,22.7,85.016Z"/><path class="cls-3" d="M27.616,87.334a.941.941,0,0,1-.39.807,1.836,1.836,0,0,1-1.093.283,2.375,2.375,0,0,1-1.163-.236v-.526a2.85,2.85,0,0,0,.581.215,2.38,2.38,0,0,0,.6.078,1.346,1.346,0,0,0,.684-.142.488.488,0,0,0,.05-.806,2.947,2.947,0,0,0-.741-.367,4.128,4.128,0,0,1-.743-.34,1.029,1.029,0,0,1-.328-.33.87.87,0,0,1-.107-.441.841.841,0,0,1,.372-.723,1.734,1.734,0,0,1,1.022-.265,2.994,2.994,0,0,1,1.183.246l-.2.461a2.733,2.733,0,0,0-1.022-.232,1.175,1.175,0,0,0-.608.127.389.389,0,0,0-.2.348.421.421,0,0,0,.077.257.759.759,0,0,0,.247.2,5.709,5.709,0,0,0,.656.278,2.453,2.453,0,0,1,.9.488A.865.865,0,0,1,27.616,87.334Z"/><path class="cls-3" d="M29.749,87.955a1.973,1.973,0,0,0,.291-.021,1.844,1.844,0,0,0,.221-.047v.434a1.039,1.039,0,0,1-.271.074,2.1,2.1,0,0,1-.323.029q-1.088,0-1.087-1.145V85.051h-.536v-.274l.536-.236.239-.8h.328v.868h1.087v.442H29.147v2.2a.759.759,0,0,0,.161.519A.555.555,0,0,0,29.749,87.955Z"/><path class="cls-3" d="M30.928,87.993a.509.509,0,0,1,.105-.347.376.376,0,0,1,.3-.118.4.4,0,0,1,.309.118.49.49,0,0,1,.111.347.475.475,0,0,1-.113.342.4.4,0,0,1-.307.12.4.4,0,0,1-.289-.108A.47.47,0,0,1,30.928,87.993Z"/><path class="cls-3" d="M34.37,88.424a1.6,1.6,0,0,1-1.26-.5,2.061,2.061,0,0,1-.445-1.417,2.122,2.122,0,0,1,.452-1.452,1.632,1.632,0,0,1,1.291-.513,2.551,2.551,0,0,1,.54.059,1.776,1.776,0,0,1,.424.136l-.175.482a2.668,2.668,0,0,0-.41-.125,1.835,1.835,0,0,0-.393-.05q-1.141,0-1.141,1.457a1.732,1.732,0,0,0,.278,1.059.97.97,0,0,0,.825.369,2.53,2.53,0,0,0,.961-.2v.5A2.046,2.046,0,0,1,34.37,88.424Z"/><path class="cls-3" d="M38.769,88.355V85.932a.974.974,0,0,0-.209-.684.848.848,0,0,0-.652-.225,1.069,1.069,0,0,0-.863.321,1.628,1.628,0,0,0-.272,1.052v1.959h-.567V83.037h.567v1.609a3.731,3.731,0,0,1-.027.483h.034a1.158,1.158,0,0,1,.477-.426,1.557,1.557,0,0,1,.706-.155,1.442,1.442,0,0,1,1.03.326,1.377,1.377,0,0,1,.344,1.038v2.443Z"/><path class="cls-3" d="M42.4,83.358l-1.863,5h-.568l1.864-5Z"/><path class="cls-3" d="M46.3,88.355l-.623-1.589h-2l-.616,1.589H42.47l1.976-5.017h.489L46.9,88.355Zm-.8-2.112L44.915,84.7c-.075-.2-.154-.436-.233-.721a6.576,6.576,0,0,1-.215.721l-.588,1.548Z"/><path class="cls-3" d="M50.527,88.355H47.242v-.488l1.316-1.323a9.707,9.707,0,0,0,.793-.868,2.244,2.244,0,0,0,.287-.506,1.445,1.445,0,0,0,.1-.529.839.839,0,0,0-.243-.635.928.928,0,0,0-.673-.235,1.7,1.7,0,0,0-.59.1,2.349,2.349,0,0,0-.62.372l-.3-.386a2.306,2.306,0,0,1,1.5-.574,1.592,1.592,0,0,1,1.1.36,1.244,1.244,0,0,1,.4.969,1.884,1.884,0,0,1-.266.941,6.026,6.026,0,0,1-1,1.175L47.957,87.8v.027h2.57Z"/><path class="cls-3" d="M51.423,87.993a.509.509,0,0,1,.1-.347.376.376,0,0,1,.3-.118.4.4,0,0,1,.309.118.49.49,0,0,1,.111.347.479.479,0,0,1-.112.342.448.448,0,0,1-.6.012A.47.47,0,0,1,51.423,87.993Z"/><path class="cls-3" d="M55.93,88.355V85.932a.979.979,0,0,0-.208-.684.85.85,0,0,0-.653-.225,1.072,1.072,0,0,0-.863.321,1.628,1.628,0,0,0-.272,1.052v1.959h-.567V83.037h.567v1.609a3.4,3.4,0,0,1-.027.483h.034a1.165,1.165,0,0,1,.477-.426,1.563,1.563,0,0,1,.706-.155,1.441,1.441,0,0,1,1.03.326,1.373,1.373,0,0,1,.344,1.038v2.443Z"/><path class="cls-3" d="M58.874,87.955a1.96,1.96,0,0,0,.29-.021,1.824,1.824,0,0,0,.222-.047v.434a1.039,1.039,0,0,1-.271.074,2.1,2.1,0,0,1-.323.029q-1.088,0-1.087-1.145V85.051h-.537v-.274l.537-.236.239-.8h.328v.868h1.087v.442H58.272v2.2a.764.764,0,0,0,.16.519A.557.557,0,0,0,58.874,87.955Z"/><path class="cls-3" d="M64.91,88.355V85.918a1.013,1.013,0,0,0-.192-.671.74.74,0,0,0-.594-.224.958.958,0,0,0-.783.3,1.45,1.45,0,0,0-.253.937v2.091H62.52V85.918a1.008,1.008,0,0,0-.191-.671.745.745,0,0,0-.6-.224.927.927,0,0,0-.781.32,1.729,1.729,0,0,0-.248,1.048v1.964h-.568V84.609H60.6l.092.513h.028a1.1,1.1,0,0,1,.453-.427,1.375,1.375,0,0,1,.654-.154,1.111,1.111,0,0,1,1.148.636H63a1.189,1.189,0,0,1,.485-.465,1.508,1.508,0,0,1,.725-.171,1.267,1.267,0,0,1,.952.326,1.463,1.463,0,0,1,.316,1.045v2.443Z"/><path class="cls-3" d="M67.214,88.355h-.568V83.037h.568Z"/><path class="cls-3" d="M3.663,136.354l-.687-2.2c-.044-.135-.124-.44-.243-.916H2.706q-.136.6-.239.922l-.708,2.192H1.1L.081,132.607h.6q.363,1.413.552,2.151a8.984,8.984,0,0,1,.217.994h.027c.025-.13.066-.3.121-.5s.1-.37.146-.49l.687-2.151h.615l.67,2.151a6.942,6.942,0,0,1,.259.987H4c.01-.082.034-.208.074-.38s.277-1.09.712-2.758h.588l-1.035,3.747Z"/><path class="cls-3" d="M9.108,136.354l-.687-2.2q-.064-.2-.243-.916H8.151c-.092.4-.171.706-.239.922L7.2,136.354H6.548l-1.022-3.747h.6q.361,1.413.552,2.151a8.447,8.447,0,0,1,.216.994h.028q.038-.195.121-.5c.056-.206.1-.37.145-.49l.688-2.151h.615l.67,2.151a7.4,7.4,0,0,1,.26.987h.027a3.586,3.586,0,0,1,.073-.38q.06-.255.713-2.758h.588l-1.036,3.747Z"/><path class="cls-3" d="M14.552,136.354l-.686-2.2c-.044-.135-.124-.44-.243-.916H13.6q-.135.6-.239.922l-.707,2.192h-.656l-1.023-3.747h.595q.363,1.413.553,2.151a8.984,8.984,0,0,1,.217.994h.027c.024-.13.065-.3.121-.5s.1-.37.146-.49l.686-2.151h.615l.67,2.151a7.1,7.1,0,0,1,.26.987h.027c.01-.082.035-.208.075-.38s.277-1.09.712-2.758h.587l-1.035,3.747Z"/><path class="cls-3" d="M16.856,135.991a.5.5,0,0,1,.1-.346.372.372,0,0,1,.3-.119.4.4,0,0,1,.31.119.486.486,0,0,1,.111.346.48.48,0,0,1-.113.342.4.4,0,0,1-.308.12.408.408,0,0,1-.289-.108A.47.47,0,0,1,16.856,135.991Z"/><path class="cls-3" d="M20.011,135.953a1.94,1.94,0,0,0,.29-.021,1.891,1.891,0,0,0,.223-.047v.434a1.039,1.039,0,0,1-.271.074,2.1,2.1,0,0,1-.324.029q-1.086,0-1.087-1.145v-2.228h-.537v-.274l.537-.236.24-.8h.328v.868H20.5v.442H19.41v2.2a.762.762,0,0,0,.16.519A.555.555,0,0,0,20.011,135.953Z"/><path class="cls-3" d="M22.855,136.422a1.722,1.722,0,0,1-1.311-.506,1.959,1.959,0,0,1-.48-1.4,2.181,2.181,0,0,1,.445-1.44,1.486,1.486,0,0,1,1.2-.533,1.411,1.411,0,0,1,1.114.463,1.78,1.78,0,0,1,.41,1.223v.358h-2.58a1.482,1.482,0,0,0,.333,1,1.154,1.154,0,0,0,.891.342,3.029,3.029,0,0,0,1.2-.252v.506a3.023,3.023,0,0,1-.569.185A3.169,3.169,0,0,1,22.855,136.422Zm-.154-3.408a.926.926,0,0,0-.72.295,1.342,1.342,0,0,0-.315.812h1.958a1.237,1.237,0,0,0-.24-.821A.837.837,0,0,0,22.7,133.014Z"/><path class="cls-3" d="M27.616,135.332a.941.941,0,0,1-.39.807,1.836,1.836,0,0,1-1.093.283,2.375,2.375,0,0,1-1.163-.236v-.526a2.85,2.85,0,0,0,.581.215,2.38,2.38,0,0,0,.6.078,1.358,1.358,0,0,0,.684-.141.489.489,0,0,0,.05-.807,2.947,2.947,0,0,0-.741-.367,4.058,4.058,0,0,1-.743-.34,1.029,1.029,0,0,1-.328-.33.87.87,0,0,1-.107-.441.841.841,0,0,1,.372-.723,1.734,1.734,0,0,1,1.022-.265,2.994,2.994,0,0,1,1.183.246l-.2.461a2.733,2.733,0,0,0-1.022-.232,1.175,1.175,0,0,0-.608.127.389.389,0,0,0-.2.348.421.421,0,0,0,.077.257.759.759,0,0,0,.247.2,5.53,5.53,0,0,0,.656.278,2.453,2.453,0,0,1,.9.488A.865.865,0,0,1,27.616,135.332Z"/><path class="cls-3" d="M29.749,135.953a1.973,1.973,0,0,0,.291-.021,1.844,1.844,0,0,0,.221-.047v.434a1.039,1.039,0,0,1-.271.074,2.1,2.1,0,0,1-.323.029q-1.088,0-1.087-1.145v-2.228h-.536v-.274l.536-.236.239-.8h.328v.868h1.087v.442H29.147v2.2a.757.757,0,0,0,.161.519A.555.555,0,0,0,29.749,135.953Z"/><path class="cls-3" d="M30.928,135.991a.5.5,0,0,1,.105-.346.373.373,0,0,1,.3-.119.4.4,0,0,1,.309.119.486.486,0,0,1,.111.346.475.475,0,0,1-.113.342.4.4,0,0,1-.307.12.4.4,0,0,1-.289-.108A.47.47,0,0,1,30.928,135.991Z"/><path class="cls-3" d="M34.37,136.422a1.6,1.6,0,0,1-1.26-.5,2.061,2.061,0,0,1-.445-1.417,2.122,2.122,0,0,1,.452-1.452,1.632,1.632,0,0,1,1.291-.513,2.551,2.551,0,0,1,.54.059,1.776,1.776,0,0,1,.424.136l-.175.482a2.668,2.668,0,0,0-.41-.125,1.835,1.835,0,0,0-.393-.05q-1.141,0-1.141,1.457a1.73,1.73,0,0,0,.278,1.059.97.97,0,0,0,.825.369,2.53,2.53,0,0,0,.961-.2v.5A2.046,2.046,0,0,1,34.37,136.422Z"/><path class="cls-3" d="M38.769,136.354V133.93a.974.974,0,0,0-.209-.684.848.848,0,0,0-.652-.225,1.069,1.069,0,0,0-.863.321,1.63,1.63,0,0,0-.272,1.053v1.959h-.567v-5.319h.567v1.61a3.725,3.725,0,0,1-.027.482h.034a1.158,1.158,0,0,1,.477-.426,1.557,1.557,0,0,1,.706-.155,1.442,1.442,0,0,1,1.03.326,1.377,1.377,0,0,1,.344,1.038v2.444Z"/><path class="cls-3" d="M42.4,131.356l-1.863,5h-.568l1.864-5Z"/><path class="cls-3" d="M46.3,136.354l-.623-1.59h-2l-.616,1.59H42.47l1.976-5.018h.489l1.965,5.018Zm-.8-2.113-.581-1.548c-.075-.2-.154-.436-.233-.721a6.576,6.576,0,0,1-.215.721l-.588,1.548Z"/><path class="cls-3" d="M50.339,132.532a1.13,1.13,0,0,1-.269.782,1.341,1.341,0,0,1-.76.408v.027a1.428,1.428,0,0,1,.892.383,1.123,1.123,0,0,1,.291.806,1.306,1.306,0,0,1-.5,1.1,2.249,2.249,0,0,1-1.408.385,4.088,4.088,0,0,1-.727-.06,2.508,2.508,0,0,1-.641-.21v-.541a3.048,3.048,0,0,0,.693.245,3.115,3.115,0,0,0,.7.083q1.3,0,1.3-1.014,0-.911-1.429-.909h-.492v-.489h.5a1.508,1.508,0,0,0,.926-.258.847.847,0,0,0,.342-.716.705.705,0,0,0-.251-.574,1.037,1.037,0,0,0-.682-.209,2.115,2.115,0,0,0-.619.089,2.734,2.734,0,0,0-.663.329l-.287-.383a2.4,2.4,0,0,1,.709-.382,2.587,2.587,0,0,1,.846-.138,1.725,1.725,0,0,1,1.131.333A1.119,1.119,0,0,1,50.339,132.532Z"/><path class="cls-3" d="M51.423,135.991a.5.5,0,0,1,.1-.346.373.373,0,0,1,.3-.119.4.4,0,0,1,.309.119.486.486,0,0,1,.111.346.479.479,0,0,1-.112.342.448.448,0,0,1-.6.012A.47.47,0,0,1,51.423,135.991Z"/><path class="cls-3" d="M55.93,136.354V133.93a.979.979,0,0,0-.208-.684.85.85,0,0,0-.653-.225,1.072,1.072,0,0,0-.863.321,1.63,1.63,0,0,0-.272,1.053v1.959h-.567v-5.319h.567v1.61a3.4,3.4,0,0,1-.027.482h.034a1.165,1.165,0,0,1,.477-.426,1.563,1.563,0,0,1,.706-.155,1.441,1.441,0,0,1,1.03.326,1.373,1.373,0,0,1,.344,1.038v2.444Z"/><path class="cls-3" d="M58.874,135.953a1.96,1.96,0,0,0,.29-.021,1.824,1.824,0,0,0,.222-.047v.434a1.039,1.039,0,0,1-.271.074,2.1,2.1,0,0,1-.323.029q-1.088,0-1.087-1.145v-2.228h-.537v-.274l.537-.236.239-.8h.328v.868h1.087v.442H58.272v2.2a.762.762,0,0,0,.16.519A.557.557,0,0,0,58.874,135.953Z"/><path class="cls-3" d="M64.91,136.354v-2.438a1.015,1.015,0,0,0-.192-.671.74.74,0,0,0-.594-.224.958.958,0,0,0-.783.3,1.45,1.45,0,0,0-.253.937v2.092H62.52v-2.438a1.01,1.01,0,0,0-.191-.671.745.745,0,0,0-.6-.224.927.927,0,0,0-.781.32,1.729,1.729,0,0,0-.248,1.048v1.965h-.568v-3.747H60.6l.092.513h.028a1.105,1.105,0,0,1,.453-.427,1.375,1.375,0,0,1,.654-.154,1.111,1.111,0,0,1,1.148.636H63a1.2,1.2,0,0,1,.485-.465,1.508,1.508,0,0,1,.725-.171,1.267,1.267,0,0,1,.952.326,1.463,1.463,0,0,1,.316,1.045v2.444Z"/><path class="cls-3" d="M67.214,136.354h-.568v-5.319h.568Z"/></svg>