<svg id="Layer_1" data-name="Layer 1" xmlns="http://www.w3.org/2000/svg" viewBox="0 0 289.14 98"><defs><style>.cls-1{fill:#fff;}.cls-2{fill:#20201e;}.cls-3{fill:none;stroke:#20201e;stroke-width:3px;}</style></defs><title>timeline</title><rect class="cls-1" x="1.5" y="1.5" width="141.567" height="23"/><path class="cls-2" d="M56.766,16.443h-3.7V10.019h3.7v1.116H54.428v1.41H56.6v1.117H54.428v1.656h2.338Z"/><path class="cls-2" d="M57.98,10.26q0-.654.729-.655t.73.655a.64.64,0,0,1-.182.486.772.772,0,0,1-.548.174C58.223,10.92,57.98,10.7,57.98,10.26Zm1.4,6.183h-1.34V11.53h1.34Z"/><path class="cls-2" d="M65.354,16.443h-1.34V13.574a1.38,1.38,0,0,0-.189-.8.687.687,0,0,0-.6-.266.906.906,0,0,0-.813.376,2.333,2.333,0,0,0-.25,1.246v2.311H60.819V11.53h1.024l.18.628H62.1a1.427,1.427,0,0,1,.618-.538,2.109,2.109,0,0,1,.894-.182,1.723,1.723,0,0,1,1.3.463,1.864,1.864,0,0,1,.443,1.339Z"/><path class="cls-2" d="M68.84,15.463a2.917,2.917,0,0,0,.844-.153v1a3,3,0,0,1-1.23.224,1.507,1.507,0,0,1-1.172-.406,1.774,1.774,0,0,1-.366-1.22V12.537h-.642V11.97l.738-.449.387-1.037h.857V11.53h1.375v1.007H68.256v2.368a.523.523,0,0,0,.16.422A.633.633,0,0,0,68.84,15.463Z"/><path class="cls-2" d="M73.456,11.438a2.113,2.113,0,0,1,.452.04l-.1,1.256a1.544,1.544,0,0,0-.395-.044,1.424,1.424,0,0,0-1,.33,1.191,1.191,0,0,0-.358.923v2.5H70.713V11.53h1.016l.2.826h.066a1.856,1.856,0,0,1,.618-.666A1.524,1.524,0,0,1,73.456,11.438Z"/><path class="cls-2" d="M77.957,16.443l-.26-.668h-.035a1.956,1.956,0,0,1-.7.591,2.225,2.225,0,0,1-.933.165,1.514,1.514,0,0,1-1.115-.4,1.552,1.552,0,0,1-.406-1.151,1.3,1.3,0,0,1,.547-1.154,3.173,3.173,0,0,1,1.65-.411l.853-.026V13.17a.669.669,0,0,0-.765-.748,3.49,3.49,0,0,0-1.384.356l-.444-.905a4,4,0,0,1,1.881-.443,2.348,2.348,0,0,1,1.516.429,1.6,1.6,0,0,1,.528,1.311v3.273Zm-.4-2.276-.519.018a1.656,1.656,0,0,0-.87.211.661.661,0,0,0-.285.588q0,.567.65.567a1.028,1.028,0,0,0,.745-.268.942.942,0,0,0,.279-.712Z"/><path class="cls-2" d="M84.593,11.53v.681l-.769.2a1.338,1.338,0,0,1,.211.738,1.489,1.489,0,0,1-.552,1.233,2.383,2.383,0,0,1-1.531.442l-.242-.013-.2-.022a.447.447,0,0,0-.207.352q0,.29.738.289h.835a1.909,1.909,0,0,1,1.233.347,1.242,1.242,0,0,1,.424,1.02,1.511,1.511,0,0,1-.719,1.336,3.741,3.741,0,0,1-2.063.474,2.85,2.85,0,0,1-1.57-.358,1.133,1.133,0,0,1-.543-1,1.053,1.053,0,0,1,.276-.743,1.585,1.585,0,0,1,.813-.426.893.893,0,0,1-.36-.288.7.7,0,0,1,.009-.891,1.86,1.86,0,0,1,.47-.368,1.317,1.317,0,0,1-.613-.536,1.63,1.63,0,0,1-.226-.87,1.536,1.536,0,0,1,.523-1.244,2.264,2.264,0,0,1,1.494-.439,3.644,3.644,0,0,1,.49.038c.189.024.31.043.362.054ZM80.8,17.138a.484.484,0,0,0,.265.434,1.462,1.462,0,0,0,.746.158,2.638,2.638,0,0,0,1.129-.2.6.6,0,0,0,.409-.541.385.385,0,0,0-.242-.382,1.986,1.986,0,0,0-.747-.105h-.694a1.041,1.041,0,0,0-.618.174A.532.532,0,0,0,80.8,17.138Zm.488-4a1,1,0,0,0,.182.632.66.66,0,0,0,.556.233.648.648,0,0,0,.554-.233,1.026,1.026,0,0,0,.175-.632q0-.888-.729-.888T81.289,13.139Z"/><path class="cls-2" d="M91.728,11.455a1.511,1.511,0,0,1-.365,1.024,1.892,1.892,0,0,1-1.024.581v.026a2.044,2.044,0,0,1,1.178.473,1.322,1.322,0,0,1,.4,1.012,1.718,1.718,0,0,1-.673,1.444,3.1,3.1,0,0,1-1.92.516,4.653,4.653,0,0,1-1.855-.347V15.028a4.181,4.181,0,0,0,.822.308,3.466,3.466,0,0,0,.888.119,1.73,1.73,0,0,0,.993-.228.841.841,0,0,0,.321-.735.662.662,0,0,0-.369-.641,2.735,2.735,0,0,0-1.178-.189h-.488V12.62h.5a2.31,2.31,0,0,0,1.091-.195.709.709,0,0,0,.346-.671c0-.485-.3-.729-.914-.729a2.113,2.113,0,0,0-.645.106,3.132,3.132,0,0,0-.727.364l-.628-.936a3.492,3.492,0,0,1,2.1-.633,2.722,2.722,0,0,1,1.576.4A1.3,1.3,0,0,1,91.728,11.455Z"/><rect class="cls-3" x="1.5" y="1.5" width="141.567" height="23"/><rect class="cls-1" x="1.5" y="37.5" width="141.567" height="23"/><path class="cls-2" d="M56.766,52.443h-3.7V46.019h3.7v1.116H54.428v1.41H56.6v1.117H54.428v1.656h2.338Z"/><path class="cls-2" d="M57.98,46.26q0-.654.729-.655t.73.655a.64.64,0,0,1-.182.486.772.772,0,0,1-.548.174C58.223,46.92,57.98,46.7,57.98,46.26Zm1.4,6.183h-1.34V47.53h1.34Z"/><path class="cls-2" d="M65.354,52.443h-1.34V49.574a1.38,1.38,0,0,0-.189-.8.687.687,0,0,0-.6-.266.906.906,0,0,0-.813.376,2.333,2.333,0,0,0-.25,1.246v2.311H60.819V47.53h1.024l.18.628H62.1a1.427,1.427,0,0,1,.618-.538,2.109,2.109,0,0,1,.894-.182,1.723,1.723,0,0,1,1.3.463,1.864,1.864,0,0,1,.443,1.339Z"/><path class="cls-2" d="M68.84,51.463a2.917,2.917,0,0,0,.844-.153v1a3,3,0,0,1-1.23.224,1.507,1.507,0,0,1-1.172-.406,1.774,1.774,0,0,1-.366-1.22V48.537h-.642V47.97l.738-.449.387-1.037h.857V47.53h1.375v1.007H68.256v2.368a.523.523,0,0,0,.16.422A.633.633,0,0,0,68.84,51.463Z"/><path class="cls-2" d="M73.456,47.438a2.113,2.113,0,0,1,.452.04l-.1,1.256a1.544,1.544,0,0,0-.395-.044,1.424,1.424,0,0,0-1,.33,1.191,1.191,0,0,0-.358.923v2.5H70.713V47.53h1.016l.2.826h.066a1.856,1.856,0,0,1,.618-.666A1.524,1.524,0,0,1,73.456,47.438Z"/><path class="cls-2" d="M77.957,52.443l-.26-.668h-.035a1.956,1.956,0,0,1-.7.591,2.225,2.225,0,0,1-.933.165,1.514,1.514,0,0,1-1.115-.4,1.552,1.552,0,0,1-.406-1.151,1.3,1.3,0,0,1,.547-1.154,3.173,3.173,0,0,1,1.65-.411l.853-.026V49.17a.669.669,0,0,0-.765-.748,3.49,3.49,0,0,0-1.384.356l-.444-.905a4,4,0,0,1,1.881-.443,2.348,2.348,0,0,1,1.516.429,1.6,1.6,0,0,1,.528,1.311v3.273Zm-.4-2.276-.519.018a1.656,1.656,0,0,0-.87.211.661.661,0,0,0-.285.588q0,.567.65.567a1.028,1.028,0,0,0,.745-.268.942.942,0,0,0,.279-.712Z"/><path class="cls-2" d="M84.593,47.53v.681l-.769.2a1.338,1.338,0,0,1,.211.738,1.489,1.489,0,0,1-.552,1.233,2.383,2.383,0,0,1-1.531.442l-.242-.013-.2-.022a.447.447,0,0,0-.207.352q0,.289.738.289h.835a1.909,1.909,0,0,1,1.233.347,1.242,1.242,0,0,1,.424,1.02,1.511,1.511,0,0,1-.719,1.336,3.741,3.741,0,0,1-2.063.474,2.85,2.85,0,0,1-1.57-.358,1.133,1.133,0,0,1-.543-1,1.053,1.053,0,0,1,.276-.743,1.585,1.585,0,0,1,.813-.426.893.893,0,0,1-.36-.288.7.7,0,0,1,.009-.891,1.86,1.86,0,0,1,.47-.368,1.317,1.317,0,0,1-.613-.536,1.63,1.63,0,0,1-.226-.87,1.536,1.536,0,0,1,.523-1.244,2.264,2.264,0,0,1,1.494-.439,3.644,3.644,0,0,1,.49.038c.189.024.31.043.362.054ZM80.8,53.138a.484.484,0,0,0,.265.434,1.462,1.462,0,0,0,.746.158,2.638,2.638,0,0,0,1.129-.2.6.6,0,0,0,.409-.541.385.385,0,0,0-.242-.382,1.986,1.986,0,0,0-.747-.1h-.694a1.041,1.041,0,0,0-.618.174A.532.532,0,0,0,80.8,53.138Zm.488-4a1,1,0,0,0,.182.632.66.66,0,0,0,.556.233.648.648,0,0,0,.554-.233,1.026,1.026,0,0,0,.175-.632q0-.888-.729-.888T81.289,49.139Z"/><path class="cls-2" d="M91.978,52.443H87.487V51.5l1.613-1.63q.716-.734.936-1.017a2.238,2.238,0,0,0,.316-.525,1.327,1.327,0,0,0,.1-.5.733.733,0,0,0-.213-.575.828.828,0,0,0-.569-.188,1.641,1.641,0,0,0-.726.17,3.755,3.755,0,0,0-.733.488l-.739-.874a4.867,4.867,0,0,1,.787-.572,2.854,2.854,0,0,1,.681-.256,3.436,3.436,0,0,1,.826-.091,2.455,2.455,0,0,1,1.064.22,1.7,1.7,0,0,1,.716.616,1.63,1.63,0,0,1,.255.9,2.212,2.212,0,0,1-.156.833,3.232,3.232,0,0,1-.483.8,11.854,11.854,0,0,1-1.154,1.164l-.826.778V51.3h2.8Z"/><rect class="cls-3" x="1.5" y="37.5" width="141.567" height="23"/><rect class="cls-1" x="1.5" y="73.5" width="141.567" height="23"/><path class="cls-2" d="M57.17,88.443h-3.7V82.019h3.7v1.116H54.833v1.41h2.175v1.117H54.833v1.656H57.17Z"/><path class="cls-2" d="M58.384,82.26q0-.654.73-.655t.729.655a.64.64,0,0,1-.182.486.771.771,0,0,1-.547.174C58.627,82.92,58.384,82.7,58.384,82.26Zm1.4,6.183H58.441V83.53h1.341Z"/><path class="cls-2" d="M65.759,88.443H64.418V85.574a1.38,1.38,0,0,0-.189-.8.686.686,0,0,0-.6-.266.906.906,0,0,0-.813.376,2.333,2.333,0,0,0-.25,1.246v2.311h-1.34V83.53h1.024l.18.628H62.5a1.427,1.427,0,0,1,.618-.538,2.109,2.109,0,0,1,.894-.182,1.723,1.723,0,0,1,1.3.463,1.864,1.864,0,0,1,.444,1.339Z"/><path class="cls-2" d="M69.245,87.463a2.916,2.916,0,0,0,.843-.153v1a3,3,0,0,1-1.23.224,1.5,1.5,0,0,1-1.171-.406,1.769,1.769,0,0,1-.367-1.22V84.537h-.642V83.97l.739-.449.386-1.037h.857V83.53h1.376v1.007H68.66v2.368a.523.523,0,0,0,.16.422A.634.634,0,0,0,69.245,87.463Z"/><path class="cls-2" d="M73.86,83.438a2.107,2.107,0,0,1,.452.04l-.1,1.256a1.544,1.544,0,0,0-.395-.044,1.425,1.425,0,0,0-1,.33,1.191,1.191,0,0,0-.358.923v2.5h-1.34V83.53h1.015l.2.826H72.4a1.856,1.856,0,0,1,.618-.666A1.524,1.524,0,0,1,73.86,83.438Z"/><path class="cls-2" d="M78.361,88.443l-.259-.668h-.036a1.962,1.962,0,0,1-.7.591,2.233,2.233,0,0,1-.934.165,1.511,1.511,0,0,1-1.114-.4,1.552,1.552,0,0,1-.406-1.151,1.3,1.3,0,0,1,.546-1.154,3.177,3.177,0,0,1,1.651-.411l.852-.026V85.17a.669.669,0,0,0-.764-.748,3.494,3.494,0,0,0-1.385.356l-.443-.905a3.989,3.989,0,0,1,1.88-.443,2.351,2.351,0,0,1,1.517.429A1.6,1.6,0,0,1,79.3,85.17v3.273Zm-.4-2.276-.518.018a1.65,1.65,0,0,0-.87.211.66.66,0,0,0-.286.588q0,.567.65.567a1.028,1.028,0,0,0,.745-.268.942.942,0,0,0,.279-.712Z"/><path class="cls-2" d="M85,83.53v.681l-.769.2a1.346,1.346,0,0,1,.21.738,1.491,1.491,0,0,1-.551,1.233,2.386,2.386,0,0,1-1.532.442l-.241-.013-.2-.022a.447.447,0,0,0-.207.352c0,.193.247.289.739.289h.835a1.911,1.911,0,0,1,1.233.347,1.244,1.244,0,0,1,.423,1.02,1.513,1.513,0,0,1-.718,1.336,3.746,3.746,0,0,1-2.063.474,2.851,2.851,0,0,1-1.571-.358,1.136,1.136,0,0,1-.543-1,1.05,1.05,0,0,1,.277-.743,1.576,1.576,0,0,1,.813-.426.889.889,0,0,1-.361-.288.708.708,0,0,1,.009-.891,1.878,1.878,0,0,1,.47-.368,1.314,1.314,0,0,1-.612-.536,1.621,1.621,0,0,1-.227-.87,1.536,1.536,0,0,1,.523-1.244,2.268,2.268,0,0,1,1.494-.439,3.644,3.644,0,0,1,.49.038c.189.024.31.043.363.054Zm-3.793,5.608a.483.483,0,0,0,.266.434,1.456,1.456,0,0,0,.745.158,2.635,2.635,0,0,0,1.129-.2.6.6,0,0,0,.409-.541.385.385,0,0,0-.242-.382,1.986,1.986,0,0,0-.747-.105h-.694a1.046,1.046,0,0,0-.618.174A.534.534,0,0,0,81.205,89.138Zm.488-4a1,1,0,0,0,.182.632.661.661,0,0,0,.556.233.647.647,0,0,0,.554-.233,1.026,1.026,0,0,0,.176-.632q0-.888-.73-.888T81.693,85.139Z"/><path class="cls-2" d="M91.249,88.443H89.891V84.726l.013-.611.022-.668c-.226.226-.383.373-.47.444l-.739.593-.655-.818,2.07-1.647h1.117Z"/><rect class="cls-3" x="1.5" y="73.5" width="141.567" height="23"/><line class="cls-3" x1="158.176" y1="5" x2="158.176" y2="92.797"/><polyline class="cls-3" points="163.9 86.641 158.176 92.797 152.453 86.641"/></svg>