<svg id="Layer_1" data-name="Layer 1" xmlns="http://www.w3.org/2000/svg" viewBox="0 0 289.136 103"><defs><style>.cls-1{fill:none;stroke:#20201e;stroke-width:3px;}.cls-2{fill:#fff;}.cls-3{fill:#20201e;}</style></defs><title>Linking</title><path class="cls-1" d="M52.715,53.982c11.466,9.609,24.194,13.935,39.868,13.935s28.4-4.327,39.868-13.935"/><polyline class="cls-1" points="53.757 62.323 52.715 53.982 61.11 53.55"/><polyline class="cls-1" points="124.055 53.549 132.45 53.982 131.408 62.323"/><path class="cls-1" d="M156.689,53.982c11.466,9.609,24.194,13.935,39.868,13.935s28.4-4.327,39.868-13.935"/><polyline class="cls-1" points="157.731 62.323 156.689 53.982 165.084 53.55"/><polyline class="cls-1" points="228.03 53.549 236.425 53.982 235.383 62.323"/><rect class="cls-2" x="1.503" y="1.5" width="82.039" height="23"/><path class="cls-3" d="M26.042,16.443H24.679V11.152H22.935V10.019h4.851v1.133H26.042Z"/><path class="cls-3" d="M33.241,16.443H31.9V13.574q0-1.063-.791-1.064a.9.9,0,0,0-.813.383,2.333,2.333,0,0,0-.25,1.239v2.311h-1.34V9.605h1.34V11q0,.164-.031.766l-.031.394h.071a1.555,1.555,0,0,1,1.424-.72,1.74,1.74,0,0,1,1.313.466,1.851,1.851,0,0,1,.449,1.336Z"/><path class="cls-3" d="M36.88,16.531a2.54,2.54,0,0,1-1.855-.654,2.483,2.483,0,0,1-.668-1.856,2.727,2.727,0,0,1,.618-1.909,2.2,2.2,0,0,1,1.707-.674,2.168,2.168,0,0,1,1.622.593,2.25,2.25,0,0,1,.58,1.639v.65H35.715a1.292,1.292,0,0,0,.339.893,1.189,1.189,0,0,0,.887.32,3.666,3.666,0,0,0,.84-.092,4.1,4.1,0,0,0,.826-.295v1.038a3.056,3.056,0,0,1-.752.261A4.664,4.664,0,0,1,36.88,16.531Zm-.189-4.139a.847.847,0,0,0-.668.27,1.255,1.255,0,0,0-.277.767h1.881a1.118,1.118,0,0,0-.259-.767A.876.876,0,0,0,36.691,12.392Z"/><path class="cls-3" d="M44.418,16.443h-1.34V13.574a1.453,1.453,0,0,0-.178-.8.628.628,0,0,0-.561-.266.814.814,0,0,0-.747.379,2.479,2.479,0,0,0-.233,1.243v2.311h-1.34V11.53h1.024l.18.628H41.3a1.375,1.375,0,0,1,.571-.529,1.861,1.861,0,0,1,.857-.191,1.546,1.546,0,0,1,1.494.72h.119a1.331,1.331,0,0,1,.582-.531,1.942,1.942,0,0,1,.868-.189,1.713,1.713,0,0,1,1.263.428,1.882,1.882,0,0,1,.429,1.374v3.2H46.136V13.574a1.444,1.444,0,0,0-.178-.8.626.626,0,0,0-.56-.266.839.839,0,0,0-.736.351,2.01,2.01,0,0,0-.244,1.118Z"/><path class="cls-3" d="M52.021,16.443l-.259-.668h-.035a1.964,1.964,0,0,1-.7.591,2.228,2.228,0,0,1-.933.165,1.514,1.514,0,0,1-1.115-.4,1.552,1.552,0,0,1-.406-1.151,1.3,1.3,0,0,1,.547-1.154,3.173,3.173,0,0,1,1.65-.411l.853-.026V13.17a.669.669,0,0,0-.765-.748,3.49,3.49,0,0,0-1.384.356l-.444-.905a4,4,0,0,1,1.881-.443,2.348,2.348,0,0,1,1.516.429,1.6,1.6,0,0,1,.528,1.311v3.273Zm-.4-2.276-.519.018a1.656,1.656,0,0,0-.87.211.661.661,0,0,0-.285.588q0,.567.65.567a1.028,1.028,0,0,0,.745-.268.942.942,0,0,0,.279-.712Z"/><path class="cls-3" d="M60.8,16.443l-.466-1.529H58l-.466,1.529H56.062L58.33,9.992H60l2.276,6.451Zm-.791-2.672q-.646-2.078-.727-2.351c-.055-.181-.094-.324-.117-.43q-.145.563-.831,2.781Z"/><rect class="cls-1" x="1.503" y="1.5" width="82.039" height="23"/><rect class="cls-2" x="103.55" y="1.5" width="82.039" height="23"/><path class="cls-3" d="M128.17,16.443h-1.362V11.152h-1.745V10.019h4.852v1.133H128.17Z"/><path class="cls-3" d="M135.37,16.443h-1.341V13.574q0-1.063-.791-1.064a.9.9,0,0,0-.813.383,2.333,2.333,0,0,0-.25,1.239v2.311h-1.341V9.605h1.341V11q0,.164-.031.766l-.031.394h.071a1.553,1.553,0,0,1,1.423-.72,1.74,1.74,0,0,1,1.314.466,1.851,1.851,0,0,1,.449,1.336Z"/><path class="cls-3" d="M139.009,16.531a2.54,2.54,0,0,1-1.855-.654,2.483,2.483,0,0,1-.668-1.856,2.727,2.727,0,0,1,.618-1.909,2.2,2.2,0,0,1,1.707-.674,2.168,2.168,0,0,1,1.622.593,2.25,2.25,0,0,1,.58,1.639v.65h-3.169a1.292,1.292,0,0,0,.339.893,1.188,1.188,0,0,0,.887.32,3.666,3.666,0,0,0,.84-.092,4.1,4.1,0,0,0,.826-.295v1.038a3.071,3.071,0,0,1-.752.261A4.664,4.664,0,0,1,139.009,16.531Zm-.189-4.139a.847.847,0,0,0-.668.27,1.249,1.249,0,0,0-.277.767h1.881a1.118,1.118,0,0,0-.259-.767A.876.876,0,0,0,138.82,12.392Z"/><path class="cls-3" d="M146.547,16.443h-1.34V13.574a1.453,1.453,0,0,0-.178-.8.628.628,0,0,0-.561-.266.812.812,0,0,0-.747.379,2.479,2.479,0,0,0-.233,1.243v2.311h-1.34V11.53h1.024l.18.628h.075a1.375,1.375,0,0,1,.571-.529,1.861,1.861,0,0,1,.857-.191,1.546,1.546,0,0,1,1.494.72h.119a1.326,1.326,0,0,1,.582-.531,1.942,1.942,0,0,1,.868-.189,1.713,1.713,0,0,1,1.263.428,1.882,1.882,0,0,1,.429,1.374v3.2h-1.345V13.574a1.444,1.444,0,0,0-.178-.8.626.626,0,0,0-.56-.266.839.839,0,0,0-.736.351,2,2,0,0,0-.244,1.118Z"/><path class="cls-3" d="M154.15,16.443l-.259-.668h-.035a1.964,1.964,0,0,1-.7.591,2.232,2.232,0,0,1-.933.165,1.514,1.514,0,0,1-1.115-.4,1.552,1.552,0,0,1-.406-1.151,1.3,1.3,0,0,1,.547-1.154,3.173,3.173,0,0,1,1.65-.411l.853-.026V13.17a.669.669,0,0,0-.765-.748,3.49,3.49,0,0,0-1.384.356l-.444-.905a3.993,3.993,0,0,1,1.881-.443,2.348,2.348,0,0,1,1.516.429,1.594,1.594,0,0,1,.527,1.311v3.273Zm-.4-2.276-.519.018a1.656,1.656,0,0,0-.87.211.661.661,0,0,0-.285.588q0,.567.65.567a1.028,1.028,0,0,0,.745-.268.942.942,0,0,0,.279-.712Z"/><path class="cls-3" d="M159,10.019h2a3.858,3.858,0,0,1,1.984.388,1.355,1.355,0,0,1,.618,1.238,1.569,1.569,0,0,1-.27.945,1.082,1.082,0,0,1-.719.443v.044a1.416,1.416,0,0,1,.881.51,1.659,1.659,0,0,1,.27.993,1.637,1.637,0,0,1-.635,1.371,2.746,2.746,0,0,1-1.725.492H159Zm1.362,2.543h.791a1.451,1.451,0,0,0,.8-.17.643.643,0,0,0,.248-.568.567.567,0,0,0-.27-.529,1.739,1.739,0,0,0-.855-.16h-.716Zm0,1.083v1.673h.888a1.319,1.319,0,0,0,.83-.214.8.8,0,0,0,.268-.661q0-.8-1.142-.8Z"/><rect class="cls-1" x="103.55" y="1.5" width="82.039" height="23"/><rect class="cls-2" x="205.597" y="1.5" width="82.039" height="23"/><path class="cls-3" d="M230.374,16.443h-1.363V11.152h-1.744V10.019h4.851v1.133h-1.744Z"/><path class="cls-3" d="M237.573,16.443h-1.341V13.574q0-1.063-.791-1.064a.9.9,0,0,0-.813.383,2.333,2.333,0,0,0-.25,1.239v2.311h-1.34V9.605h1.34V11q0,.164-.031.766l-.031.394h.071a1.555,1.555,0,0,1,1.424-.72,1.744,1.744,0,0,1,1.314.466,1.855,1.855,0,0,1,.448,1.336Z"/><path class="cls-3" d="M241.212,16.531a2.54,2.54,0,0,1-1.855-.654,2.483,2.483,0,0,1-.668-1.856,2.727,2.727,0,0,1,.618-1.909,2.2,2.2,0,0,1,1.707-.674,2.168,2.168,0,0,1,1.622.593,2.25,2.25,0,0,1,.58,1.639v.65h-3.169a1.292,1.292,0,0,0,.339.893,1.189,1.189,0,0,0,.887.32,3.666,3.666,0,0,0,.84-.092,4.1,4.1,0,0,0,.826-.295v1.038a3.063,3.063,0,0,1-.751.261A4.681,4.681,0,0,1,241.212,16.531Zm-.189-4.139a.847.847,0,0,0-.668.27,1.255,1.255,0,0,0-.277.767h1.881a1.118,1.118,0,0,0-.259-.767A.876.876,0,0,0,241.023,12.392Z"/><path class="cls-3" d="M248.75,16.443h-1.34V13.574a1.453,1.453,0,0,0-.178-.8.628.628,0,0,0-.561-.266.814.814,0,0,0-.747.379,2.479,2.479,0,0,0-.233,1.243v2.311h-1.34V11.53h1.024l.18.628h.075a1.375,1.375,0,0,1,.571-.529,1.861,1.861,0,0,1,.857-.191,1.545,1.545,0,0,1,1.494.72h.119a1.331,1.331,0,0,1,.582-.531,1.942,1.942,0,0,1,.868-.189,1.713,1.713,0,0,1,1.263.428,1.882,1.882,0,0,1,.429,1.374v3.2h-1.345V13.574a1.454,1.454,0,0,0-.177-.8.629.629,0,0,0-.561-.266.839.839,0,0,0-.736.351,2.01,2.01,0,0,0-.244,1.118Z"/><path class="cls-3" d="M256.354,16.443l-.26-.668h-.035a1.964,1.964,0,0,1-.7.591,2.228,2.228,0,0,1-.933.165,1.514,1.514,0,0,1-1.115-.4,1.552,1.552,0,0,1-.406-1.151,1.3,1.3,0,0,1,.547-1.154,3.173,3.173,0,0,1,1.65-.411l.853-.026V13.17a.669.669,0,0,0-.765-.748,3.49,3.49,0,0,0-1.384.356l-.444-.905a4,4,0,0,1,1.881-.443,2.348,2.348,0,0,1,1.516.429,1.6,1.6,0,0,1,.528,1.311v3.273Zm-.4-2.276-.519.018a1.656,1.656,0,0,0-.87.211.661.661,0,0,0-.285.588q0,.567.65.567a1.028,1.028,0,0,0,.745-.268.942.942,0,0,0,.279-.712Z"/><path class="cls-3" d="M263.932,11.061a1.388,1.388,0,0,0-1.191.577,2.684,2.684,0,0,0-.422,1.61q0,2.151,1.613,2.149a5.087,5.087,0,0,0,1.639-.338V16.2a4.531,4.531,0,0,1-1.767.33,2.693,2.693,0,0,1-2.144-.85,3.6,3.6,0,0,1-.743-2.441,3.989,3.989,0,0,1,.365-1.756,2.635,2.635,0,0,1,1.048-1.156,3.108,3.108,0,0,1,1.6-.4,4.314,4.314,0,0,1,1.88.453l-.439,1.107a7.1,7.1,0,0,0-.725-.3A2.16,2.16,0,0,0,263.932,11.061Z"/><rect class="cls-1" x="205.597" y="1.5" width="82.039" height="23"/><path class="cls-3" d="M3.663,37.356l-.687-2.2q-.065-.2-.243-.916H2.706q-.136.6-.239.922l-.708,2.191H1.1L.081,33.61h.6q.362,1.413.552,2.151a8.747,8.747,0,0,1,.217.994h.027c.025-.13.066-.3.121-.5s.1-.37.146-.49l.687-2.151h.615l.67,2.151a7.359,7.359,0,0,1,.26.987H4a3.654,3.654,0,0,1,.074-.38q.058-.255.712-2.758h.588L4.336,37.356Z"/><path class="cls-3" d="M9.108,37.356l-.687-2.2c-.044-.135-.124-.44-.243-.916H8.151q-.136.6-.239.922L7.2,37.356H6.548L5.526,33.61h.6q.361,1.413.552,2.151a8.747,8.747,0,0,1,.217.994h.027q.038-.2.121-.5c.056-.206.1-.37.146-.49l.687-2.151h.615l.67,2.151a7.359,7.359,0,0,1,.26.987h.027a3.654,3.654,0,0,1,.074-.38q.058-.255.712-2.758h.588L9.781,37.356Z"/><path class="cls-3" d="M14.553,37.356l-.687-2.2c-.044-.135-.124-.44-.243-.916H13.6c-.092.4-.171.706-.24.922l-.707,2.191h-.656L10.971,33.61h.594q.363,1.413.553,2.151a8.668,8.668,0,0,1,.216.994h.028q.037-.2.121-.5c.056-.206.1-.37.145-.49l.687-2.151h.616l.67,2.151a7.186,7.186,0,0,1,.259.987h.028a3.586,3.586,0,0,1,.073-.38q.06-.255.713-2.758h.588l-1.036,3.746Z"/><path class="cls-3" d="M16.856,36.994a.509.509,0,0,1,.1-.347.376.376,0,0,1,.3-.118.4.4,0,0,1,.309.118.49.49,0,0,1,.111.347.475.475,0,0,1-.113.342.4.4,0,0,1-.307.12.4.4,0,0,1-.289-.108A.47.47,0,0,1,16.856,36.994Z"/><path class="cls-3" d="M20.011,36.956a1.973,1.973,0,0,0,.291-.021,1.912,1.912,0,0,0,.222-.047v.434a1.048,1.048,0,0,1-.272.074,2.085,2.085,0,0,1-.323.029q-1.086,0-1.087-1.145V34.052h-.536v-.274l.536-.236.24-.8h.328v.868H20.5v.442H19.41v2.2a.759.759,0,0,0,.16.519A.558.558,0,0,0,20.011,36.956Z"/><path class="cls-3" d="M22.855,37.425a1.722,1.722,0,0,1-1.311-.506,1.959,1.959,0,0,1-.48-1.4,2.176,2.176,0,0,1,.446-1.44,1.484,1.484,0,0,1,1.2-.533,1.411,1.411,0,0,1,1.114.463,1.774,1.774,0,0,1,.41,1.223v.358h-2.58a1.482,1.482,0,0,0,.333,1,1.153,1.153,0,0,0,.89.342,3.027,3.027,0,0,0,1.2-.252v.506a3,3,0,0,1-.569.185A3.169,3.169,0,0,1,22.855,37.425ZM22.7,34.017a.926.926,0,0,0-.72.295,1.348,1.348,0,0,0-.315.812h1.958a1.248,1.248,0,0,0-.239-.821A.841.841,0,0,0,22.7,34.017Z"/><path class="cls-3" d="M27.616,36.335a.942.942,0,0,1-.389.807,1.842,1.842,0,0,1-1.094.283,2.356,2.356,0,0,1-1.162-.237v-.525a2.854,2.854,0,0,0,.579.215,2.388,2.388,0,0,0,.6.078,1.349,1.349,0,0,0,.684-.142.488.488,0,0,0,.049-.806,2.962,2.962,0,0,0-.739-.367,4.078,4.078,0,0,1-.744-.34,1.029,1.029,0,0,1-.328-.33.871.871,0,0,1-.108-.441.839.839,0,0,1,.373-.723,1.734,1.734,0,0,1,1.022-.265,3,3,0,0,1,1.183.246l-.2.461a2.733,2.733,0,0,0-1.022-.232,1.175,1.175,0,0,0-.608.127.39.39,0,0,0-.206.348.422.422,0,0,0,.078.257.738.738,0,0,0,.247.2,5.709,5.709,0,0,0,.656.278,2.438,2.438,0,0,1,.9.488A.862.862,0,0,1,27.616,36.335Z"/><path class="cls-3" d="M29.749,36.956a1.973,1.973,0,0,0,.291-.021,1.912,1.912,0,0,0,.222-.047v.434a1.06,1.06,0,0,1-.272.074,2.085,2.085,0,0,1-.323.029q-1.088,0-1.087-1.145V34.052h-.537v-.274l.537-.236.239-.8h.328v.868h1.087v.442H29.147v2.2a.759.759,0,0,0,.161.519A.558.558,0,0,0,29.749,36.956Z"/><path class="cls-3" d="M30.928,36.994a.509.509,0,0,1,.105-.347.376.376,0,0,1,.3-.118.4.4,0,0,1,.309.118.49.49,0,0,1,.111.347.48.48,0,0,1-.113.342.4.4,0,0,1-.307.12.407.407,0,0,1-.29-.108A.47.47,0,0,1,30.928,36.994Z"/><path class="cls-3" d="M34.37,37.425a1.6,1.6,0,0,1-1.26-.5,2.061,2.061,0,0,1-.445-1.417,2.121,2.121,0,0,1,.452-1.452,1.632,1.632,0,0,1,1.291-.513,2.544,2.544,0,0,1,.54.059,1.776,1.776,0,0,1,.424.136l-.175.482a2.668,2.668,0,0,0-.41-.125,1.835,1.835,0,0,0-.393-.05q-1.141,0-1.142,1.457a1.732,1.732,0,0,0,.279,1.059.97.97,0,0,0,.825.369,2.534,2.534,0,0,0,.961-.2v.5A2.036,2.036,0,0,1,34.37,37.425Z"/><path class="cls-3" d="M38.769,37.356V34.933a.979.979,0,0,0-.208-.684.853.853,0,0,0-.653-.225,1.074,1.074,0,0,0-.864.321,1.635,1.635,0,0,0-.271,1.052v1.959h-.567V32.038h.567v1.609a3.56,3.56,0,0,1-.027.483h.034a1.162,1.162,0,0,1,.476-.426,1.563,1.563,0,0,1,.706-.155,1.445,1.445,0,0,1,1.031.326,1.375,1.375,0,0,1,.343,1.038v2.443Z"/><path class="cls-3" d="M42.4,32.359l-1.863,5h-.567l1.863-5Z"/><path class="cls-3" d="M46.3,37.356l-.622-1.589h-2l-.615,1.589h-.588l1.975-5.017h.489L46.9,37.356Zm-.8-2.112L44.915,33.7c-.076-.2-.153-.436-.233-.721a6.576,6.576,0,0,1-.215.721l-.588,1.548Z"/><path class="cls-3" d="M47.42,36.994a.514.514,0,0,1,.1-.347.377.377,0,0,1,.3-.118.4.4,0,0,1,.31.118.49.49,0,0,1,.111.347.48.48,0,0,1-.113.342.448.448,0,0,1-.6.012A.47.47,0,0,1,47.42,36.994Z"/><path class="cls-3" d="M51.928,37.356V34.933a.979.979,0,0,0-.208-.684.851.851,0,0,0-.653-.225,1.07,1.07,0,0,0-.863.321,1.628,1.628,0,0,0-.272,1.052v1.959h-.567V32.038h.567v1.609a3.56,3.56,0,0,1-.027.483h.034a1.158,1.158,0,0,1,.477-.426,1.557,1.557,0,0,1,.706-.155,1.442,1.442,0,0,1,1.03.326,1.375,1.375,0,0,1,.344,1.038v2.443Z"/><path class="cls-3" d="M54.871,36.956a1.973,1.973,0,0,0,.291-.021,1.912,1.912,0,0,0,.222-.047v.434a1.06,1.06,0,0,1-.272.074,2.085,2.085,0,0,1-.323.029q-1.088,0-1.087-1.145V34.052h-.536v-.274l.536-.236.239-.8h.329v.868h1.086v.442H54.27v2.2a.759.759,0,0,0,.16.519A.558.558,0,0,0,54.871,36.956Z"/><path class="cls-3" d="M60.907,37.356V34.919a1.014,1.014,0,0,0-.191-.671.742.742,0,0,0-.595-.224.961.961,0,0,0-.783.3,1.45,1.45,0,0,0-.253.937v2.091h-.567V34.919a1.014,1.014,0,0,0-.191-.671.746.746,0,0,0-.6-.224.926.926,0,0,0-.781.32,1.722,1.722,0,0,0-.248,1.048v1.964h-.568V33.61h.462l.092.513h.027a1.1,1.1,0,0,1,.454-.427,1.372,1.372,0,0,1,.654-.154,1.113,1.113,0,0,1,1.148.636H59a1.183,1.183,0,0,1,.485-.465,1.508,1.508,0,0,1,.725-.171,1.269,1.269,0,0,1,.952.326,1.468,1.468,0,0,1,.316,1.045v2.443Z"/><path class="cls-3" d="M63.211,37.356h-.567V32.038h.567Z"/><path class="cls-3" d="M118.422,79.356v-5H119V78.83h2.2v.526Z"/><path class="cls-3" d="M121.922,74.6a.376.376,0,0,1,.1-.285.355.355,0,0,1,.475,0,.369.369,0,0,1,.1.283.378.378,0,0,1-.1.286.347.347,0,0,1-.475,0A.385.385,0,0,1,121.922,74.6Zm.616,4.761h-.568V75.61h.568Z"/><path class="cls-3" d="M126.3,79.356V76.933a.979.979,0,0,0-.208-.684.851.851,0,0,0-.653-.225,1.075,1.075,0,0,0-.861.318,1.6,1.6,0,0,0-.274,1.05v1.964h-.567V75.61h.461l.092.513h.028a1.157,1.157,0,0,1,.489-.429,1.59,1.59,0,0,1,.7-.152,1.423,1.423,0,0,1,1.019.326,1.392,1.392,0,0,1,.342,1.045v2.443Z"/><path class="cls-3" d="M128.6,77.438a7.023,7.023,0,0,1,.447-.546l1.21-1.282h.674l-1.518,1.6,1.624,2.15h-.687l-1.323-1.77-.427.369v1.4h-.561V74.038h.561v2.82c0,.125-.01.319-.028.58Z"/><path class="cls-3" d="M134.128,78.335a.941.941,0,0,1-.39.807,1.836,1.836,0,0,1-1.093.283,2.36,2.36,0,0,1-1.163-.237v-.525a2.863,2.863,0,0,0,.58.215,2.388,2.388,0,0,0,.6.078,1.349,1.349,0,0,0,.684-.142.488.488,0,0,0,.049-.806,2.955,2.955,0,0,0-.74-.367,4.094,4.094,0,0,1-.743-.34,1.019,1.019,0,0,1-.328-.33.861.861,0,0,1-.108-.441.839.839,0,0,1,.373-.723,1.732,1.732,0,0,1,1.022-.265,2.989,2.989,0,0,1,1.182.246l-.2.461a2.733,2.733,0,0,0-1.022-.232,1.181,1.181,0,0,0-.609.127.391.391,0,0,0-.205.348.428.428,0,0,0,.077.257.753.753,0,0,0,.248.2,5.629,5.629,0,0,0,.656.278,2.438,2.438,0,0,1,.9.488A.862.862,0,0,1,134.128,78.335Z"/><path class="cls-3" d="M138.558,76.052H137.6v3.3h-.567v-3.3h-.67V75.8l.67-.2v-.208q0-1.382,1.206-1.381a2.467,2.467,0,0,1,.7.119l-.147.455a1.858,1.858,0,0,0-.56-.106.544.544,0,0,0-.475.214,1.187,1.187,0,0,0-.154.685v.242h.954Z"/><path class="cls-3" d="M139.774,75.61v2.43a.979.979,0,0,0,.209.684.85.85,0,0,0,.653.226,1.061,1.061,0,0,0,.859-.322,1.615,1.615,0,0,0,.272-1.049V75.61h.567v3.746h-.468l-.082-.5h-.031a1.133,1.133,0,0,1-.483.424,1.63,1.63,0,0,1-.706.147,1.439,1.439,0,0,1-1.024-.324,1.384,1.384,0,0,1-.34-1.039V75.61Zm.035-1.015a.325.325,0,0,1,.09-.256.316.316,0,0,1,.217-.078.334.334,0,0,1,.224.078.316.316,0,0,1,.094.256.324.324,0,0,1-.094.255.33.33,0,0,1-.224.084.312.312,0,0,1-.217-.084A.333.333,0,0,1,139.809,74.6Zm1.3,0a.325.325,0,0,1,.09-.256.318.318,0,0,1,.217-.078.33.33,0,0,1,.221.078.316.316,0,0,1,.094.256.307.307,0,0,1-.315.339.314.314,0,0,1-.217-.084A.333.333,0,0,1,141.111,74.6Z"/><path class="cls-3" d="M145.247,75.542a2.239,2.239,0,0,1,.447.041l-.078.526a1.945,1.945,0,0,0-.41-.051,1,1,0,0,0-.778.369,1.342,1.342,0,0,0-.323.92v2.009h-.567V75.61h.468l.065.694h.027a1.654,1.654,0,0,1,.5-.564A1.129,1.129,0,0,1,145.247,75.542Z"/><path class="cls-3" d="M148.3,74.359h1.411a2.653,2.653,0,0,1,1.439.3,1.046,1.046,0,0,1,.445.94,1.086,1.086,0,0,1-.248.733,1.2,1.2,0,0,1-.723.374v.034q1.139.195,1.138,1.2a1.284,1.284,0,0,1-.453,1.045,1.925,1.925,0,0,1-1.266.376H148.3Zm.581,2.14h.957a1.555,1.555,0,0,0,.885-.193.746.746,0,0,0,.27-.651.658.658,0,0,0-.3-.607,1.879,1.879,0,0,0-.957-.186h-.854Zm0,.492V78.86h1.042a1.485,1.485,0,0,0,.911-.233.864.864,0,0,0,.306-.733.777.777,0,0,0-.312-.684,1.672,1.672,0,0,0-.952-.219Z"/><path class="cls-3" d="M154.332,79.425a1.722,1.722,0,0,1-1.311-.506,1.959,1.959,0,0,1-.48-1.4,2.175,2.175,0,0,1,.445-1.44,1.485,1.485,0,0,1,1.2-.533,1.413,1.413,0,0,1,1.114.463,1.778,1.778,0,0,1,.41,1.223v.358h-2.581a1.487,1.487,0,0,0,.334,1,1.15,1.15,0,0,0,.89.342,3.026,3.026,0,0,0,1.2-.252v.506a2.977,2.977,0,0,1-.569.185A3.165,3.165,0,0,1,154.332,79.425Zm-.154-3.408a.925.925,0,0,0-.72.3,1.349,1.349,0,0,0-.316.812H155.1a1.243,1.243,0,0,0-.24-.821A.839.839,0,0,0,154.178,76.017Z"/><path class="cls-3" d="M159.072,79.356h-2.717V78.97l2.044-2.918h-1.918V75.61h2.54v.442L157,78.915h2.068Z"/><path class="cls-3" d="M160.484,75.61v2.43a.979.979,0,0,0,.208.684.853.853,0,0,0,.653.226,1.063,1.063,0,0,0,.86-.322,1.621,1.621,0,0,0,.272-1.049V75.61h.567v3.746h-.468l-.082-.5h-.031a1.13,1.13,0,0,1-.484.424,1.623,1.623,0,0,1-.706.147,1.438,1.438,0,0,1-1.023-.324,1.384,1.384,0,0,1-.34-1.039V75.61Zm.034-1.015a.322.322,0,0,1,.091-.256.315.315,0,0,1,.217-.078.332.332,0,0,1,.223.078.316.316,0,0,1,.095.256.308.308,0,0,1-.318.339.311.311,0,0,1-.217-.084A.329.329,0,0,1,160.518,74.6Zm1.3,0a.325.325,0,0,1,.091-.256.315.315,0,0,1,.217-.078.328.328,0,0,1,.22.078.316.316,0,0,1,.094.256.307.307,0,0,1-.314.339.311.311,0,0,1-.217-.084A.333.333,0,0,1,161.82,74.6Z"/><path class="cls-3" d="M167.313,75.61v.36l-.694.082a1.162,1.162,0,0,1,.171.312,1.2,1.2,0,0,1,.075.436,1.108,1.108,0,0,1-.376.879,1.518,1.518,0,0,1-1.032.328,1.73,1.73,0,0,1-.314-.028.559.559,0,0,0-.363.482.243.243,0,0,0,.127.227.921.921,0,0,0,.434.074H166a1.473,1.473,0,0,1,.934.257.886.886,0,0,1,.327.744,1.064,1.064,0,0,1-.5.949,2.666,2.666,0,0,1-1.456.326,1.99,1.99,0,0,1-1.133-.273.885.885,0,0,1-.4-.773A.867.867,0,0,1,164,79.4a1.116,1.116,0,0,1,.615-.339.577.577,0,0,1-.241-.2.528.528,0,0,1-.1-.317.6.6,0,0,1,.11-.358,1.124,1.124,0,0,1,.345-.3,1.006,1.006,0,0,1-.473-.408,1.193,1.193,0,0,1-.183-.656,1.213,1.213,0,0,1,.369-.948,1.508,1.508,0,0,1,1.046-.333,1.892,1.892,0,0,1,.53.068Zm-2.987,4.375a.506.506,0,0,0,.256.461,1.4,1.4,0,0,0,.735.158,2.057,2.057,0,0,0,1.058-.213.655.655,0,0,0,.343-.579.458.458,0,0,0-.188-.423,1.465,1.465,0,0,0-.707-.118h-.68a.9.9,0,0,0-.6.185A.656.656,0,0,0,164.326,79.985Zm.307-3.175a.767.767,0,0,0,.222.595.89.89,0,0,0,.619.2.723.723,0,0,0,.831-.806.745.745,0,0,0-.841-.844.828.828,0,0,0-.615.215A.864.864,0,0,0,164.633,76.81Z"/><path class="cls-3" d="M169.665,79.425a1.722,1.722,0,0,1-1.311-.506,1.959,1.959,0,0,1-.48-1.4,2.175,2.175,0,0,1,.445-1.44,1.485,1.485,0,0,1,1.2-.533,1.413,1.413,0,0,1,1.114.463,1.778,1.778,0,0,1,.41,1.223v.358h-2.581a1.487,1.487,0,0,0,.334,1,1.15,1.15,0,0,0,.89.342,3.026,3.026,0,0,0,1.2-.252v.506a2.977,2.977,0,0,1-.569.185A3.165,3.165,0,0,1,169.665,79.425Zm-.154-3.408a.925.925,0,0,0-.72.3,1.349,1.349,0,0,0-.316.812h1.959a1.243,1.243,0,0,0-.24-.821A.839.839,0,0,0,169.511,76.017Z"/><path class="cls-3" d="M105.709,37.356l-.687-2.2q-.065-.2-.243-.916h-.027q-.136.6-.239.922l-.708,2.191h-.656l-1.022-3.746h.595q.361,1.413.552,2.151a8.747,8.747,0,0,1,.217.994h.027q.038-.2.121-.5c.056-.206.105-.37.146-.49l.687-2.151h.615l.67,2.151a7.359,7.359,0,0,1,.26.987h.027a3.654,3.654,0,0,1,.074-.38q.059-.255.712-2.758h.588l-1.036,3.746Z"/><path class="cls-3" d="M111.154,37.356l-.687-2.2c-.044-.135-.124-.44-.243-.916H110.2c-.092.4-.171.706-.239.922l-.708,2.191h-.656l-1.022-3.746h.595q.362,1.413.552,2.151a8.984,8.984,0,0,1,.217.994h.027q.038-.2.121-.5c.056-.206.1-.37.145-.49l.688-2.151h.615l.67,2.151a7.186,7.186,0,0,1,.259.987h.028a3.586,3.586,0,0,1,.073-.38q.06-.255.713-2.758h.588l-1.036,3.746Z"/><path class="cls-3" d="M116.6,37.356l-.687-2.2c-.044-.135-.124-.44-.243-.916h-.027c-.092.4-.171.706-.24.922l-.707,2.191h-.656l-1.022-3.746h.594q.363,1.413.553,2.151a8.668,8.668,0,0,1,.216.994h.028q.038-.2.121-.5c.056-.206.1-.37.145-.49l.687-2.151h.616l.669,2.151a7.067,7.067,0,0,1,.26.987h.028a3.586,3.586,0,0,1,.073-.38q.06-.255.713-2.758h.588l-1.036,3.746Z"/><path class="cls-3" d="M118.9,36.994a.509.509,0,0,1,.105-.347.376.376,0,0,1,.3-.118.4.4,0,0,1,.309.118.49.49,0,0,1,.111.347.48.48,0,0,1-.113.342.447.447,0,0,1-.6.012A.466.466,0,0,1,118.9,36.994Z"/><path class="cls-3" d="M122.057,36.956a1.973,1.973,0,0,0,.291-.021,1.912,1.912,0,0,0,.222-.047v.434a1.06,1.06,0,0,1-.272.074,2.085,2.085,0,0,1-.323.029q-1.087,0-1.087-1.145V34.052h-.536v-.274l.536-.236.239-.8h.329v.868h1.086v.442h-1.086v2.2a.759.759,0,0,0,.16.519A.558.558,0,0,0,122.057,36.956Z"/><path class="cls-3" d="M124.9,37.425a1.722,1.722,0,0,1-1.311-.506,1.959,1.959,0,0,1-.48-1.4,2.176,2.176,0,0,1,.446-1.44,1.483,1.483,0,0,1,1.2-.533,1.411,1.411,0,0,1,1.114.463,1.774,1.774,0,0,1,.41,1.223v.358H123.7a1.482,1.482,0,0,0,.333,1,1.153,1.153,0,0,0,.89.342,3.027,3.027,0,0,0,1.2-.252v.506a3,3,0,0,1-.569.185A3.169,3.169,0,0,1,124.9,37.425Zm-.154-3.408a.926.926,0,0,0-.72.295,1.355,1.355,0,0,0-.316.812h1.959a1.248,1.248,0,0,0-.239-.821A.842.842,0,0,0,124.747,34.017Z"/><path class="cls-3" d="M129.662,36.335a.941.941,0,0,1-.39.807,1.836,1.836,0,0,1-1.093.283,2.354,2.354,0,0,1-1.162-.237v-.525a2.854,2.854,0,0,0,.579.215,2.388,2.388,0,0,0,.6.078,1.349,1.349,0,0,0,.684-.142.488.488,0,0,0,.049-.806,2.962,2.962,0,0,0-.739-.367,4.078,4.078,0,0,1-.744-.34,1.019,1.019,0,0,1-.328-.33.861.861,0,0,1-.108-.441.839.839,0,0,1,.373-.723,1.732,1.732,0,0,1,1.022-.265,2.989,2.989,0,0,1,1.182.246l-.2.461a2.733,2.733,0,0,0-1.022-.232,1.181,1.181,0,0,0-.609.127.391.391,0,0,0-.2.348.422.422,0,0,0,.078.257.738.738,0,0,0,.247.2,5.709,5.709,0,0,0,.656.278,2.438,2.438,0,0,1,.9.488A.862.862,0,0,1,129.662,36.335Z"/><path class="cls-3" d="M131.795,36.956a1.95,1.95,0,0,0,.29-.021,1.891,1.891,0,0,0,.223-.047v.434a1.06,1.06,0,0,1-.272.074,2.085,2.085,0,0,1-.323.029q-1.088,0-1.087-1.145V34.052h-.537v-.274l.537-.236.239-.8h.328v.868h1.087v.442h-1.087v2.2a.759.759,0,0,0,.161.519A.558.558,0,0,0,131.795,36.956Z"/><path class="cls-3" d="M132.974,36.994a.509.509,0,0,1,.105-.347.375.375,0,0,1,.3-.118.4.4,0,0,1,.31.118.49.49,0,0,1,.111.347.48.48,0,0,1-.113.342.448.448,0,0,1-.6.012A.47.47,0,0,1,132.974,36.994Z"/><path class="cls-3" d="M136.416,37.425a1.6,1.6,0,0,1-1.26-.5,2.061,2.061,0,0,1-.446-1.417,2.121,2.121,0,0,1,.453-1.452,1.632,1.632,0,0,1,1.291-.513,2.551,2.551,0,0,1,.54.059,1.751,1.751,0,0,1,.423.136l-.174.482a2.668,2.668,0,0,0-.41-.125,1.835,1.835,0,0,0-.393-.05q-1.142,0-1.142,1.457a1.732,1.732,0,0,0,.279,1.059.97.97,0,0,0,.825.369,2.534,2.534,0,0,0,.961-.2v.5A2.036,2.036,0,0,1,136.416,37.425Z"/><path class="cls-3" d="M140.815,37.356V34.933a.974.974,0,0,0-.209-.684.849.849,0,0,0-.652-.225,1.074,1.074,0,0,0-.864.321,1.635,1.635,0,0,0-.271,1.052v1.959h-.568V32.038h.568v1.609a3.56,3.56,0,0,1-.027.483h.034a1.162,1.162,0,0,1,.476-.426,1.563,1.563,0,0,1,.706-.155,1.445,1.445,0,0,1,1.031.326,1.375,1.375,0,0,1,.343,1.038v2.443Z"/><path class="cls-3" d="M144.445,32.359l-1.863,5h-.567l1.862-5Z"/><path class="cls-3" d="M145.2,32.359h1.411a2.655,2.655,0,0,1,1.439.3,1.046,1.046,0,0,1,.445.94,1.086,1.086,0,0,1-.248.733,1.2,1.2,0,0,1-.723.374v.034q1.139.2,1.138,1.2a1.284,1.284,0,0,1-.453,1.045,1.925,1.925,0,0,1-1.266.376H145.2Zm.581,2.14h.957a1.555,1.555,0,0,0,.885-.193.746.746,0,0,0,.27-.651.658.658,0,0,0-.3-.607,1.879,1.879,0,0,0-.957-.186h-.854Zm0,.492V36.86h1.042a1.487,1.487,0,0,0,.911-.233.864.864,0,0,0,.306-.733.777.777,0,0,0-.313-.684,1.67,1.67,0,0,0-.952-.219Z"/><path class="cls-3" d="M149.572,36.994a.509.509,0,0,1,.1-.347.377.377,0,0,1,.3-.118.406.406,0,0,1,.31.118.5.5,0,0,1,.111.347.48.48,0,0,1-.113.342.448.448,0,0,1-.6.012A.47.47,0,0,1,149.572,36.994Z"/><path class="cls-3" d="M154.08,37.356V34.933a.979.979,0,0,0-.208-.684.853.853,0,0,0-.653-.225,1.074,1.074,0,0,0-.864.321,1.635,1.635,0,0,0-.271,1.052v1.959h-.567V32.038h.567v1.609a3.56,3.56,0,0,1-.027.483h.034a1.162,1.162,0,0,1,.476-.426,1.563,1.563,0,0,1,.706-.155,1.445,1.445,0,0,1,1.031.326,1.375,1.375,0,0,1,.343,1.038v2.443Z"/><path class="cls-3" d="M157.023,36.956a1.95,1.95,0,0,0,.29-.021,1.891,1.891,0,0,0,.223-.047v.434a1.06,1.06,0,0,1-.272.074,2.085,2.085,0,0,1-.323.029q-1.088,0-1.087-1.145V34.052h-.537v-.274l.537-.236.239-.8h.328v.868h1.087v.442h-1.087v2.2a.759.759,0,0,0,.161.519A.558.558,0,0,0,157.023,36.956Z"/><path class="cls-3" d="M163.059,37.356V34.919a1.014,1.014,0,0,0-.191-.671.742.742,0,0,0-.595-.224.961.961,0,0,0-.783.3,1.45,1.45,0,0,0-.253.937v2.091h-.567V34.919a1.014,1.014,0,0,0-.191-.671.748.748,0,0,0-.6-.224.925.925,0,0,0-.78.32,1.722,1.722,0,0,0-.248,1.048v1.964h-.568V33.61h.462l.092.513h.027a1.105,1.105,0,0,1,.453-.427,1.379,1.379,0,0,1,.655-.154,1.113,1.113,0,0,1,1.148.636h.027a1.192,1.192,0,0,1,.486-.465,1.5,1.5,0,0,1,.724-.171,1.27,1.27,0,0,1,.953.326,1.468,1.468,0,0,1,.315,1.045v2.443Z"/><path class="cls-3" d="M165.363,37.356H164.8V32.038h.568Z"/><path class="cls-3" d="M207.755,37.356l-.687-2.2c-.044-.135-.124-.44-.243-.916H206.8q-.137.6-.239.922l-.708,2.191H205.2l-1.022-3.746h.595q.361,1.413.552,2.151a8.747,8.747,0,0,1,.217.994h.027q.037-.2.121-.5c.056-.206.1-.37.146-.49l.687-2.151h.615l.67,2.151a7.186,7.186,0,0,1,.259.987h.028a3.654,3.654,0,0,1,.074-.38q.059-.255.712-2.758h.588l-1.036,3.746Z"/><path class="cls-3" d="M213.2,37.356l-.687-2.2c-.044-.135-.124-.44-.243-.916h-.027c-.092.4-.171.706-.24.922l-.707,2.191h-.656l-1.022-3.746h.594q.363,1.413.553,2.151a8.668,8.668,0,0,1,.216.994h.028q.037-.2.121-.5c.056-.206.1-.37.145-.49l.687-2.151h.616l.67,2.151a7.186,7.186,0,0,1,.259.987h.028a3.586,3.586,0,0,1,.073-.38q.06-.255.713-2.758h.588l-1.036,3.746Z"/><path class="cls-3" d="M218.645,37.356l-.687-2.2q-.066-.2-.243-.916h-.027c-.092.4-.171.706-.24.922l-.707,2.191h-.657l-1.022-3.746h.595q.363,1.413.552,2.151a8.747,8.747,0,0,1,.217.994h.028q.038-.2.121-.5c.056-.206.1-.37.145-.49l.687-2.151h.615l.67,2.151a7.067,7.067,0,0,1,.26.987h.027c.01-.082.034-.208.074-.38s.278-1.09.713-2.758h.588l-1.036,3.746Z"/><path class="cls-3" d="M220.948,36.994a.509.509,0,0,1,.1-.347.376.376,0,0,1,.3-.118.4.4,0,0,1,.309.118.49.49,0,0,1,.111.347.48.48,0,0,1-.113.342.4.4,0,0,1-.307.12.407.407,0,0,1-.29-.108A.47.47,0,0,1,220.948,36.994Z"/><path class="cls-3" d="M224.1,36.956a1.973,1.973,0,0,0,.291-.021,1.912,1.912,0,0,0,.222-.047v.434a1.06,1.06,0,0,1-.272.074,2.085,2.085,0,0,1-.323.029q-1.088,0-1.087-1.145V34.052H222.4v-.274l.537-.236.239-.8h.328v.868h1.087v.442H223.5v2.2a.759.759,0,0,0,.161.519A.558.558,0,0,0,224.1,36.956Z"/><path class="cls-3" d="M226.947,37.425a1.722,1.722,0,0,1-1.311-.506,1.959,1.959,0,0,1-.48-1.4,2.176,2.176,0,0,1,.446-1.44,1.481,1.481,0,0,1,1.2-.533,1.411,1.411,0,0,1,1.114.463,1.774,1.774,0,0,1,.41,1.223v.358h-2.58a1.482,1.482,0,0,0,.333,1,1.151,1.151,0,0,0,.89.342,3.027,3.027,0,0,0,1.2-.252v.506a3.023,3.023,0,0,1-.569.185A3.169,3.169,0,0,1,226.947,37.425Zm-.154-3.408a.925.925,0,0,0-.72.295,1.355,1.355,0,0,0-.316.812h1.959a1.248,1.248,0,0,0-.239-.821A.842.842,0,0,0,226.793,34.017Z"/><path class="cls-3" d="M231.708,36.335a.941.941,0,0,1-.39.807,1.836,1.836,0,0,1-1.093.283,2.36,2.36,0,0,1-1.163-.237v-.525a2.886,2.886,0,0,0,.58.215,2.388,2.388,0,0,0,.6.078,1.349,1.349,0,0,0,.684-.142.488.488,0,0,0,.049-.806,2.955,2.955,0,0,0-.74-.367,4.094,4.094,0,0,1-.743-.34,1.019,1.019,0,0,1-.328-.33.861.861,0,0,1-.108-.441.839.839,0,0,1,.373-.723,1.732,1.732,0,0,1,1.022-.265,2.989,2.989,0,0,1,1.182.246l-.2.461a2.733,2.733,0,0,0-1.022-.232,1.181,1.181,0,0,0-.609.127.391.391,0,0,0-.2.348.428.428,0,0,0,.077.257.753.753,0,0,0,.248.2,5.709,5.709,0,0,0,.656.278,2.438,2.438,0,0,1,.9.488A.862.862,0,0,1,231.708,36.335Z"/><path class="cls-3" d="M233.841,36.956a1.95,1.95,0,0,0,.29-.021,1.891,1.891,0,0,0,.223-.047v.434a1.06,1.06,0,0,1-.272.074,2.1,2.1,0,0,1-.323.029q-1.088,0-1.087-1.145V34.052h-.537v-.274l.537-.236.239-.8h.328v.868h1.087v.442h-1.087v2.2a.759.759,0,0,0,.161.519A.558.558,0,0,0,233.841,36.956Z"/><path class="cls-3" d="M235.02,36.994a.509.509,0,0,1,.1-.347.374.374,0,0,1,.3-.118.4.4,0,0,1,.31.118.49.49,0,0,1,.111.347.48.48,0,0,1-.113.342.448.448,0,0,1-.6.012A.47.47,0,0,1,235.02,36.994Z"/><path class="cls-3" d="M238.462,37.425a1.6,1.6,0,0,1-1.26-.5,2.061,2.061,0,0,1-.446-1.417,2.121,2.121,0,0,1,.453-1.452,1.631,1.631,0,0,1,1.291-.513,2.551,2.551,0,0,1,.54.059,1.751,1.751,0,0,1,.423.136l-.174.482a2.668,2.668,0,0,0-.41-.125,1.835,1.835,0,0,0-.393-.05q-1.142,0-1.142,1.457a1.732,1.732,0,0,0,.279,1.059.968.968,0,0,0,.825.369,2.534,2.534,0,0,0,.961-.2v.5A2.036,2.036,0,0,1,238.462,37.425Z"/><path class="cls-3" d="M242.861,37.356V34.933a.974.974,0,0,0-.209-.684.849.849,0,0,0-.652-.225,1.072,1.072,0,0,0-.864.321,1.635,1.635,0,0,0-.271,1.052v1.959H240.3V32.038h.568v1.609a3.538,3.538,0,0,1-.028.483h.035a1.155,1.155,0,0,1,.476-.426,1.563,1.563,0,0,1,.706-.155,1.441,1.441,0,0,1,1.03.326,1.371,1.371,0,0,1,.344,1.038v2.443Z"/><path class="cls-3" d="M246.491,32.359l-1.863,5h-.567l1.862-5Z"/><path class="cls-3" d="M249.389,32.808a1.633,1.633,0,0,0-1.3.547,2.216,2.216,0,0,0-.477,1.5,2.259,2.259,0,0,0,.459,1.516,1.638,1.638,0,0,0,1.311.535,4.49,4.49,0,0,0,1.193-.188v.508a3.642,3.642,0,0,1-1.282.2,2.169,2.169,0,0,1-1.7-.67,2.752,2.752,0,0,1-.6-1.9,3.016,3.016,0,0,1,.288-1.354,2.074,2.074,0,0,1,.834-.894,2.525,2.525,0,0,1,1.284-.315,3.1,3.1,0,0,1,1.374.287l-.246.5A2.654,2.654,0,0,0,249.389,32.808Z"/><path class="cls-3" d="M251.5,36.994a.509.509,0,0,1,.105-.347.374.374,0,0,1,.3-.118.4.4,0,0,1,.31.118.49.49,0,0,1,.111.347.48.48,0,0,1-.113.342.448.448,0,0,1-.6.012A.47.47,0,0,1,251.5,36.994Z"/><path class="cls-3" d="M256.006,37.356V34.933a.979.979,0,0,0-.208-.684.851.851,0,0,0-.653-.225,1.07,1.07,0,0,0-.863.321,1.628,1.628,0,0,0-.272,1.052v1.959h-.567V32.038h.567v1.609a3.56,3.56,0,0,1-.027.483h.034a1.165,1.165,0,0,1,.477-.426,1.56,1.56,0,0,1,.706-.155,1.442,1.442,0,0,1,1.03.326,1.375,1.375,0,0,1,.344,1.038v2.443Z"/><path class="cls-3" d="M258.949,36.956a1.973,1.973,0,0,0,.291-.021,1.912,1.912,0,0,0,.222-.047v.434a1.048,1.048,0,0,1-.272.074,2.085,2.085,0,0,1-.323.029q-1.086,0-1.087-1.145V34.052h-.536v-.274l.536-.236.24-.8h.328v.868h1.087v.442h-1.087v2.2a.759.759,0,0,0,.16.519A.558.558,0,0,0,258.949,36.956Z"/><path class="cls-3" d="M264.985,37.356V34.919a1.014,1.014,0,0,0-.191-.671.741.741,0,0,0-.595-.224.957.957,0,0,0-.782.3,1.444,1.444,0,0,0-.253.937v2.091H262.6V34.919a1.014,1.014,0,0,0-.191-.671.746.746,0,0,0-.6-.224.926.926,0,0,0-.781.32,1.722,1.722,0,0,0-.248,1.048v1.964h-.568V33.61h.462l.092.513h.028a1.093,1.093,0,0,1,.453-.427,1.372,1.372,0,0,1,.654-.154,1.113,1.113,0,0,1,1.148.636h.028a1.189,1.189,0,0,1,.485-.465,1.508,1.508,0,0,1,.725-.171,1.269,1.269,0,0,1,.952.326,1.468,1.468,0,0,1,.316,1.045v2.443Z"/><path class="cls-3" d="M267.289,37.356h-.567V32.038h.567Z"/><path class="cls-1" d="M19.879,54.262C54.762,81.552,96.885,96.5,144.569,96.5s89.807-14.949,124.69-42.239"/><polyline class="cls-1" points="21.201 62.563 19.879 54.262 28.255 53.547"/><polyline class="cls-1" points="260.884 53.546 269.259 54.261 267.937 62.563"/></svg>