<svg id="Layer_1" data-name="Layer 1" xmlns="http://www.w3.org/2000/svg" viewBox="0 0 289.136 301.254"><defs><style>.cls-1{fill:#fff;}.cls-2{fill:#20201e;}.cls-3{fill:none;stroke:#20201e;stroke-width:3px;}</style></defs><title>subcategory</title><rect class="cls-1" x="1.5" y="5.5" width="184.087" height="23"/><path class="cls-2" d="M73.3,20.443H71.752l-1.683-2.707-.576.413v2.294H68.131V14.019h1.362v2.94l.536-.756,1.741-2.184h1.511L71.04,16.861Z"/><path class="cls-2" d="M77.158,20.443l-.259-.668h-.035a1.964,1.964,0,0,1-.7.591,2.232,2.232,0,0,1-.933.165,1.514,1.514,0,0,1-1.115-.4,1.552,1.552,0,0,1-.406-1.151,1.3,1.3,0,0,1,.547-1.154,3.173,3.173,0,0,1,1.65-.411l.853-.026V17.17A.669.669,0,0,0,76,16.422a3.49,3.49,0,0,0-1.384.356l-.444-.9a3.993,3.993,0,0,1,1.881-.443,2.348,2.348,0,0,1,1.516.429,1.594,1.594,0,0,1,.527,1.311v3.273Zm-.395-2.276-.519.018a1.656,1.656,0,0,0-.87.211.661.661,0,0,0-.285.588q0,.567.65.567a1.03,1.03,0,0,0,.745-.268.942.942,0,0,0,.279-.712Z"/><path class="cls-2" d="M81.589,19.463a2.922,2.922,0,0,0,.844-.153v1a3,3,0,0,1-1.231.224,1.506,1.506,0,0,1-1.171-.406,1.769,1.769,0,0,1-.367-1.22V16.537h-.641V15.97l.738-.449.387-1.037h.857V15.53H82.38v1.007H81.005v2.368a.523.523,0,0,0,.16.422A.631.631,0,0,0,81.589,19.463Z"/><path class="cls-2" d="M85.686,20.531a2.54,2.54,0,0,1-1.855-.654,2.483,2.483,0,0,1-.668-1.856,2.731,2.731,0,0,1,.617-1.909,2.2,2.2,0,0,1,1.708-.674,2.168,2.168,0,0,1,1.622.593,2.25,2.25,0,0,1,.58,1.639v.65H84.521a1.292,1.292,0,0,0,.339.893,1.186,1.186,0,0,0,.887.32,3.666,3.666,0,0,0,.84-.092,4.1,4.1,0,0,0,.826-.295v1.038a3.071,3.071,0,0,1-.752.261A4.664,4.664,0,0,1,85.686,20.531ZM85.5,16.392a.847.847,0,0,0-.668.27,1.249,1.249,0,0,0-.277.767h1.881a1.118,1.118,0,0,0-.259-.767A.876.876,0,0,0,85.5,16.392Z"/><path class="cls-2" d="M93.1,15.53v.681l-.769.2a1.338,1.338,0,0,1,.211.738,1.489,1.489,0,0,1-.552,1.233,2.383,2.383,0,0,1-1.531.442l-.242-.013-.2-.022a.447.447,0,0,0-.207.352q0,.29.738.289h.835a1.909,1.909,0,0,1,1.233.347,1.242,1.242,0,0,1,.424,1.02,1.511,1.511,0,0,1-.719,1.336,3.741,3.741,0,0,1-2.063.474,2.85,2.85,0,0,1-1.57-.358,1.133,1.133,0,0,1-.543-1,1.053,1.053,0,0,1,.276-.743,1.585,1.585,0,0,1,.813-.426.893.893,0,0,1-.36-.288.7.7,0,0,1,.009-.891,1.86,1.86,0,0,1,.47-.368,1.317,1.317,0,0,1-.613-.536,1.63,1.63,0,0,1-.226-.87,1.536,1.536,0,0,1,.523-1.244,2.264,2.264,0,0,1,1.494-.439,3.644,3.644,0,0,1,.49.038c.189.024.31.043.362.054Zm-3.792,5.608a.484.484,0,0,0,.265.434,1.462,1.462,0,0,0,.746.158,2.638,2.638,0,0,0,1.129-.2.6.6,0,0,0,.409-.541.385.385,0,0,0-.242-.382,1.986,1.986,0,0,0-.747-.105h-.694a1.041,1.041,0,0,0-.618.174A.532.532,0,0,0,89.308,21.138Zm.488-4a1,1,0,0,0,.182.632.66.66,0,0,0,.556.233.648.648,0,0,0,.554-.233,1.026,1.026,0,0,0,.175-.632q0-.888-.729-.888T89.8,17.139Z"/><path class="cls-2" d="M98.419,17.979a2.639,2.639,0,0,1-.633,1.875,2.291,2.291,0,0,1-1.762.677,2.468,2.468,0,0,1-1.248-.309,2.058,2.058,0,0,1-.831-.89,3,3,0,0,1-.29-1.353,2.633,2.633,0,0,1,.628-1.874,2.313,2.313,0,0,1,1.767-.667,2.478,2.478,0,0,1,1.248.308,2.058,2.058,0,0,1,.831.883A2.971,2.971,0,0,1,98.419,17.979Zm-3.4,0a2.056,2.056,0,0,0,.239,1.1.858.858,0,0,0,.78.374.842.842,0,0,0,.771-.372,2.083,2.083,0,0,0,.236-1.1,2.032,2.032,0,0,0-.238-1.095,1.01,1.01,0,0,0-1.551,0A2.029,2.029,0,0,0,95.022,17.979Z"/><path class="cls-2" d="M102.3,15.438a2.117,2.117,0,0,1,.453.04l-.1,1.256a1.546,1.546,0,0,0-.4-.044,1.427,1.427,0,0,0-1,.33,1.193,1.193,0,0,0-.357.923v2.5H99.562V15.53h1.015l.2.826h.066a1.847,1.847,0,0,1,.618-.666A1.521,1.521,0,0,1,102.3,15.438Z"/><path class="cls-2" d="M103.628,14.26q0-.654.729-.655t.73.655a.637.637,0,0,1-.183.486.771.771,0,0,1-.547.174C103.871,14.92,103.628,14.7,103.628,14.26Zm1.4,6.183h-1.34V15.53h1.34Z"/><path class="cls-2" d="M108.691,20.531a2.536,2.536,0,0,1-1.854-.654,2.479,2.479,0,0,1-.668-1.856,2.726,2.726,0,0,1,.617-1.909,2.2,2.2,0,0,1,1.707-.674,2.166,2.166,0,0,1,1.622.593,2.246,2.246,0,0,1,.58,1.639v.65h-3.168a1.287,1.287,0,0,0,.338.893,1.19,1.19,0,0,0,.888.32,3.657,3.657,0,0,0,.839-.092,4.082,4.082,0,0,0,.826-.295v1.038a3.063,3.063,0,0,1-.751.261A4.681,4.681,0,0,1,108.691,20.531Zm-.189-4.139a.847.847,0,0,0-.668.27,1.255,1.255,0,0,0-.277.767h1.881a1.118,1.118,0,0,0-.259-.767A.876.876,0,0,0,108.5,16.392Z"/><path class="cls-2" d="M118.251,20.443l-.466-1.529h-2.342l-.466,1.529h-1.468l2.268-6.451h1.666l2.276,6.451Zm-.791-2.672q-.646-2.078-.727-2.351c-.055-.181-.093-.324-.117-.43q-.144.563-.83,2.781Z"/><rect class="cls-3" x="1.5" y="5.5" width="184.087" height="23"/><path class="cls-2" d="M204.724,11.356v-5h1.059v4.122h2.027v.875Z"/><path class="cls-2" d="M210.325,11.425a1.971,1.971,0,0,1-1.442-.51,1.927,1.927,0,0,1-.52-1.441,2.123,2.123,0,0,1,.481-1.486,1.712,1.712,0,0,1,1.328-.524,1.681,1.681,0,0,1,1.261.461,1.743,1.743,0,0,1,.451,1.275v.506H209.42a1,1,0,0,0,.263.693.927.927,0,0,0,.69.25,2.868,2.868,0,0,0,.654-.072,3.337,3.337,0,0,0,.642-.228v.806a2.468,2.468,0,0,1-.585.2A3.709,3.709,0,0,1,210.325,11.425Zm-.146-3.22a.661.661,0,0,0-.52.21.97.97,0,0,0-.215.6h1.462a.863.863,0,0,0-.2-.6A.683.683,0,0,0,210.179,8.205Z"/><path class="cls-2" d="M213.641,11.356l-1.456-3.821h1.091l.738,2.177a3.855,3.855,0,0,1,.153.783h.021a3.348,3.348,0,0,1,.154-.783l.734-2.177h1.091l-1.456,3.821Z"/><path class="cls-2" d="M218.444,11.425a1.97,1.97,0,0,1-1.443-.51,1.923,1.923,0,0,1-.519-1.441,2.123,2.123,0,0,1,.48-1.486,1.71,1.71,0,0,1,1.327-.524,1.684,1.684,0,0,1,1.262.461A1.743,1.743,0,0,1,220,9.2v.506h-2.465a1,1,0,0,0,.264.693.927.927,0,0,0,.69.25,2.86,2.86,0,0,0,.653-.072,3.29,3.29,0,0,0,.642-.228v.806a2.46,2.46,0,0,1-.584.2A3.72,3.72,0,0,1,218.444,11.425Zm-.148-3.22a.661.661,0,0,0-.519.21.97.97,0,0,0-.215.6h1.463a.873.873,0,0,0-.2-.6A.68.68,0,0,0,218.3,8.205Z"/><path class="cls-2" d="M221.892,11.356H220.85V6.038h1.042Z"/><path class="cls-2" d="M227.149,11.356h-1.056V8.465l.01-.476.017-.519c-.175.176-.3.291-.366.345l-.574.461-.509-.634,1.609-1.283h.869Z"/><path class="cls-2" d="M230.352,9.866V9.08h2.939v.786Z"/><path class="cls-2" d="M240.038,11.356h-1.2l-1.309-2.105-.448.321v1.784h-1.059v-5h1.059V8.646l.417-.588,1.354-1.7h1.176l-1.744,2.212Z"/><path class="cls-2" d="M243.012,11.356l-.2-.519h-.028a1.53,1.53,0,0,1-.541.46,1.759,1.759,0,0,1-.726.128,1.171,1.171,0,0,1-.866-.315,1.205,1.205,0,0,1-.317-.895,1.011,1.011,0,0,1,.426-.9A2.472,2.472,0,0,1,242.041,9l.663-.02V8.81a.519.519,0,0,0-.594-.581,2.709,2.709,0,0,0-1.078.277l-.344-.7a3.091,3.091,0,0,1,1.463-.346,1.815,1.815,0,0,1,1.178.336,1.234,1.234,0,0,1,.41,1.018v2.546Zm-.308-1.77-.4.014a1.272,1.272,0,0,0-.677.164.515.515,0,0,0-.222.458q0,.441.505.441a.8.8,0,0,0,.58-.209A.731.731,0,0,0,242.7,9.9Z"/><path class="cls-2" d="M246.423,10.6a2.258,2.258,0,0,0,.656-.12v.776a2.358,2.358,0,0,1-.957.174,1.172,1.172,0,0,1-.911-.317,1.376,1.376,0,0,1-.285-.948V8.317h-.5v-.44L245,7.528l.3-.806h.666v.813h1.07v.782h-1.07V10.16a.405.405,0,0,0,.125.328A.49.49,0,0,0,246.423,10.6Z"/><path class="cls-2" d="M249.581,11.425a1.97,1.97,0,0,1-1.442-.51,1.924,1.924,0,0,1-.52-1.441,2.119,2.119,0,0,1,.481-1.486,1.709,1.709,0,0,1,1.327-.524,1.684,1.684,0,0,1,1.262.461A1.747,1.747,0,0,1,251.14,9.2v.506h-2.465a1,1,0,0,0,.264.693.925.925,0,0,0,.69.25,2.851,2.851,0,0,0,.652-.072,3.3,3.3,0,0,0,.643-.228v.806a2.476,2.476,0,0,1-.584.2A3.723,3.723,0,0,1,249.581,11.425Zm-.147-3.22a.664.664,0,0,0-.52.21.976.976,0,0,0-.215.6h1.463a.873.873,0,0,0-.2-.6A.683.683,0,0,0,249.434,8.205Z"/><path class="cls-2" d="M255.313,7.535v.53l-.6.154a1.045,1.045,0,0,1,.164.574,1.161,1.161,0,0,1-.429.959,1.864,1.864,0,0,1-1.191.343l-.189-.01-.153-.018a.349.349,0,0,0-.161.274c0,.15.191.226.574.226h.65a1.481,1.481,0,0,1,.959.27.967.967,0,0,1,.33.793,1.178,1.178,0,0,1-.559,1.039,2.914,2.914,0,0,1-1.605.369,2.226,2.226,0,0,1-1.222-.278.887.887,0,0,1-.422-.781.815.815,0,0,1,.215-.578,1.229,1.229,0,0,1,.633-.332.693.693,0,0,1-.28-.223.528.528,0,0,1-.121-.33.534.534,0,0,1,.127-.365,1.482,1.482,0,0,1,.366-.285,1.021,1.021,0,0,1-.477-.417,1.271,1.271,0,0,1-.176-.677,1.193,1.193,0,0,1,.406-.966,1.758,1.758,0,0,1,1.163-.342,3.02,3.02,0,0,1,.381.028c.147.02.241.034.282.043Zm-2.95,4.361a.378.378,0,0,0,.207.339,1.14,1.14,0,0,0,.58.123,2.045,2.045,0,0,0,.878-.154.469.469,0,0,0,.318-.42.3.3,0,0,0-.189-.3,1.549,1.549,0,0,0-.581-.082h-.54a.813.813,0,0,0-.479.135A.416.416,0,0,0,252.363,11.9Zm.379-3.11a.776.776,0,0,0,.143.492.513.513,0,0,0,.432.182.5.5,0,0,0,.43-.182.794.794,0,0,0,.137-.492q0-.69-.567-.69T252.742,8.786Z"/><path class="cls-2" d="M259.414,9.438a2.051,2.051,0,0,1-.492,1.46,1.784,1.784,0,0,1-1.37.527,1.916,1.916,0,0,1-.971-.241,1.606,1.606,0,0,1-.646-.693,2.317,2.317,0,0,1-.226-1.053,2.039,2.039,0,0,1,.489-1.455,1.8,1.8,0,0,1,1.374-.519,1.933,1.933,0,0,1,.971.238,1.6,1.6,0,0,1,.646.688A2.305,2.305,0,0,1,259.414,9.438Zm-2.641,0a1.608,1.608,0,0,0,.185.859.67.67,0,0,0,.608.29.656.656,0,0,0,.6-.288,1.631,1.631,0,0,0,.183-.861,1.577,1.577,0,0,0-.185-.85.784.784,0,0,0-1.206,0A1.579,1.579,0,0,0,256.773,9.438Z"/><path class="cls-2" d="M262.408,7.464a1.732,1.732,0,0,1,.353.03l-.079.978a1.186,1.186,0,0,0-.308-.034,1.1,1.1,0,0,0-.777.256.923.923,0,0,0-.278.717v1.945h-1.043V7.535h.79l.153.643h.052a1.437,1.437,0,0,1,.479-.518A1.187,1.187,0,0,1,262.408,7.464Z"/><path class="cls-2" d="M263.41,6.548q0-.51.568-.51t.567.51a.5.5,0,0,1-.142.377.6.6,0,0,1-.425.135C263.6,7.06,263.41,6.89,263.41,6.548Zm1.087,4.808h-1.043V7.535H264.5Z"/><path class="cls-2" d="M267.32,11.425a1.97,1.97,0,0,1-1.442-.51,1.923,1.923,0,0,1-.519-1.441,2.123,2.123,0,0,1,.48-1.486,1.71,1.71,0,0,1,1.327-.524,1.684,1.684,0,0,1,1.262.461,1.743,1.743,0,0,1,.451,1.275v.506h-2.465a1,1,0,0,0,.264.693.925.925,0,0,0,.69.25,2.86,2.86,0,0,0,.653-.072,3.29,3.29,0,0,0,.642-.228v.806a2.46,2.46,0,0,1-.584.2A3.723,3.723,0,0,1,267.32,11.425Zm-.147-3.22a.66.66,0,0,0-.519.21.97.97,0,0,0-.215.6H267.9a.873.873,0,0,0-.2-.6A.68.68,0,0,0,267.173,8.205Z"/><path class="cls-2" d="M204.724,167.358v-5h1.059v4.122h2.027v.875Z"/><path class="cls-2" d="M210.325,167.427a1.971,1.971,0,0,1-1.442-.51,1.927,1.927,0,0,1-.52-1.441,2.123,2.123,0,0,1,.481-1.486,1.712,1.712,0,0,1,1.328-.524,1.681,1.681,0,0,1,1.261.461,1.743,1.743,0,0,1,.451,1.275v.506H209.42a1,1,0,0,0,.263.693.927.927,0,0,0,.69.25,2.868,2.868,0,0,0,.654-.072,3.337,3.337,0,0,0,.642-.228v.806a2.468,2.468,0,0,1-.585.2A3.709,3.709,0,0,1,210.325,167.427Zm-.146-3.22a.661.661,0,0,0-.52.21.97.97,0,0,0-.215.6h1.462a.863.863,0,0,0-.2-.6A.683.683,0,0,0,210.179,164.207Z"/><path class="cls-2" d="M213.641,167.358l-1.456-3.821h1.091l.738,2.177a3.855,3.855,0,0,1,.153.783h.021a3.348,3.348,0,0,1,.154-.783l.734-2.177h1.091l-1.456,3.821Z"/><path class="cls-2" d="M218.444,167.427a1.97,1.97,0,0,1-1.443-.51,1.923,1.923,0,0,1-.519-1.441,2.123,2.123,0,0,1,.48-1.486,1.71,1.71,0,0,1,1.327-.524,1.684,1.684,0,0,1,1.262.461A1.743,1.743,0,0,1,220,165.2v.506h-2.465a1,1,0,0,0,.264.693.927.927,0,0,0,.69.25,2.86,2.86,0,0,0,.653-.072,3.29,3.29,0,0,0,.642-.228v.806a2.46,2.46,0,0,1-.584.2A3.72,3.72,0,0,1,218.444,167.427Zm-.148-3.22a.661.661,0,0,0-.519.21.97.97,0,0,0-.215.6h1.463a.873.873,0,0,0-.2-.6A.68.68,0,0,0,218.3,164.207Z"/><path class="cls-2" d="M221.892,167.358H220.85V162.04h1.042Z"/><path class="cls-2" d="M228.03,167.358h-3.493v-.734l1.255-1.269q.556-.57.728-.791a1.722,1.722,0,0,0,.246-.409,1.019,1.019,0,0,0,.075-.388.567.567,0,0,0-.166-.449.646.646,0,0,0-.442-.147,1.27,1.27,0,0,0-.564.134,2.927,2.927,0,0,0-.571.38l-.574-.681a3.671,3.671,0,0,1,.612-.444,2.23,2.23,0,0,1,.529-.2,2.709,2.709,0,0,1,.643-.069,1.915,1.915,0,0,1,.827.17,1.329,1.329,0,0,1,.558.478,1.288,1.288,0,0,1,.2.706,1.724,1.724,0,0,1-.122.647,2.465,2.465,0,0,1-.376.62,9.135,9.135,0,0,1-.9.906l-.642.6v.048h2.176Z"/><path class="cls-2" d="M230.352,165.868v-.786h2.939v.786Z"/><path class="cls-2" d="M240.086,162.361V165.6a1.864,1.864,0,0,1-.248.97,1.6,1.6,0,0,1-.716.639,2.546,2.546,0,0,1-1.107.223,2.12,2.12,0,0,1-1.5-.494,1.75,1.75,0,0,1-.533-1.352v-3.22h1.055v3.06a1.284,1.284,0,0,0,.233.848.969.969,0,0,0,.769.269.949.949,0,0,0,.754-.271,1.3,1.3,0,0,0,.233-.854v-3.052Z"/><path class="cls-2" d="M244.755,167.358h-1.043v-2.232a1.081,1.081,0,0,0-.146-.62.536.536,0,0,0-.469-.206.7.7,0,0,0-.632.292,1.807,1.807,0,0,0-.195.969v1.8h-1.042v-3.821h.8l.14.489h.058a1.1,1.1,0,0,1,.48-.419,1.645,1.645,0,0,1,.7-.141,1.335,1.335,0,0,1,1.011.36,1.442,1.442,0,0,1,.346,1.04Z"/><path class="cls-2" d="M247.438,166.6a2.253,2.253,0,0,0,.656-.12v.776a2.358,2.358,0,0,1-.957.174,1.167,1.167,0,0,1-.91-.317,1.371,1.371,0,0,1-.286-.948v-1.843h-.5v-.44l.574-.349.3-.806h.667v.813h1.069v.782h-1.069v1.843a.4.4,0,0,0,.125.328A.488.488,0,0,0,247.438,166.6Z"/><path class="cls-2" d="M250.6,167.427a1.97,1.97,0,0,1-1.442-.51,1.927,1.927,0,0,1-.52-1.441,2.123,2.123,0,0,1,.48-1.486,1.715,1.715,0,0,1,1.329-.524,1.677,1.677,0,0,1,1.26.461,1.743,1.743,0,0,1,.451,1.275v.506h-2.463a.994.994,0,0,0,.262.693.929.929,0,0,0,.691.25,2.86,2.86,0,0,0,.653-.072,3.345,3.345,0,0,0,.643-.228v.806a2.484,2.484,0,0,1-.585.2A3.709,3.709,0,0,1,250.6,167.427Zm-.147-3.22a.66.66,0,0,0-.519.21.976.976,0,0,0-.216.6h1.463a.868.868,0,0,0-.2-.6A.685.685,0,0,0,250.449,164.207Z"/><path class="cls-2" d="M255.135,163.466a1.714,1.714,0,0,1,.352.03l-.079.978a1.174,1.174,0,0,0-.307-.035,1.1,1.1,0,0,0-.778.257.927.927,0,0,0-.278.717v1.945H253v-3.821h.79l.153.643H254a1.439,1.439,0,0,1,.48-.518A1.187,1.187,0,0,1,255.135,163.466Z"/><path class="cls-2" d="M257.183,165.28l.454-.581,1.07-1.162h1.176l-1.518,1.657,1.61,2.164h-1.2l-1.1-1.548-.447.359v1.189h-1.043V162.04h1.043v2.372l-.055.868Z"/><path class="cls-2" d="M262.948,167.358l-.2-.519h-.027a1.559,1.559,0,0,1-.542.46,1.761,1.761,0,0,1-.727.128,1.174,1.174,0,0,1-.866-.315,1.207,1.207,0,0,1-.316-.895,1.008,1.008,0,0,1,.426-.9,2.472,2.472,0,0,1,1.283-.319l.663-.021v-.167a.52.52,0,0,0-.6-.581,2.7,2.7,0,0,0-1.076.277l-.346-.7a3.1,3.1,0,0,1,1.463-.346,1.821,1.821,0,0,1,1.18.336,1.237,1.237,0,0,1,.41,1.018v2.546Zm-.307-1.77-.4.014a1.274,1.274,0,0,0-.676.164.515.515,0,0,0-.222.458c0,.294.168.441.506.441a.8.8,0,0,0,.579-.209.731.731,0,0,0,.217-.554Z"/><path class="cls-2" d="M266.36,166.6a2.253,2.253,0,0,0,.656-.12v.776a2.358,2.358,0,0,1-.957.174,1.167,1.167,0,0,1-.91-.317,1.371,1.371,0,0,1-.287-.948v-1.843h-.5v-.44l.575-.349.3-.806h.667v.813h1.07v.782H265.9v1.843a.4.4,0,0,0,.125.328A.49.49,0,0,0,266.36,166.6Z"/><path class="cls-2" d="M269.518,167.427a1.974,1.974,0,0,1-1.443-.51,1.931,1.931,0,0,1-.519-1.441,2.123,2.123,0,0,1,.48-1.486,1.714,1.714,0,0,1,1.328-.524,1.681,1.681,0,0,1,1.261.461,1.743,1.743,0,0,1,.451,1.275v.506h-2.464a1,1,0,0,0,.263.693.929.929,0,0,0,.691.25,2.86,2.86,0,0,0,.653-.072,3.345,3.345,0,0,0,.643-.228v.806a2.484,2.484,0,0,1-.585.2A3.709,3.709,0,0,1,269.518,167.427Zm-.147-3.22a.66.66,0,0,0-.519.21.97.97,0,0,0-.216.6H270.1a.868.868,0,0,0-.2-.6A.685.685,0,0,0,269.371,164.207Z"/><path class="cls-2" d="M275.25,163.537v.53l-.6.154a1.045,1.045,0,0,1,.164.574,1.161,1.161,0,0,1-.429.959,1.865,1.865,0,0,1-1.192.343l-.187-.01-.154-.018a.347.347,0,0,0-.16.274c0,.15.191.226.574.226h.649a1.48,1.48,0,0,1,.958.27.962.962,0,0,1,.33.793,1.177,1.177,0,0,1-.558,1.039,2.914,2.914,0,0,1-1.605.369,2.23,2.23,0,0,1-1.222-.278.885.885,0,0,1-.422-.782.819.819,0,0,1,.215-.577,1.234,1.234,0,0,1,.632-.332.713.713,0,0,1-.28-.223.554.554,0,0,1,.007-.7,1.5,1.5,0,0,1,.366-.285,1.026,1.026,0,0,1-.477-.417,1.262,1.262,0,0,1-.176-.677,1.187,1.187,0,0,1,.407-.966,1.749,1.749,0,0,1,1.162-.342,3.033,3.033,0,0,1,.381.028c.146.02.241.034.282.043ZM272.3,167.9a.378.378,0,0,0,.207.339,1.138,1.138,0,0,0,.579.123,2.047,2.047,0,0,0,.879-.154.466.466,0,0,0,.317-.42.3.3,0,0,0-.187-.3,1.556,1.556,0,0,0-.581-.082h-.54a.82.82,0,0,0-.481.135A.416.416,0,0,0,272.3,167.9Zm.38-3.11a.782.782,0,0,0,.141.492.516.516,0,0,0,.433.182.507.507,0,0,0,.431-.182.8.8,0,0,0,.136-.492q0-.69-.567-.69T272.68,164.788Z"/><path class="cls-2" d="M279.352,165.44a2.052,2.052,0,0,1-.492,1.46,1.789,1.789,0,0,1-1.372.527,1.913,1.913,0,0,1-.97-.241,1.606,1.606,0,0,1-.646-.693,2.33,2.33,0,0,1-.225-1.053,2.043,2.043,0,0,1,.488-1.455,1.8,1.8,0,0,1,1.374-.519,1.935,1.935,0,0,1,.971.238,1.6,1.6,0,0,1,.646.688A2.292,2.292,0,0,1,279.352,165.44Zm-2.643,0a1.608,1.608,0,0,0,.187.859.666.666,0,0,0,.606.29.658.658,0,0,0,.6-.288,1.642,1.642,0,0,0,.182-.861,1.575,1.575,0,0,0-.184-.85.785.785,0,0,0-1.207,0A1.578,1.578,0,0,0,276.709,165.44Z"/><path class="cls-2" d="M282.346,163.466a1.7,1.7,0,0,1,.351.03l-.078.978a1.185,1.185,0,0,0-.307-.035,1.1,1.1,0,0,0-.778.257.924.924,0,0,0-.279.717v1.945h-1.042v-3.821H281l.154.643h.051a1.451,1.451,0,0,1,.481-.518A1.185,1.185,0,0,1,282.346,163.466Z"/><path class="cls-2" d="M283.347,162.55q0-.51.567-.51t.568.51a.5.5,0,0,1-.142.377.6.6,0,0,1-.426.135C283.536,163.062,283.347,162.892,283.347,162.55Zm1.087,4.808h-1.042v-3.821h1.042Z"/><path class="cls-2" d="M287.257,167.427a1.97,1.97,0,0,1-1.442-.51,1.927,1.927,0,0,1-.52-1.441,2.119,2.119,0,0,1,.481-1.486,1.711,1.711,0,0,1,1.328-.524,1.677,1.677,0,0,1,1.26.461,1.743,1.743,0,0,1,.452,1.275v.506h-2.464a.994.994,0,0,0,.262.693.931.931,0,0,0,.691.25,2.86,2.86,0,0,0,.653-.072,3.345,3.345,0,0,0,.643-.228v.806a2.484,2.484,0,0,1-.585.2A3.709,3.709,0,0,1,287.257,167.427Zm-.146-3.22a.661.661,0,0,0-.52.21.976.976,0,0,0-.216.6h1.463a.868.868,0,0,0-.2-.6A.684.684,0,0,0,287.111,164.207Z"/><path class="cls-2" d="M3.663,41.358l-.687-2.2q-.065-.2-.242-.916H2.706q-.136.6-.239.922l-.708,2.191H1.1L.081,37.612h.6q.363,1.413.552,2.151a8.747,8.747,0,0,1,.217.994h.027c.025-.13.066-.3.121-.5s.1-.37.146-.49l.687-2.151h.615l.67,2.151a7.21,7.21,0,0,1,.26.987H4c.01-.082.034-.208.074-.38s.277-1.09.712-2.758h.588L4.337,41.358Z"/><path class="cls-2" d="M9.108,41.358l-.687-2.2q-.064-.2-.243-.916H8.151q-.136.6-.239.922L7.2,41.358H6.548L5.526,37.612h.6q.361,1.413.552,2.151a8.747,8.747,0,0,1,.217.994h.027c.025-.13.066-.3.121-.5s.1-.37.146-.49l.687-2.151h.615l.67,2.151a7.359,7.359,0,0,1,.26.987h.027a3.654,3.654,0,0,1,.074-.38q.058-.255.712-2.758h.588L9.781,41.358Z"/><path class="cls-2" d="M14.553,41.358l-.687-2.2c-.044-.135-.124-.44-.243-.916H13.6q-.136.6-.239.922l-.708,2.191h-.656l-1.022-3.746h.6q.361,1.413.552,2.151a8.747,8.747,0,0,1,.217.994h.027q.037-.195.121-.5c.056-.206.1-.37.146-.49l.687-2.151h.615l.67,2.151a7.359,7.359,0,0,1,.26.987h.027a3.654,3.654,0,0,1,.074-.38q.058-.255.712-2.758h.588l-1.036,3.746Z"/><path class="cls-2" d="M16.857,41a.509.509,0,0,1,.1-.347.376.376,0,0,1,.3-.118.406.406,0,0,1,.31.118.5.5,0,0,1,.11.347.479.479,0,0,1-.112.342.448.448,0,0,1-.6.012A.47.47,0,0,1,16.857,41Z"/><path class="cls-2" d="M20.011,40.958a1.954,1.954,0,0,0,.291-.021,1.912,1.912,0,0,0,.222-.047v.434a1.006,1.006,0,0,1-.271.073,1.99,1.99,0,0,1-.324.03q-1.086,0-1.087-1.145V38.054h-.536V37.78l.536-.236.24-.8h.328v.868H20.5v.442H19.41v2.2a.764.764,0,0,0,.16.519A.558.558,0,0,0,20.011,40.958Z"/><path class="cls-2" d="M22.855,41.427a1.722,1.722,0,0,1-1.311-.506,1.959,1.959,0,0,1-.48-1.4,2.176,2.176,0,0,1,.446-1.44,1.484,1.484,0,0,1,1.2-.533,1.411,1.411,0,0,1,1.114.463,1.773,1.773,0,0,1,.411,1.222v.359H21.652a1.482,1.482,0,0,0,.334,1,1.15,1.15,0,0,0,.89.342,3.026,3.026,0,0,0,1.2-.252v.506a3,3,0,0,1-.569.185A3.169,3.169,0,0,1,22.855,41.427ZM22.7,38.019a.927.927,0,0,0-.719.294,1.348,1.348,0,0,0-.316.813h1.958a1.243,1.243,0,0,0-.239-.821A.841.841,0,0,0,22.7,38.019Z"/><path class="cls-2" d="M27.616,40.337a.94.94,0,0,1-.389.807,1.842,1.842,0,0,1-1.094.283,2.356,2.356,0,0,1-1.162-.237v-.525a2.854,2.854,0,0,0,.579.215,2.4,2.4,0,0,0,.6.078,1.345,1.345,0,0,0,.683-.142.487.487,0,0,0,.05-.806,2.955,2.955,0,0,0-.74-.367,4.111,4.111,0,0,1-.744-.34,1.029,1.029,0,0,1-.328-.33.87.87,0,0,1-.107-.441.841.841,0,0,1,.372-.723,1.734,1.734,0,0,1,1.022-.265,2.994,2.994,0,0,1,1.183.246l-.2.461a2.733,2.733,0,0,0-1.022-.232,1.175,1.175,0,0,0-.608.127.388.388,0,0,0-.2.348.421.421,0,0,0,.077.257.759.759,0,0,0,.247.2,5.537,5.537,0,0,0,.657.277,2.469,2.469,0,0,1,.9.489A.865.865,0,0,1,27.616,40.337Z"/><path class="cls-2" d="M29.749,40.958a1.973,1.973,0,0,0,.291-.021,1.912,1.912,0,0,0,.222-.047v.434a1.015,1.015,0,0,1-.272.073,1.979,1.979,0,0,1-.323.03q-1.086,0-1.087-1.145V38.054h-.536V37.78l.536-.236.24-.8h.328v.868h1.087v.442H29.148v2.2a.759.759,0,0,0,.16.519A.558.558,0,0,0,29.749,40.958Z"/><path class="cls-2" d="M30.928,41a.509.509,0,0,1,.105-.347.376.376,0,0,1,.3-.118.4.4,0,0,1,.309.118.49.49,0,0,1,.111.347.475.475,0,0,1-.113.342.4.4,0,0,1-.307.12.4.4,0,0,1-.289-.108A.466.466,0,0,1,30.928,41Z"/><path class="cls-2" d="M34.37,41.427a1.6,1.6,0,0,1-1.259-.5,2.061,2.061,0,0,1-.446-1.417,2.126,2.126,0,0,1,.452-1.452,1.634,1.634,0,0,1,1.291-.513,2.481,2.481,0,0,1,.54.059,1.776,1.776,0,0,1,.424.136l-.175.482a2.668,2.668,0,0,0-.41-.125,1.774,1.774,0,0,0-.393-.05q-1.141,0-1.141,1.457a1.732,1.732,0,0,0,.278,1.059.97.97,0,0,0,.826.369,2.512,2.512,0,0,0,.96-.2v.5A2.03,2.03,0,0,1,34.37,41.427Z"/><path class="cls-2" d="M38.769,41.358V38.935a.979.979,0,0,0-.208-.684.851.851,0,0,0-.653-.225,1.07,1.07,0,0,0-.863.321,1.628,1.628,0,0,0-.272,1.052v1.959h-.567V36.04h.567v1.609a3.56,3.56,0,0,1-.027.483h.034a1.158,1.158,0,0,1,.477-.426,1.557,1.557,0,0,1,.706-.155,1.442,1.442,0,0,1,1.03.326,1.375,1.375,0,0,1,.344,1.038v2.443Z"/><path class="cls-2" d="M42.4,36.361l-1.863,5h-.567l1.863-5Z"/><path class="cls-2" d="M46.3,41.358l-.622-1.589h-2l-.615,1.589h-.588l1.975-5.017h.489L46.9,41.358Zm-.8-2.112L44.915,37.7q-.112-.294-.233-.721a6.576,6.576,0,0,1-.215.721l-.588,1.548Z"/><path class="cls-2" d="M49.4,36.361l-1.863,5h-.567l1.863-5Z"/><rect class="cls-1" x="52.524" y="53.5" width="133.063" height="23"/><path class="cls-2" d="M98.142,68.443H96.779V63.152H95.035V62.019h4.851v1.133H98.142Z"/><path class="cls-2" d="M105.341,68.443H104V65.574q0-1.064-.791-1.064a.9.9,0,0,0-.813.383,2.332,2.332,0,0,0-.251,1.239v2.311h-1.34V61.605h1.34V63q0,.164-.031.766l-.03.394h.07a1.555,1.555,0,0,1,1.424-.72,1.744,1.744,0,0,1,1.314.466,1.851,1.851,0,0,1,.448,1.336Z"/><path class="cls-2" d="M108.98,68.531a2.536,2.536,0,0,1-1.854-.654,2.479,2.479,0,0,1-.668-1.856,2.726,2.726,0,0,1,.617-1.909,2.2,2.2,0,0,1,1.707-.674,2.166,2.166,0,0,1,1.622.593,2.246,2.246,0,0,1,.58,1.639v.65h-3.168a1.287,1.287,0,0,0,.338.893,1.19,1.19,0,0,0,.888.32,3.657,3.657,0,0,0,.839-.092,4.082,4.082,0,0,0,.826-.3v1.038a3.063,3.063,0,0,1-.751.261A4.681,4.681,0,0,1,108.98,68.531Zm-.189-4.139a.847.847,0,0,0-.668.27,1.255,1.255,0,0,0-.277.767h1.881a1.118,1.118,0,0,0-.259-.767A.876.876,0,0,0,108.791,64.392Z"/><path class="cls-2" d="M116.518,68.443h-1.34V65.574a1.453,1.453,0,0,0-.178-.8.626.626,0,0,0-.56-.266.812.812,0,0,0-.747.379,2.469,2.469,0,0,0-.233,1.243v2.311h-1.341V63.53h1.024l.18.628h.075a1.375,1.375,0,0,1,.571-.529,1.861,1.861,0,0,1,.857-.191,1.544,1.544,0,0,1,1.494.72h.119a1.328,1.328,0,0,1,.583-.531,1.937,1.937,0,0,1,.867-.189,1.717,1.717,0,0,1,1.264.428,1.882,1.882,0,0,1,.428,1.374v3.2h-1.344V65.574a1.453,1.453,0,0,0-.178-.8.628.628,0,0,0-.561-.266.839.839,0,0,0-.736.351,2.01,2.01,0,0,0-.244,1.118Z"/><path class="cls-2" d="M124.122,68.443l-.26-.668h-.035a1.962,1.962,0,0,1-.7.591,2.233,2.233,0,0,1-.934.165,1.511,1.511,0,0,1-1.114-.4,1.553,1.553,0,0,1-.407-1.151,1.3,1.3,0,0,1,.547-1.154,3.177,3.177,0,0,1,1.651-.411l.852-.026V65.17a.669.669,0,0,0-.764-.748,3.494,3.494,0,0,0-1.385.356l-.444-.905a4,4,0,0,1,1.881-.443,2.346,2.346,0,0,1,1.516.429,1.6,1.6,0,0,1,.528,1.311v3.273Zm-.4-2.276-.518.018a1.65,1.65,0,0,0-.87.211.66.66,0,0,0-.286.588q0,.567.65.567a1.028,1.028,0,0,0,.745-.268.942.942,0,0,0,.279-.712Z"/><path class="cls-2" d="M132.9,68.443l-.466-1.529h-2.342l-.466,1.529h-1.467l2.267-6.451h1.666l2.276,6.451Zm-.791-2.672q-.645-2.078-.727-2.351c-.055-.181-.093-.324-.117-.43q-.144.563-.83,2.781Z"/><path class="cls-2" d="M134.922,67.814a.734.734,0,0,1,.2-.557.8.8,0,0,1,.575-.189.778.778,0,0,1,.565.194.853.853,0,0,1,0,1.1.767.767,0,0,1-.563.2.785.785,0,0,1-.571-.2A.729.729,0,0,1,134.922,67.814Z"/><path class="cls-2" d="M141.752,68.443l-.466-1.529h-2.342l-.466,1.529H137.01l2.268-6.451h1.666l2.276,6.451Zm-.791-2.672q-.647-2.078-.727-2.351c-.055-.181-.093-.324-.117-.43q-.144.563-.83,2.781Z"/><rect class="cls-3" x="52.524" y="53.5" width="133.063" height="23"/><path class="cls-2" d="M54.684,89.356,54,87.159q-.064-.2-.242-.916h-.028q-.136.6-.239.922l-.708,2.191h-.656L51.1,85.61h.6q.363,1.413.552,2.151a8.747,8.747,0,0,1,.217.994h.027c.025-.13.066-.3.121-.5s.105-.37.146-.49l.687-2.151h.615l.67,2.151a7.21,7.21,0,0,1,.26.987h.027c.01-.082.034-.208.074-.38s.277-1.09.712-2.758h.588l-1.035,3.746Z"/><path class="cls-2" d="M60.129,89.356l-.687-2.2q-.065-.2-.243-.916h-.027q-.136.6-.239.922l-.708,2.191h-.656L56.547,85.61h.6q.361,1.413.552,2.151a8.747,8.747,0,0,1,.217.994h.027c.025-.13.066-.3.121-.5s.105-.37.146-.49l.687-2.151h.615l.67,2.151a7.359,7.359,0,0,1,.26.987h.027a3.654,3.654,0,0,1,.074-.38q.059-.255.712-2.758h.588L60.8,89.356Z"/><path class="cls-2" d="M65.574,89.356l-.687-2.2c-.044-.135-.124-.44-.243-.916h-.027q-.137.6-.239.922l-.708,2.191h-.656L61.992,85.61h.6q.361,1.413.552,2.151a8.747,8.747,0,0,1,.217.994h.027q.038-.195.121-.5c.056-.206.105-.37.146-.49l.687-2.151h.615l.67,2.151a7.359,7.359,0,0,1,.26.987h.027a3.654,3.654,0,0,1,.074-.38q.059-.255.712-2.758h.588l-1.036,3.746Z"/><path class="cls-2" d="M67.878,88.994a.509.509,0,0,1,.1-.347.376.376,0,0,1,.3-.118.406.406,0,0,1,.31.118.5.5,0,0,1,.11.347.479.479,0,0,1-.112.342.448.448,0,0,1-.6.012A.47.47,0,0,1,67.878,88.994Z"/><path class="cls-2" d="M71.032,88.956a1.954,1.954,0,0,0,.291-.021,1.912,1.912,0,0,0,.222-.047v.434a1.039,1.039,0,0,1-.271.074,2.1,2.1,0,0,1-.324.029q-1.086,0-1.087-1.145V86.052h-.536v-.274l.536-.236.24-.8h.328v.868h1.087v.442H70.431v2.2a.764.764,0,0,0,.16.519A.558.558,0,0,0,71.032,88.956Z"/><path class="cls-2" d="M73.876,89.425a1.722,1.722,0,0,1-1.311-.506,1.959,1.959,0,0,1-.48-1.4,2.176,2.176,0,0,1,.446-1.44,1.484,1.484,0,0,1,1.2-.533,1.411,1.411,0,0,1,1.114.463,1.774,1.774,0,0,1,.411,1.223v.358H72.673a1.482,1.482,0,0,0,.334,1,1.15,1.15,0,0,0,.89.342,3.026,3.026,0,0,0,1.2-.252v.506a3,3,0,0,1-.569.185A3.169,3.169,0,0,1,73.876,89.425Zm-.154-3.408a.924.924,0,0,0-.719.3,1.343,1.343,0,0,0-.316.812h1.958a1.243,1.243,0,0,0-.239-.821A.841.841,0,0,0,73.722,86.017Z"/><path class="cls-2" d="M78.637,88.335a.94.94,0,0,1-.389.807,1.842,1.842,0,0,1-1.094.283,2.356,2.356,0,0,1-1.162-.237v-.525a2.854,2.854,0,0,0,.579.215,2.4,2.4,0,0,0,.6.078,1.345,1.345,0,0,0,.683-.142.487.487,0,0,0,.05-.806,2.955,2.955,0,0,0-.74-.367,4.111,4.111,0,0,1-.744-.34,1.029,1.029,0,0,1-.328-.33.87.87,0,0,1-.107-.441.841.841,0,0,1,.372-.723,1.734,1.734,0,0,1,1.022-.265,2.994,2.994,0,0,1,1.183.246l-.2.461a2.733,2.733,0,0,0-1.022-.232,1.175,1.175,0,0,0-.608.127.389.389,0,0,0-.2.348.421.421,0,0,0,.077.257.759.759,0,0,0,.247.2,5.667,5.667,0,0,0,.657.278,2.455,2.455,0,0,1,.9.488A.865.865,0,0,1,78.637,88.335Z"/><path class="cls-2" d="M80.77,88.956a1.973,1.973,0,0,0,.291-.021,1.912,1.912,0,0,0,.222-.047v.434a1.048,1.048,0,0,1-.272.074,2.085,2.085,0,0,1-.323.029q-1.086,0-1.087-1.145V86.052h-.536v-.274l.536-.236.24-.8h.328v.868h1.087v.442H80.169v2.2a.759.759,0,0,0,.16.519A.558.558,0,0,0,80.77,88.956Z"/><path class="cls-2" d="M81.949,88.994a.509.509,0,0,1,.105-.347.376.376,0,0,1,.3-.118.4.4,0,0,1,.309.118.49.49,0,0,1,.111.347.475.475,0,0,1-.113.342.4.4,0,0,1-.307.12.4.4,0,0,1-.289-.108A.466.466,0,0,1,81.949,88.994Z"/><path class="cls-2" d="M85.391,89.425a1.6,1.6,0,0,1-1.259-.5,2.061,2.061,0,0,1-.446-1.417,2.126,2.126,0,0,1,.452-1.452,1.634,1.634,0,0,1,1.291-.513,2.544,2.544,0,0,1,.54.059,1.776,1.776,0,0,1,.424.136l-.175.482a2.668,2.668,0,0,0-.41-.125,1.835,1.835,0,0,0-.393-.05q-1.142,0-1.141,1.457a1.732,1.732,0,0,0,.278,1.059.97.97,0,0,0,.826.369,2.529,2.529,0,0,0,.96-.2v.5A2.03,2.03,0,0,1,85.391,89.425Z"/><path class="cls-2" d="M89.79,89.356V86.933a.979.979,0,0,0-.208-.684.851.851,0,0,0-.653-.225,1.07,1.07,0,0,0-.863.321,1.628,1.628,0,0,0-.272,1.052v1.959h-.567V84.038h.567v1.609a3.56,3.56,0,0,1-.027.483H87.8a1.158,1.158,0,0,1,.477-.426,1.557,1.557,0,0,1,.706-.155,1.442,1.442,0,0,1,1.03.326,1.375,1.375,0,0,1,.344,1.038v2.443Z"/><path class="cls-2" d="M93.42,84.359l-1.863,5H90.99l1.863-5Z"/><path class="cls-2" d="M97.32,89.356,96.7,87.767h-2l-.615,1.589h-.588l1.975-5.017h.489l1.966,5.017Zm-.8-2.112L95.936,85.7q-.113-.294-.233-.721a6.576,6.576,0,0,1-.215.721L94.9,87.244Z"/><path class="cls-2" d="M100.42,84.359l-1.863,5H97.99l1.863-5Z"/><path class="cls-2" d="M104.32,89.356l-.622-1.589h-2l-.615,1.589h-.588l1.975-5.017h.489l1.966,5.017Zm-.8-2.112-.581-1.548q-.113-.294-.233-.721a6.576,6.576,0,0,1-.215.721l-.588,1.548Z"/><path class="cls-2" d="M105.441,88.994a.509.509,0,0,1,.105-.347.375.375,0,0,1,.3-.118.4.4,0,0,1,.31.118.49.49,0,0,1,.111.347.48.48,0,0,1-.113.342.448.448,0,0,1-.6.012A.47.47,0,0,1,105.441,88.994Z"/><path class="cls-2" d="M109.949,89.356V86.933a.979.979,0,0,0-.208-.684.851.851,0,0,0-.653-.225,1.07,1.07,0,0,0-.863.321,1.628,1.628,0,0,0-.272,1.052v1.959h-.567V84.038h.567v1.609a3.56,3.56,0,0,1-.027.483h.034a1.165,1.165,0,0,1,.477-.426,1.56,1.56,0,0,1,.706-.155,1.441,1.441,0,0,1,1.03.326,1.371,1.371,0,0,1,.344,1.038v2.443Z"/><path class="cls-2" d="M112.892,88.956a1.963,1.963,0,0,0,.291-.021,1.912,1.912,0,0,0,.222-.047v.434a1.048,1.048,0,0,1-.272.074,2.085,2.085,0,0,1-.323.029q-1.086,0-1.087-1.145V86.052h-.536v-.274l.536-.236.24-.8h.328v.868h1.087v.442h-1.087v2.2a.759.759,0,0,0,.16.519A.558.558,0,0,0,112.892,88.956Z"/><path class="cls-2" d="M118.928,89.356V86.919a1.014,1.014,0,0,0-.191-.671.741.741,0,0,0-.595-.224.957.957,0,0,0-.782.3,1.444,1.444,0,0,0-.253.937v2.091h-.568V86.919a1.014,1.014,0,0,0-.191-.671.746.746,0,0,0-.6-.224.926.926,0,0,0-.781.32,1.722,1.722,0,0,0-.248,1.048v1.964h-.567V85.61h.461l.092.513h.028a1.093,1.093,0,0,1,.453-.427,1.372,1.372,0,0,1,.654-.154,1.113,1.113,0,0,1,1.148.636h.028a1.189,1.189,0,0,1,.485-.465,1.508,1.508,0,0,1,.725-.171,1.267,1.267,0,0,1,.952.326,1.468,1.468,0,0,1,.316,1.045v2.443Z"/><path class="cls-2" d="M121.232,89.356h-.567V84.038h.567Z"/><rect class="cls-1" x="52.524" y="107.5" width="133.063" height="23"/><path class="cls-2" d="M98.223,122.443H96.861v-5.291H95.116v-1.133h4.852v1.133H98.223Z"/><path class="cls-2" d="M105.423,122.443h-1.341v-2.869q0-1.064-.791-1.064a.9.9,0,0,0-.813.383,2.333,2.333,0,0,0-.25,1.239v2.311h-1.341v-6.838h1.341V117c0,.109-.011.364-.031.766l-.031.394h.071a1.553,1.553,0,0,1,1.423-.72,1.744,1.744,0,0,1,1.314.466,1.851,1.851,0,0,1,.449,1.336Z"/><path class="cls-2" d="M109.062,122.531a2.54,2.54,0,0,1-1.855-.654,2.483,2.483,0,0,1-.668-1.856,2.731,2.731,0,0,1,.617-1.909,2.2,2.2,0,0,1,1.708-.674,2.168,2.168,0,0,1,1.622.593,2.25,2.25,0,0,1,.58,1.639v.65H107.9a1.292,1.292,0,0,0,.339.893,1.186,1.186,0,0,0,.887.32,3.666,3.666,0,0,0,.84-.092,4.1,4.1,0,0,0,.826-.3v1.038a3.071,3.071,0,0,1-.752.261A4.671,4.671,0,0,1,109.062,122.531Zm-.189-4.139a.847.847,0,0,0-.668.27,1.249,1.249,0,0,0-.277.767h1.881a1.118,1.118,0,0,0-.26-.767A.872.872,0,0,0,108.873,118.392Z"/><path class="cls-2" d="M116.6,122.443h-1.341v-2.869a1.454,1.454,0,0,0-.177-.8.628.628,0,0,0-.561-.266.812.812,0,0,0-.747.379,2.479,2.479,0,0,0-.233,1.243v2.311H112.2V117.53h1.024l.18.628h.075a1.375,1.375,0,0,1,.571-.529,1.861,1.861,0,0,1,.857-.191,1.546,1.546,0,0,1,1.494.72h.119a1.326,1.326,0,0,1,.582-.531,1.942,1.942,0,0,1,.868-.189,1.713,1.713,0,0,1,1.263.428,1.882,1.882,0,0,1,.429,1.374v3.2h-1.345v-2.869a1.453,1.453,0,0,0-.178-.8.626.626,0,0,0-.56-.266.842.842,0,0,0-.737.351,2.011,2.011,0,0,0-.243,1.118Z"/><path class="cls-2" d="M124.2,122.443l-.259-.668h-.035a1.964,1.964,0,0,1-.7.591,2.232,2.232,0,0,1-.933.165,1.514,1.514,0,0,1-1.115-.4,1.552,1.552,0,0,1-.406-1.151,1.3,1.3,0,0,1,.547-1.154,3.173,3.173,0,0,1,1.65-.411l.853-.026v-.215a.669.669,0,0,0-.765-.748,3.49,3.49,0,0,0-1.384.356l-.444-.905a3.99,3.99,0,0,1,1.881-.443,2.35,2.35,0,0,1,1.516.429,1.594,1.594,0,0,1,.527,1.311v3.273Zm-.395-2.276-.519.018a1.656,1.656,0,0,0-.87.211.662.662,0,0,0-.286.588q0,.567.651.567a1.032,1.032,0,0,0,.745-.268.942.942,0,0,0,.279-.712Z"/><path class="cls-2" d="M132.977,122.443l-.466-1.529h-2.342l-.466,1.529h-1.468l2.268-6.451h1.665l2.277,6.451Zm-.791-2.672q-.647-2.078-.727-2.351c-.055-.181-.094-.324-.117-.43q-.145.563-.831,2.781Z"/><path class="cls-2" d="M135,121.814a.737.737,0,0,1,.2-.557.8.8,0,0,1,.576-.189.781.781,0,0,1,.565.194.853.853,0,0,1,0,1.1.768.768,0,0,1-.563.2.785.785,0,0,1-.571-.2A.729.729,0,0,1,135,121.814Z"/><path class="cls-2" d="M137.9,116.019h2a3.858,3.858,0,0,1,1.984.388,1.355,1.355,0,0,1,.618,1.238,1.569,1.569,0,0,1-.27.945,1.082,1.082,0,0,1-.719.443v.044a1.416,1.416,0,0,1,.881.51,1.659,1.659,0,0,1,.27.993,1.637,1.637,0,0,1-.635,1.371,2.746,2.746,0,0,1-1.725.492h-2.4Zm1.362,2.543h.791a1.451,1.451,0,0,0,.8-.17.643.643,0,0,0,.248-.568.567.567,0,0,0-.27-.529,1.737,1.737,0,0,0-.855-.16h-.716Zm0,1.083v1.673h.888a1.319,1.319,0,0,0,.83-.214.8.8,0,0,0,.268-.661q0-.8-1.142-.8Z"/><rect class="cls-3" x="52.524" y="107.5" width="133.063" height="23"/><path class="cls-2" d="M54.684,143.356l-.687-2.2q-.064-.2-.242-.916h-.028q-.136.6-.239.922l-.708,2.191h-.656L51.1,139.61h.6q.363,1.413.552,2.151a8.747,8.747,0,0,1,.217.994h.027c.025-.13.066-.3.121-.5s.105-.37.146-.49l.687-2.151h.615l.67,2.151a7.21,7.21,0,0,1,.26.987h.027c.01-.082.034-.208.074-.38s.277-1.09.712-2.758h.588l-1.035,3.746Z"/><path class="cls-2" d="M60.129,143.356l-.687-2.2q-.065-.2-.243-.916h-.027q-.136.6-.239.922l-.708,2.191h-.656l-1.022-3.746h.6q.361,1.413.552,2.151a8.747,8.747,0,0,1,.217.994h.027c.025-.13.066-.3.121-.5s.105-.37.146-.49l.687-2.151h.615l.67,2.151a7.359,7.359,0,0,1,.26.987h.027a3.654,3.654,0,0,1,.074-.38q.059-.255.712-2.758h.588L60.8,143.356Z"/><path class="cls-2" d="M65.574,143.356l-.687-2.2c-.044-.135-.124-.44-.243-.916h-.027q-.137.6-.239.922l-.708,2.191h-.656l-1.022-3.746h.6q.361,1.413.552,2.151a8.747,8.747,0,0,1,.217.994h.027q.038-.195.121-.5c.056-.206.105-.37.146-.49l.687-2.151h.615l.67,2.151a7.359,7.359,0,0,1,.26.987h.027a3.654,3.654,0,0,1,.074-.38q.059-.255.712-2.758h.588l-1.036,3.746Z"/><path class="cls-2" d="M67.878,142.994a.509.509,0,0,1,.1-.347.376.376,0,0,1,.3-.118.406.406,0,0,1,.31.118.5.5,0,0,1,.11.347.479.479,0,0,1-.112.342.448.448,0,0,1-.6.012A.47.47,0,0,1,67.878,142.994Z"/><path class="cls-2" d="M71.032,142.956a1.954,1.954,0,0,0,.291-.021,1.912,1.912,0,0,0,.222-.047v.434a1.039,1.039,0,0,1-.271.074,2.1,2.1,0,0,1-.324.029q-1.086,0-1.087-1.145v-2.228h-.536v-.274l.536-.236.24-.8h.328v.868h1.087v.442H70.431v2.2a.764.764,0,0,0,.16.519A.558.558,0,0,0,71.032,142.956Z"/><path class="cls-2" d="M73.876,143.425a1.722,1.722,0,0,1-1.311-.506,1.959,1.959,0,0,1-.48-1.4,2.176,2.176,0,0,1,.446-1.44,1.484,1.484,0,0,1,1.2-.533,1.411,1.411,0,0,1,1.114.463,1.774,1.774,0,0,1,.411,1.223v.358H72.673a1.482,1.482,0,0,0,.334,1,1.15,1.15,0,0,0,.89.342,3.026,3.026,0,0,0,1.2-.252v.506a3,3,0,0,1-.569.185A3.169,3.169,0,0,1,73.876,143.425Zm-.154-3.408a.924.924,0,0,0-.719.3,1.343,1.343,0,0,0-.316.812h1.958a1.243,1.243,0,0,0-.239-.821A.841.841,0,0,0,73.722,140.017Z"/><path class="cls-2" d="M78.637,142.335a.94.94,0,0,1-.389.807,1.842,1.842,0,0,1-1.094.283,2.356,2.356,0,0,1-1.162-.237v-.525a2.854,2.854,0,0,0,.579.215,2.4,2.4,0,0,0,.6.078,1.345,1.345,0,0,0,.683-.142.487.487,0,0,0,.05-.806,2.955,2.955,0,0,0-.74-.367,4.111,4.111,0,0,1-.744-.34,1.029,1.029,0,0,1-.328-.33.87.87,0,0,1-.107-.441.841.841,0,0,1,.372-.723,1.734,1.734,0,0,1,1.022-.265,2.994,2.994,0,0,1,1.183.246l-.2.461a2.733,2.733,0,0,0-1.022-.232,1.175,1.175,0,0,0-.608.127.389.389,0,0,0-.2.348.421.421,0,0,0,.077.257.759.759,0,0,0,.247.2,5.667,5.667,0,0,0,.657.278,2.455,2.455,0,0,1,.9.488A.865.865,0,0,1,78.637,142.335Z"/><path class="cls-2" d="M80.77,142.956a1.973,1.973,0,0,0,.291-.021,1.912,1.912,0,0,0,.222-.047v.434a1.048,1.048,0,0,1-.272.074,2.085,2.085,0,0,1-.323.029q-1.086,0-1.087-1.145v-2.228h-.536v-.274l.536-.236.24-.8h.328v.868h1.087v.442H80.169v2.2a.759.759,0,0,0,.16.519A.558.558,0,0,0,80.77,142.956Z"/><path class="cls-2" d="M81.949,142.994a.509.509,0,0,1,.105-.347.376.376,0,0,1,.3-.118.4.4,0,0,1,.309.118.49.49,0,0,1,.111.347.475.475,0,0,1-.113.342.4.4,0,0,1-.307.12.4.4,0,0,1-.289-.108A.466.466,0,0,1,81.949,142.994Z"/><path class="cls-2" d="M85.391,143.425a1.6,1.6,0,0,1-1.259-.5,2.061,2.061,0,0,1-.446-1.417,2.126,2.126,0,0,1,.452-1.452,1.634,1.634,0,0,1,1.291-.513,2.544,2.544,0,0,1,.54.059,1.776,1.776,0,0,1,.424.136l-.175.482a2.668,2.668,0,0,0-.41-.125,1.835,1.835,0,0,0-.393-.05q-1.142,0-1.141,1.457a1.732,1.732,0,0,0,.278,1.059.97.97,0,0,0,.826.369,2.529,2.529,0,0,0,.96-.2v.5A2.03,2.03,0,0,1,85.391,143.425Z"/><path class="cls-2" d="M89.79,143.356v-2.423a.979.979,0,0,0-.208-.684.851.851,0,0,0-.653-.225,1.07,1.07,0,0,0-.863.321,1.628,1.628,0,0,0-.272,1.052v1.959h-.567v-5.318h.567v1.609a3.56,3.56,0,0,1-.027.483H87.8a1.158,1.158,0,0,1,.477-.426,1.557,1.557,0,0,1,.706-.155,1.442,1.442,0,0,1,1.03.326,1.375,1.375,0,0,1,.344,1.038v2.443Z"/><path class="cls-2" d="M93.42,138.359l-1.863,5H90.99l1.863-5Z"/><path class="cls-2" d="M97.32,143.356l-.622-1.589h-2l-.615,1.589h-.588l1.975-5.017h.489l1.966,5.017Zm-.8-2.112-.581-1.548q-.113-.294-.233-.721a6.576,6.576,0,0,1-.215.721l-.588,1.548Z"/><path class="cls-2" d="M100.42,138.359l-1.863,5H97.99l1.863-5Z"/><path class="cls-2" d="M101.179,138.359h1.412a2.651,2.651,0,0,1,1.438.3,1.046,1.046,0,0,1,.445.94,1.086,1.086,0,0,1-.248.733,1.2,1.2,0,0,1-.723.374v.034q1.139.195,1.138,1.2a1.284,1.284,0,0,1-.453,1.045,1.924,1.924,0,0,1-1.266.376h-1.743Zm.581,2.14h.957a1.555,1.555,0,0,0,.885-.193.746.746,0,0,0,.27-.651.658.658,0,0,0-.3-.607,1.879,1.879,0,0,0-.957-.186h-.854Zm0,.492v1.869H102.8a1.49,1.49,0,0,0,.912-.233.866.866,0,0,0,.305-.733.777.777,0,0,0-.312-.684,1.672,1.672,0,0,0-.952-.219Z"/><path class="cls-2" d="M105.547,142.994a.509.509,0,0,1,.105-.347.374.374,0,0,1,.3-.118.4.4,0,0,1,.31.118.49.49,0,0,1,.111.347.48.48,0,0,1-.113.342.448.448,0,0,1-.6.012A.47.47,0,0,1,105.547,142.994Z"/><path class="cls-2" d="M110.055,143.356v-2.423a.979.979,0,0,0-.208-.684.851.851,0,0,0-.653-.225,1.07,1.07,0,0,0-.863.321,1.628,1.628,0,0,0-.272,1.052v1.959h-.567v-5.318h.567v1.609a3.56,3.56,0,0,1-.027.483h.034a1.165,1.165,0,0,1,.477-.426,1.56,1.56,0,0,1,.706-.155,1.442,1.442,0,0,1,1.03.326,1.375,1.375,0,0,1,.344,1.038v2.443Z"/><path class="cls-2" d="M113,142.956a1.973,1.973,0,0,0,.291-.021,1.912,1.912,0,0,0,.222-.047v.434a1.048,1.048,0,0,1-.272.074,2.085,2.085,0,0,1-.323.029q-1.086,0-1.087-1.145v-2.228h-.536v-.274l.536-.236.24-.8h.328v.868h1.087v.442H112.4v2.2a.759.759,0,0,0,.16.519A.558.558,0,0,0,113,142.956Z"/><path class="cls-2" d="M119.034,143.356v-2.437a1.014,1.014,0,0,0-.191-.671.741.741,0,0,0-.595-.224.957.957,0,0,0-.782.3,1.444,1.444,0,0,0-.253.937v2.091h-.568v-2.437a1.014,1.014,0,0,0-.191-.671.746.746,0,0,0-.6-.224.926.926,0,0,0-.781.32,1.722,1.722,0,0,0-.248,1.048v1.964h-.568V139.61h.462l.092.513h.028a1.093,1.093,0,0,1,.453-.427,1.372,1.372,0,0,1,.654-.154,1.113,1.113,0,0,1,1.148.636h.028a1.189,1.189,0,0,1,.485-.465,1.508,1.508,0,0,1,.725-.171,1.267,1.267,0,0,1,.952.326,1.468,1.468,0,0,1,.316,1.045v2.443Z"/><path class="cls-2" d="M121.338,143.356h-.567v-5.318h.567Z"/><rect class="cls-1" x="52.524" y="161.5" width="133.063" height="23"/><path class="cls-2" d="M81.748,170.019v4.157a2.4,2.4,0,0,1-.319,1.248,2.075,2.075,0,0,1-.921.822,3.279,3.279,0,0,1-1.423.285,2.727,2.727,0,0,1-1.925-.635,2.252,2.252,0,0,1-.686-1.738v-4.139h1.358v3.932a1.645,1.645,0,0,0,.3,1.09,1.241,1.241,0,0,0,.989.348,1.215,1.215,0,0,0,.969-.35,1.657,1.657,0,0,0,.3-1.1v-3.924Z"/><path class="cls-2" d="M87.8,176.443H86.455v-2.869a1.38,1.38,0,0,0-.189-.8.687.687,0,0,0-.6-.266.906.906,0,0,0-.813.376,2.333,2.333,0,0,0-.25,1.246v2.311H83.26V171.53h1.024l.181.628h.074a1.427,1.427,0,0,1,.618-.538,2.109,2.109,0,0,1,.894-.182,1.723,1.723,0,0,1,1.3.463,1.864,1.864,0,0,1,.444,1.339Z"/><path class="cls-2" d="M91.281,175.463a2.917,2.917,0,0,0,.844-.153v1a3,3,0,0,1-1.23.224,1.509,1.509,0,0,1-1.172-.406,1.774,1.774,0,0,1-.366-1.22v-2.368h-.642v-.567l.738-.449.387-1.037H90.7v1.046h1.375v1.007H90.7v2.368a.523.523,0,0,0,.16.422A.633.633,0,0,0,91.281,175.463Z"/><path class="cls-2" d="M95.378,176.531a2.536,2.536,0,0,1-1.854-.654,2.479,2.479,0,0,1-.668-1.856,2.726,2.726,0,0,1,.617-1.909,2.2,2.2,0,0,1,1.707-.674,2.166,2.166,0,0,1,1.622.593,2.246,2.246,0,0,1,.58,1.639v.65H94.214a1.287,1.287,0,0,0,.338.893,1.19,1.19,0,0,0,.888.32,3.657,3.657,0,0,0,.839-.092,4.082,4.082,0,0,0,.826-.3v1.038a3.063,3.063,0,0,1-.751.261A4.681,4.681,0,0,1,95.378,176.531Zm-.189-4.139a.847.847,0,0,0-.668.27,1.255,1.255,0,0,0-.277.767h1.881a1.118,1.118,0,0,0-.259-.767A.876.876,0,0,0,95.189,172.392Z"/><path class="cls-2" d="M101.259,171.438a2.123,2.123,0,0,1,.453.04l-.1,1.256a1.557,1.557,0,0,0-.4-.044,1.425,1.425,0,0,0-1,.33,1.191,1.191,0,0,0-.358.923v2.5h-1.34V171.53h1.015l.2.826H99.8a1.853,1.853,0,0,1,.617-.666A1.524,1.524,0,0,1,101.259,171.438Z"/><path class="cls-2" d="M103.927,173.771l.585-.747,1.375-1.494H107.4l-1.951,2.132,2.07,2.781h-1.547l-1.415-1.99-.576.461v1.529h-1.34v-6.838h1.34v3.05l-.07,1.116Z"/><path class="cls-2" d="M111.377,176.443l-.26-.668h-.035a1.956,1.956,0,0,1-.7.591,2.225,2.225,0,0,1-.933.165,1.511,1.511,0,0,1-1.114-.4,1.553,1.553,0,0,1-.407-1.151,1.3,1.3,0,0,1,.547-1.154,3.174,3.174,0,0,1,1.651-.411l.852-.026v-.215a.669.669,0,0,0-.765-.748,3.49,3.49,0,0,0-1.384.356l-.444-.905a4,4,0,0,1,1.881-.443,2.348,2.348,0,0,1,1.516.429,1.6,1.6,0,0,1,.528,1.311v3.273Zm-.4-2.276-.518.018a1.657,1.657,0,0,0-.871.211.661.661,0,0,0-.285.588q0,.567.65.567a1.028,1.028,0,0,0,.745-.268.942.942,0,0,0,.279-.712Z"/><path class="cls-2" d="M115.807,175.463a2.917,2.917,0,0,0,.844-.153v1a3,3,0,0,1-1.23.224,1.507,1.507,0,0,1-1.172-.406,1.774,1.774,0,0,1-.366-1.22v-2.368h-.642v-.567l.738-.449.387-1.037h.857v1.046H116.6v1.007h-1.375v2.368a.523.523,0,0,0,.16.422A.633.633,0,0,0,115.807,175.463Z"/><path class="cls-2" d="M119.9,176.531a2.54,2.54,0,0,1-1.855-.654,2.483,2.483,0,0,1-.667-1.856,2.726,2.726,0,0,1,.617-1.909,2.2,2.2,0,0,1,1.707-.674,2.166,2.166,0,0,1,1.622.593,2.246,2.246,0,0,1,.58,1.639v.65h-3.169a1.292,1.292,0,0,0,.339.893,1.19,1.19,0,0,0,.888.32,3.663,3.663,0,0,0,.839-.092,4.082,4.082,0,0,0,.826-.3v1.038a3.063,3.063,0,0,1-.751.261A4.681,4.681,0,0,1,119.9,176.531Zm-.189-4.139a.847.847,0,0,0-.668.27,1.255,1.255,0,0,0-.277.767h1.881a1.118,1.118,0,0,0-.259-.767A.876.876,0,0,0,119.715,172.392Z"/><path class="cls-2" d="M127.319,171.53v.681l-.77.2a1.338,1.338,0,0,1,.211.738,1.491,1.491,0,0,1-.551,1.233,2.386,2.386,0,0,1-1.532.442l-.241-.013-.2-.022a.447.447,0,0,0-.207.352c0,.193.247.289.739.289h.835a1.911,1.911,0,0,1,1.233.347,1.244,1.244,0,0,1,.423,1.02,1.513,1.513,0,0,1-.718,1.336,3.746,3.746,0,0,1-2.063.474,2.851,2.851,0,0,1-1.571-.358,1.136,1.136,0,0,1-.543-1,1.05,1.05,0,0,1,.277-.743,1.576,1.576,0,0,1,.813-.426.889.889,0,0,1-.361-.288.708.708,0,0,1,.009-.891,1.878,1.878,0,0,1,.47-.368,1.314,1.314,0,0,1-.612-.536,1.621,1.621,0,0,1-.227-.87,1.536,1.536,0,0,1,.523-1.244,2.268,2.268,0,0,1,1.494-.439,3.644,3.644,0,0,1,.49.038c.189.024.31.043.363.054Zm-3.793,5.608a.483.483,0,0,0,.266.434,1.456,1.456,0,0,0,.745.158,2.635,2.635,0,0,0,1.129-.2.6.6,0,0,0,.409-.541.385.385,0,0,0-.242-.382,1.986,1.986,0,0,0-.747-.105h-.694a1.046,1.046,0,0,0-.618.174A.534.534,0,0,0,123.526,177.138Zm.488-4a1,1,0,0,0,.182.632.661.661,0,0,0,.556.233.647.647,0,0,0,.554-.233,1.026,1.026,0,0,0,.176-.632q0-.888-.73-.888T124.014,173.139Z"/><path class="cls-2" d="M132.637,173.979a2.639,2.639,0,0,1-.633,1.875,2.291,2.291,0,0,1-1.762.677,2.468,2.468,0,0,1-1.248-.309,2.064,2.064,0,0,1-.831-.89,3,3,0,0,1-.29-1.353,2.633,2.633,0,0,1,.629-1.874,2.31,2.31,0,0,1,1.766-.667,2.478,2.478,0,0,1,1.248.308,2.046,2.046,0,0,1,.831.883A2.971,2.971,0,0,1,132.637,173.979Zm-3.4,0a2.055,2.055,0,0,0,.24,1.1.855.855,0,0,0,.779.374.841.841,0,0,0,.771-.372,2.083,2.083,0,0,0,.236-1.1,2.032,2.032,0,0,0-.237-1.1,1.011,1.011,0,0,0-1.552,0A2.029,2.029,0,0,0,129.24,173.979Z"/><path class="cls-2" d="M136.523,171.438a2.113,2.113,0,0,1,.452.04l-.1,1.256a1.544,1.544,0,0,0-.395-.044,1.424,1.424,0,0,0-1,.33,1.191,1.191,0,0,0-.358.923v2.5H133.78V171.53H134.8l.2.826h.066a1.856,1.856,0,0,1,.618-.666A1.524,1.524,0,0,1,136.523,171.438Z"/><path class="cls-2" d="M137.846,170.26q0-.654.73-.655t.729.655a.64.64,0,0,1-.182.486.771.771,0,0,1-.547.174C138.09,170.92,137.846,170.7,137.846,170.26Zm1.4,6.183H137.9V171.53h1.34Z"/><path class="cls-2" d="M142.91,176.531a2.54,2.54,0,0,1-1.855-.654,2.483,2.483,0,0,1-.668-1.856,2.727,2.727,0,0,1,.618-1.909,2.2,2.2,0,0,1,1.707-.674,2.168,2.168,0,0,1,1.622.593,2.25,2.25,0,0,1,.58,1.639v.65h-3.169a1.292,1.292,0,0,0,.339.893,1.189,1.189,0,0,0,.887.32,3.666,3.666,0,0,0,.84-.092,4.1,4.1,0,0,0,.826-.3v1.038a3.056,3.056,0,0,1-.752.261A4.664,4.664,0,0,1,142.91,176.531Zm-.189-4.139a.847.847,0,0,0-.668.27,1.249,1.249,0,0,0-.277.767h1.881a1.118,1.118,0,0,0-.259-.767A.876.876,0,0,0,142.721,172.392Z"/><path class="cls-2" d="M152.47,176.443,152,174.914h-2.342l-.466,1.529h-1.468L150,169.992h1.665l2.277,6.451Zm-.791-2.672q-.647-2.077-.727-2.351c-.055-.181-.093-.324-.117-.43q-.145.563-.83,2.781Z"/><path class="cls-2" d="M154.5,175.814a.734.734,0,0,1,.2-.557.8.8,0,0,1,.575-.189.781.781,0,0,1,.565.194.853.853,0,0,1,0,1.1.768.768,0,0,1-.563.2.785.785,0,0,1-.571-.2A.729.729,0,0,1,154.5,175.814Z"/><path class="cls-2" d="M160.123,171.061a1.388,1.388,0,0,0-1.191.577,2.691,2.691,0,0,0-.422,1.61q0,2.151,1.613,2.149a5.087,5.087,0,0,0,1.639-.338V176.2a4.528,4.528,0,0,1-1.767.33,2.693,2.693,0,0,1-2.144-.85,3.6,3.6,0,0,1-.743-2.441,3.989,3.989,0,0,1,.365-1.756,2.635,2.635,0,0,1,1.048-1.156,3.108,3.108,0,0,1,1.6-.4,4.321,4.321,0,0,1,1.881.453l-.44,1.107a7.1,7.1,0,0,0-.725-.3A2.16,2.16,0,0,0,160.123,171.061Z"/><rect class="cls-3" x="52.524" y="161.5" width="133.063" height="23"/><path class="cls-2" d="M54.684,197.356l-.687-2.2q-.064-.2-.242-.916h-.028q-.136.6-.239.922l-.708,2.191h-.656L51.1,193.61h.6q.363,1.413.552,2.151a8.747,8.747,0,0,1,.217.994h.027c.025-.13.066-.3.121-.5s.105-.37.146-.49l.687-2.151h.615l.67,2.151a7.21,7.21,0,0,1,.26.987h.027c.01-.082.034-.208.074-.38s.277-1.09.712-2.758h.588l-1.035,3.746Z"/><path class="cls-2" d="M60.129,197.356l-.687-2.2q-.065-.2-.243-.916h-.027q-.136.6-.239.922l-.708,2.191h-.656l-1.022-3.746h.6q.361,1.413.552,2.151a8.747,8.747,0,0,1,.217.994h.027c.025-.13.066-.3.121-.5s.105-.37.146-.49l.687-2.151h.615l.67,2.151a7.359,7.359,0,0,1,.26.987h.027a3.654,3.654,0,0,1,.074-.38q.059-.255.712-2.758h.588L60.8,197.356Z"/><path class="cls-2" d="M65.574,197.356l-.687-2.2c-.044-.135-.124-.44-.243-.916h-.027q-.137.6-.239.922l-.708,2.191h-.656l-1.022-3.746h.6q.361,1.413.552,2.151a8.747,8.747,0,0,1,.217.994h.027q.038-.195.121-.5c.056-.206.105-.37.146-.49l.687-2.151h.615l.67,2.151a7.359,7.359,0,0,1,.26.987h.027a3.654,3.654,0,0,1,.074-.38q.059-.255.712-2.758h.588l-1.036,3.746Z"/><path class="cls-2" d="M67.878,196.994a.509.509,0,0,1,.1-.347.376.376,0,0,1,.3-.118.406.406,0,0,1,.31.118.5.5,0,0,1,.11.347.479.479,0,0,1-.112.342.448.448,0,0,1-.6.012A.47.47,0,0,1,67.878,196.994Z"/><path class="cls-2" d="M71.032,196.956a1.954,1.954,0,0,0,.291-.021,1.912,1.912,0,0,0,.222-.047v.434a1.039,1.039,0,0,1-.271.074,2.1,2.1,0,0,1-.324.029q-1.086,0-1.087-1.145v-2.228h-.536v-.274l.536-.236.24-.8h.328v.868h1.087v.442H70.431v2.2a.764.764,0,0,0,.16.519A.558.558,0,0,0,71.032,196.956Z"/><path class="cls-2" d="M73.876,197.425a1.722,1.722,0,0,1-1.311-.506,1.959,1.959,0,0,1-.48-1.4,2.176,2.176,0,0,1,.446-1.44,1.484,1.484,0,0,1,1.2-.533,1.411,1.411,0,0,1,1.114.463,1.774,1.774,0,0,1,.411,1.223v.358H72.673a1.482,1.482,0,0,0,.334,1,1.15,1.15,0,0,0,.89.342,3.026,3.026,0,0,0,1.2-.252v.506a3,3,0,0,1-.569.185A3.169,3.169,0,0,1,73.876,197.425Zm-.154-3.408a.924.924,0,0,0-.719.3,1.343,1.343,0,0,0-.316.812h1.958a1.243,1.243,0,0,0-.239-.821A.841.841,0,0,0,73.722,194.017Z"/><path class="cls-2" d="M78.637,196.335a.94.94,0,0,1-.389.807,1.842,1.842,0,0,1-1.094.283,2.356,2.356,0,0,1-1.162-.237v-.525a2.854,2.854,0,0,0,.579.215,2.4,2.4,0,0,0,.6.078,1.345,1.345,0,0,0,.683-.142.487.487,0,0,0,.05-.806,2.955,2.955,0,0,0-.74-.367,4.111,4.111,0,0,1-.744-.34,1.029,1.029,0,0,1-.328-.33.87.87,0,0,1-.107-.441.841.841,0,0,1,.372-.723,1.734,1.734,0,0,1,1.022-.265,2.994,2.994,0,0,1,1.183.246l-.2.461a2.733,2.733,0,0,0-1.022-.232,1.175,1.175,0,0,0-.608.127.389.389,0,0,0-.2.348.421.421,0,0,0,.077.257.759.759,0,0,0,.247.2,5.667,5.667,0,0,0,.657.278,2.455,2.455,0,0,1,.9.488A.865.865,0,0,1,78.637,196.335Z"/><path class="cls-2" d="M80.77,196.956a1.973,1.973,0,0,0,.291-.021,1.912,1.912,0,0,0,.222-.047v.434a1.048,1.048,0,0,1-.272.074,2.085,2.085,0,0,1-.323.029q-1.086,0-1.087-1.145v-2.228h-.536v-.274l.536-.236.24-.8h.328v.868h1.087v.442H80.169v2.2a.759.759,0,0,0,.16.519A.558.558,0,0,0,80.77,196.956Z"/><path class="cls-2" d="M81.949,196.994a.509.509,0,0,1,.105-.347.376.376,0,0,1,.3-.118.4.4,0,0,1,.309.118.49.49,0,0,1,.111.347.475.475,0,0,1-.113.342.4.4,0,0,1-.307.12.4.4,0,0,1-.289-.108A.466.466,0,0,1,81.949,196.994Z"/><path class="cls-2" d="M85.391,197.425a1.6,1.6,0,0,1-1.259-.5,2.061,2.061,0,0,1-.446-1.417,2.126,2.126,0,0,1,.452-1.452,1.634,1.634,0,0,1,1.291-.513,2.544,2.544,0,0,1,.54.059,1.776,1.776,0,0,1,.424.136l-.175.482a2.668,2.668,0,0,0-.41-.125,1.835,1.835,0,0,0-.393-.05q-1.142,0-1.141,1.457a1.732,1.732,0,0,0,.278,1.059.97.97,0,0,0,.826.369,2.529,2.529,0,0,0,.96-.2v.5A2.03,2.03,0,0,1,85.391,197.425Z"/><path class="cls-2" d="M89.79,197.356v-2.423a.979.979,0,0,0-.208-.684.851.851,0,0,0-.653-.225,1.07,1.07,0,0,0-.863.321,1.628,1.628,0,0,0-.272,1.052v1.959h-.567v-5.318h.567v1.609a3.56,3.56,0,0,1-.027.483H87.8a1.158,1.158,0,0,1,.477-.426,1.557,1.557,0,0,1,.706-.155,1.442,1.442,0,0,1,1.03.326,1.375,1.375,0,0,1,.344,1.038v2.443Z"/><path class="cls-2" d="M93.42,192.359l-1.863,5H90.99l1.863-5Z"/><path class="cls-2" d="M97.32,197.356l-.622-1.589h-2l-.615,1.589h-.588l1.975-5.017h.489l1.966,5.017Zm-.8-2.112-.581-1.548q-.113-.294-.233-.721a6.576,6.576,0,0,1-.215.721l-.588,1.548Z"/><path class="cls-2" d="M100.42,192.359l-1.863,5H97.99l1.863-5Z"/><path class="cls-2" d="M103.319,192.808a1.635,1.635,0,0,0-1.3.547,2.216,2.216,0,0,0-.477,1.5,2.259,2.259,0,0,0,.46,1.516,1.635,1.635,0,0,0,1.311.535,4.5,4.5,0,0,0,1.193-.188v.508a3.65,3.65,0,0,1-1.282.2,2.171,2.171,0,0,1-1.7-.67,2.757,2.757,0,0,1-.6-1.9,3,3,0,0,1,.289-1.354,2.068,2.068,0,0,1,.834-.894,2.518,2.518,0,0,1,1.283-.315,3.1,3.1,0,0,1,1.374.287l-.246.5A2.653,2.653,0,0,0,103.319,192.808Z"/><path class="cls-2" d="M107.406,192.359l-1.862,5h-.568l1.863-5Z"/><polyline class="cls-3" points="35.516 48 35.516 64.5 51.024 64.5"/><polyline class="cls-3" points="35.516 60 35.516 118.5 51.024 118.5"/><polyline class="cls-3" points="35.516 114 35.516 172.5 51.024 172.5"/><rect class="cls-1" x="103.547" y="209.5" width="82.039" height="23"/><path class="cls-2" d="M119.458,224.443H118.1v-5.291h-1.745v-1.133H121.2v1.133h-1.745Z"/><path class="cls-2" d="M126.657,224.443h-1.34v-2.869q0-1.064-.791-1.064a.9.9,0,0,0-.813.383,2.333,2.333,0,0,0-.25,1.239v2.311h-1.341v-6.838h1.341V219c0,.109-.011.364-.031.766l-.031.394h.07a1.556,1.556,0,0,1,1.424-.72,1.744,1.744,0,0,1,1.314.466,1.851,1.851,0,0,1,.448,1.336Z"/><path class="cls-2" d="M130.3,224.531a2.538,2.538,0,0,1-1.855-.654,2.483,2.483,0,0,1-.668-1.856,2.731,2.731,0,0,1,.617-1.909,2.2,2.2,0,0,1,1.708-.674,2.164,2.164,0,0,1,1.621.593,2.246,2.246,0,0,1,.58,1.639v.65h-3.168a1.292,1.292,0,0,0,.338.893,1.19,1.19,0,0,0,.888.32,3.651,3.651,0,0,0,.839-.092,4.09,4.09,0,0,0,.827-.3v1.038a3.071,3.071,0,0,1-.752.261A4.671,4.671,0,0,1,130.3,224.531Zm-.189-4.139a.846.846,0,0,0-.668.27,1.249,1.249,0,0,0-.277.767h1.881a1.118,1.118,0,0,0-.26-.767A.873.873,0,0,0,130.108,220.392Z"/><path class="cls-2" d="M137.835,224.443h-1.341v-2.869a1.454,1.454,0,0,0-.177-.8.629.629,0,0,0-.561-.266.812.812,0,0,0-.747.379,2.479,2.479,0,0,0-.233,1.243v2.311h-1.34V219.53h1.024l.18.628h.075a1.369,1.369,0,0,1,.571-.529,1.858,1.858,0,0,1,.857-.191,1.546,1.546,0,0,1,1.494.72h.119a1.32,1.32,0,0,1,.582-.531,1.939,1.939,0,0,1,.868-.189,1.715,1.715,0,0,1,1.263.428,1.882,1.882,0,0,1,.429,1.374v3.2h-1.345v-2.869a1.453,1.453,0,0,0-.178-.8.626.626,0,0,0-.56-.266.841.841,0,0,0-.737.351,2.011,2.011,0,0,0-.243,1.118Z"/><path class="cls-2" d="M145.438,224.443l-.259-.668h-.035a1.964,1.964,0,0,1-.7.591,2.233,2.233,0,0,1-.934.165,1.513,1.513,0,0,1-1.114-.4,1.552,1.552,0,0,1-.406-1.151,1.3,1.3,0,0,1,.547-1.154,3.173,3.173,0,0,1,1.65-.411l.853-.026v-.215a.669.669,0,0,0-.765-.748,3.486,3.486,0,0,0-1.384.356l-.444-.905a3.99,3.99,0,0,1,1.881-.443,2.35,2.35,0,0,1,1.516.429,1.6,1.6,0,0,1,.527,1.311v3.273Zm-.395-2.276-.519.018a1.65,1.65,0,0,0-.87.211.662.662,0,0,0-.286.588q0,.567.651.567a1.027,1.027,0,0,0,.744-.268.943.943,0,0,0,.28-.712Z"/><path class="cls-2" d="M154.22,224.443l-.465-1.529h-2.343l-.466,1.529h-1.467l2.267-6.451h1.666l2.276,6.451Zm-.791-2.672q-.645-2.077-.727-2.351c-.054-.181-.093-.324-.116-.43q-.146.563-.831,2.781Z"/><path class="cls-2" d="M156.247,223.814a.734.734,0,0,1,.2-.557.8.8,0,0,1,.576-.189.781.781,0,0,1,.565.194.855.855,0,0,1,0,1.1.766.766,0,0,1-.562.2.788.788,0,0,1-.572-.2A.733.733,0,0,1,156.247,223.814Z"/><path class="cls-2" d="M161.873,219.061a1.39,1.39,0,0,0-1.191.577,2.691,2.691,0,0,0-.422,1.61q0,2.151,1.613,2.149a5.082,5.082,0,0,0,1.639-.338V224.2a4.526,4.526,0,0,1-1.766.33,2.694,2.694,0,0,1-2.145-.85,3.6,3.6,0,0,1-.742-2.441,3.989,3.989,0,0,1,.364-1.756,2.641,2.641,0,0,1,1.048-1.156,3.113,3.113,0,0,1,1.6-.4,4.321,4.321,0,0,1,1.881.453l-.439,1.107a7.189,7.189,0,0,0-.725-.3A2.166,2.166,0,0,0,161.873,219.061Z"/><path class="cls-2" d="M164.621,223.814a.734.734,0,0,1,.2-.557.8.8,0,0,1,.575-.189.781.781,0,0,1,.565.194.853.853,0,0,1,0,1.1.768.768,0,0,1-.563.2.785.785,0,0,1-.571-.2A.729.729,0,0,1,164.621,223.814Z"/><path class="cls-2" d="M171.45,224.443l-.465-1.529h-2.343l-.466,1.529h-1.467l2.267-6.451h1.666l2.276,6.451Zm-.791-2.672q-.645-2.077-.727-2.351c-.054-.181-.093-.324-.116-.43q-.145.563-.831,2.781Z"/><rect class="cls-3" x="103.547" y="209.5" width="82.039" height="23"/><path class="cls-2" d="M105.708,245.356l-.687-2.2q-.065-.2-.242-.916h-.028q-.137.6-.239.922l-.708,2.191h-.656l-1.022-3.746h.595q.363,1.413.552,2.151a8.747,8.747,0,0,1,.217.994h.027c.025-.13.066-.3.121-.5s.1-.37.146-.49l.687-2.151h.615l.67,2.151a7.359,7.359,0,0,1,.26.987h.027a3.654,3.654,0,0,1,.074-.38q.058-.255.712-2.758h.588l-1.035,3.746Z"/><path class="cls-2" d="M111.153,245.356l-.687-2.2q-.064-.2-.243-.916H110.2q-.136.6-.239.922l-.708,2.191h-.656l-1.022-3.746h.595q.362,1.413.552,2.151a8.747,8.747,0,0,1,.217.994h.027c.025-.13.066-.3.121-.5s.105-.37.146-.49l.687-2.151h.615l.67,2.151a7.359,7.359,0,0,1,.26.987h.027a3.654,3.654,0,0,1,.074-.38q.058-.255.712-2.758h.588l-1.036,3.746Z"/><path class="cls-2" d="M116.6,245.356l-.687-2.2c-.044-.135-.124-.44-.243-.916h-.027c-.092.4-.171.706-.239.922l-.708,2.191h-.656l-1.022-3.746h.595q.361,1.413.552,2.151a8.747,8.747,0,0,1,.217.994h.027q.038-.195.121-.5c.056-.206.1-.37.146-.49l.687-2.151h.615l.67,2.151a7.186,7.186,0,0,1,.259.987h.028a3.4,3.4,0,0,1,.074-.38q.059-.255.712-2.758h.588l-1.036,3.746Z"/><path class="cls-2" d="M118.9,244.994a.509.509,0,0,1,.1-.347.376.376,0,0,1,.3-.118.4.4,0,0,1,.309.118.49.49,0,0,1,.111.347.475.475,0,0,1-.113.342.4.4,0,0,1-.307.12.4.4,0,0,1-.289-.108A.47.47,0,0,1,118.9,244.994Z"/><path class="cls-2" d="M122.056,244.956a1.963,1.963,0,0,0,.291-.021,1.912,1.912,0,0,0,.222-.047v.434a1.039,1.039,0,0,1-.271.074,2.108,2.108,0,0,1-.324.029q-1.086,0-1.087-1.145v-2.228h-.536v-.274l.536-.236.24-.8h.328v.868h1.087v.442h-1.087v2.2a.759.759,0,0,0,.16.519A.558.558,0,0,0,122.056,244.956Z"/><path class="cls-2" d="M124.9,245.425a1.722,1.722,0,0,1-1.311-.506,1.959,1.959,0,0,1-.48-1.4,2.176,2.176,0,0,1,.446-1.44,1.484,1.484,0,0,1,1.2-.533,1.411,1.411,0,0,1,1.114.463,1.774,1.774,0,0,1,.411,1.223v.358H123.7a1.487,1.487,0,0,0,.333,1,1.154,1.154,0,0,0,.891.342,3.026,3.026,0,0,0,1.2-.252v.506a3,3,0,0,1-.569.185A3.169,3.169,0,0,1,124.9,245.425Zm-.154-3.408a.923.923,0,0,0-.719.3,1.343,1.343,0,0,0-.316.812h1.958a1.243,1.243,0,0,0-.239-.821A.841.841,0,0,0,124.746,242.017Z"/><path class="cls-2" d="M129.661,244.335a.942.942,0,0,1-.389.807,1.842,1.842,0,0,1-1.094.283,2.356,2.356,0,0,1-1.162-.237v-.525a2.854,2.854,0,0,0,.579.215,2.389,2.389,0,0,0,.6.078,1.345,1.345,0,0,0,.683-.142.488.488,0,0,0,.049-.806,2.943,2.943,0,0,0-.739-.367,4.111,4.111,0,0,1-.744-.34,1.029,1.029,0,0,1-.328-.33.87.87,0,0,1-.107-.441.841.841,0,0,1,.372-.723,1.734,1.734,0,0,1,1.022-.265,3,3,0,0,1,1.183.246l-.2.461a2.733,2.733,0,0,0-1.022-.232,1.175,1.175,0,0,0-.608.127.389.389,0,0,0-.2.348.421.421,0,0,0,.077.257.759.759,0,0,0,.247.2,5.667,5.667,0,0,0,.657.278,2.44,2.44,0,0,1,.9.488A.862.862,0,0,1,129.661,244.335Z"/><path class="cls-2" d="M131.794,244.956a1.973,1.973,0,0,0,.291-.021,1.912,1.912,0,0,0,.222-.047v.434a1.06,1.06,0,0,1-.272.074,2.085,2.085,0,0,1-.323.029q-1.087,0-1.087-1.145v-2.228h-.536v-.274l.536-.236.239-.8h.329v.868h1.086v.442h-1.086v2.2a.759.759,0,0,0,.16.519A.558.558,0,0,0,131.794,244.956Z"/><path class="cls-2" d="M132.973,244.994a.509.509,0,0,1,.1-.347.376.376,0,0,1,.3-.118.4.4,0,0,1,.309.118.49.49,0,0,1,.111.347.48.48,0,0,1-.113.342.447.447,0,0,1-.6.012A.466.466,0,0,1,132.973,244.994Z"/><path class="cls-2" d="M136.415,245.425a1.6,1.6,0,0,1-1.26-.5,2.066,2.066,0,0,1-.445-1.417,2.126,2.126,0,0,1,.452-1.452,1.634,1.634,0,0,1,1.291-.513,2.544,2.544,0,0,1,.54.059,1.776,1.776,0,0,1,.424.136l-.175.482a2.668,2.668,0,0,0-.41-.125,1.835,1.835,0,0,0-.393-.05q-1.141,0-1.141,1.457a1.732,1.732,0,0,0,.278,1.059.97.97,0,0,0,.826.369,2.529,2.529,0,0,0,.96-.2v.5A2.03,2.03,0,0,1,136.415,245.425Z"/><path class="cls-2" d="M140.814,245.356v-2.423a.979.979,0,0,0-.208-.684.853.853,0,0,0-.653-.225,1.07,1.07,0,0,0-.863.321,1.628,1.628,0,0,0-.272,1.052v1.959h-.567v-5.318h.567v1.609a3.56,3.56,0,0,1-.027.483h.034a1.162,1.162,0,0,1,.476-.426,1.564,1.564,0,0,1,.707-.155,1.442,1.442,0,0,1,1.03.326,1.375,1.375,0,0,1,.344,1.038v2.443Z"/><path class="cls-2" d="M144.444,240.359l-1.863,5h-.567l1.863-5Z"/><path class="cls-2" d="M148.344,245.356l-.622-1.589h-2l-.615,1.589h-.588l1.975-5.017h.489l1.965,5.017Zm-.8-2.112-.581-1.548c-.076-.2-.153-.436-.233-.721a6.576,6.576,0,0,1-.215.721l-.588,1.548Z"/><path class="cls-2" d="M151.444,240.359l-1.863,5h-.567l1.863-5Z"/><path class="cls-2" d="M154.342,240.808a1.634,1.634,0,0,0-1.3.547,2.216,2.216,0,0,0-.477,1.5,2.253,2.253,0,0,0,.46,1.516,1.635,1.635,0,0,0,1.311.535,4.5,4.5,0,0,0,1.193-.188v.508a3.65,3.65,0,0,1-1.282.2,2.171,2.171,0,0,1-1.7-.67,2.757,2.757,0,0,1-.6-1.9,3,3,0,0,1,.289-1.354,2.062,2.062,0,0,1,.834-.894,2.518,2.518,0,0,1,1.283-.315,3.1,3.1,0,0,1,1.374.287l-.246.5A2.654,2.654,0,0,0,154.342,240.808Z"/><path class="cls-2" d="M158.43,240.359l-1.862,5H156l1.863-5Z"/><path class="cls-2" d="M162.33,245.356l-.622-1.589h-2l-.615,1.589H158.5l1.976-5.017h.488l1.966,5.017Zm-.8-2.112-.581-1.548c-.075-.2-.153-.436-.232-.721a6.825,6.825,0,0,1-.216.721l-.588,1.548Z"/><path class="cls-2" d="M163.451,244.994a.509.509,0,0,1,.105-.347.376.376,0,0,1,.3-.118.4.4,0,0,1,.309.118.49.49,0,0,1,.111.347.48.48,0,0,1-.113.342.447.447,0,0,1-.6.012A.466.466,0,0,1,163.451,244.994Z"/><path class="cls-2" d="M167.96,245.356v-2.423a.979.979,0,0,0-.209-.684.85.85,0,0,0-.653-.225,1.072,1.072,0,0,0-.863.321,1.629,1.629,0,0,0-.271,1.052v1.959H165.4v-5.318h.568v1.609a3.538,3.538,0,0,1-.028.483h.034a1.165,1.165,0,0,1,.477-.426,1.563,1.563,0,0,1,.706-.155,1.441,1.441,0,0,1,1.03.326,1.371,1.371,0,0,1,.344,1.038v2.443Z"/><path class="cls-2" d="M170.9,244.956a1.95,1.95,0,0,0,.29-.021,1.867,1.867,0,0,0,.222-.047v.434a1.039,1.039,0,0,1-.271.074,2.1,2.1,0,0,1-.324.029q-1.086,0-1.086-1.145v-2.228H169.2v-.274l.537-.236.239-.8h.328v.868h1.087v.442H170.3v2.2a.759.759,0,0,0,.161.519A.558.558,0,0,0,170.9,244.956Z"/><path class="cls-2" d="M176.939,245.356v-2.437a1.008,1.008,0,0,0-.192-.671.739.739,0,0,0-.594-.224.958.958,0,0,0-.783.3,1.444,1.444,0,0,0-.253.937v2.091h-.568v-2.437a1.008,1.008,0,0,0-.191-.671.745.745,0,0,0-.6-.224.926.926,0,0,0-.781.32,1.729,1.729,0,0,0-.248,1.048v1.964h-.567V241.61h.461l.092.513h.028a1.105,1.105,0,0,1,.453-.427,1.375,1.375,0,0,1,.654-.154,1.114,1.114,0,0,1,1.149.636h.027a1.189,1.189,0,0,1,.485-.465,1.508,1.508,0,0,1,.725-.171,1.267,1.267,0,0,1,.952.326,1.463,1.463,0,0,1,.316,1.045v2.443Z"/><path class="cls-2" d="M179.242,245.356h-.567v-5.318h.567Z"/><rect class="cls-1" x="103.547" y="263.5" width="82.039" height="23"/><path class="cls-2" d="M119.539,278.443h-1.362v-5.291h-1.745v-1.133h4.852v1.133h-1.745Z"/><path class="cls-2" d="M126.738,278.443H125.4v-2.869q0-1.064-.791-1.064a.9.9,0,0,0-.813.383,2.333,2.333,0,0,0-.25,1.239v2.311H122.2v-6.838h1.341V273c0,.109-.011.364-.031.766l-.031.394h.07a1.556,1.556,0,0,1,1.424-.72,1.744,1.744,0,0,1,1.314.466,1.851,1.851,0,0,1,.448,1.336Z"/><path class="cls-2" d="M130.378,278.531a2.538,2.538,0,0,1-1.855-.654,2.483,2.483,0,0,1-.668-1.856,2.731,2.731,0,0,1,.617-1.909,2.2,2.2,0,0,1,1.708-.674,2.164,2.164,0,0,1,1.621.593,2.246,2.246,0,0,1,.581,1.639v.65h-3.169a1.3,1.3,0,0,0,.338.893,1.19,1.19,0,0,0,.888.32,3.666,3.666,0,0,0,.84-.092,4.1,4.1,0,0,0,.826-.295v1.038a3.071,3.071,0,0,1-.752.261A4.671,4.671,0,0,1,130.378,278.531Zm-.189-4.139a.846.846,0,0,0-.668.27,1.249,1.249,0,0,0-.277.767h1.881a1.118,1.118,0,0,0-.26-.767A.873.873,0,0,0,130.189,274.392Z"/><path class="cls-2" d="M137.916,278.443h-1.341v-2.869a1.454,1.454,0,0,0-.177-.8.628.628,0,0,0-.561-.266.812.812,0,0,0-.747.379,2.479,2.479,0,0,0-.233,1.243v2.311h-1.34V273.53h1.024l.18.628h.075a1.369,1.369,0,0,1,.571-.529,1.861,1.861,0,0,1,.857-.191,1.546,1.546,0,0,1,1.494.72h.119a1.32,1.32,0,0,1,.582-.531,1.942,1.942,0,0,1,.868-.189,1.715,1.715,0,0,1,1.263.428,1.882,1.882,0,0,1,.429,1.374v3.2h-1.345v-2.869a1.453,1.453,0,0,0-.178-.8.626.626,0,0,0-.56-.266.841.841,0,0,0-.737.351,2.011,2.011,0,0,0-.243,1.118Z"/><path class="cls-2" d="M145.519,278.443l-.259-.668h-.035a1.964,1.964,0,0,1-.7.591,2.233,2.233,0,0,1-.934.165,1.513,1.513,0,0,1-1.114-.4,1.552,1.552,0,0,1-.406-1.151,1.3,1.3,0,0,1,.547-1.154,3.173,3.173,0,0,1,1.65-.411l.853-.026v-.215a.669.669,0,0,0-.765-.748,3.486,3.486,0,0,0-1.384.356l-.444-.905a3.99,3.99,0,0,1,1.881-.443,2.35,2.35,0,0,1,1.516.429,1.6,1.6,0,0,1,.527,1.311v3.273Zm-.4-2.276-.519.018a1.653,1.653,0,0,0-.87.211.662.662,0,0,0-.286.588q0,.567.651.567a1.027,1.027,0,0,0,.744-.268.943.943,0,0,0,.28-.712Z"/><path class="cls-2" d="M154.3,278.443l-.465-1.529h-2.343l-.465,1.529H149.56l2.267-6.451h1.666l2.276,6.451Zm-.791-2.672q-.645-2.077-.727-2.351c-.054-.181-.093-.324-.116-.43q-.145.563-.831,2.781Z"/><path class="cls-2" d="M156.328,277.814a.734.734,0,0,1,.2-.557.8.8,0,0,1,.576-.189.781.781,0,0,1,.565.194.855.855,0,0,1,0,1.1.766.766,0,0,1-.562.2.788.788,0,0,1-.572-.2A.733.733,0,0,1,156.328,277.814Z"/><path class="cls-2" d="M161.954,273.061a1.39,1.39,0,0,0-1.191.577,2.691,2.691,0,0,0-.422,1.61q0,2.151,1.613,2.149a5.082,5.082,0,0,0,1.639-.338V278.2a4.526,4.526,0,0,1-1.766.33,2.694,2.694,0,0,1-2.145-.85,3.6,3.6,0,0,1-.742-2.441,3.989,3.989,0,0,1,.364-1.756,2.647,2.647,0,0,1,1.048-1.156,3.113,3.113,0,0,1,1.6-.4,4.321,4.321,0,0,1,1.881.453l-.439,1.107a7.189,7.189,0,0,0-.725-.3A2.166,2.166,0,0,0,161.954,273.061Z"/><path class="cls-2" d="M164.7,277.814a.734.734,0,0,1,.2-.557.8.8,0,0,1,.575-.189.781.781,0,0,1,.565.194.853.853,0,0,1,0,1.1.767.767,0,0,1-.563.2.785.785,0,0,1-.571-.2A.729.729,0,0,1,164.7,277.814Z"/><path class="cls-2" d="M167.6,272.019h2a3.858,3.858,0,0,1,1.984.388,1.357,1.357,0,0,1,.617,1.238,1.562,1.562,0,0,1-.27.945,1.08,1.08,0,0,1-.718.443v.044a1.411,1.411,0,0,1,.88.51,1.856,1.856,0,0,1-.364,2.364,2.748,2.748,0,0,1-1.725.492h-2.4Zm1.363,2.543h.791a1.445,1.445,0,0,0,.8-.17.641.641,0,0,0,.249-.568.567.567,0,0,0-.27-.529,1.739,1.739,0,0,0-.855-.16h-.716Zm0,1.083v1.673h.887a1.323,1.323,0,0,0,.831-.214.8.8,0,0,0,.268-.661q0-.8-1.143-.8Z"/><rect class="cls-3" x="103.547" y="263.5" width="82.039" height="23"/><path class="cls-2" d="M105.708,299.356l-.687-2.2q-.065-.2-.242-.916h-.028q-.137.6-.239.922l-.708,2.191h-.656l-1.022-3.746h.595q.363,1.413.552,2.151a8.747,8.747,0,0,1,.217.994h.027c.025-.13.066-.3.121-.5s.1-.37.146-.49l.687-2.151h.615l.67,2.151a7.359,7.359,0,0,1,.26.987h.027a3.654,3.654,0,0,1,.074-.38q.058-.255.712-2.758h.588l-1.035,3.746Z"/><path class="cls-2" d="M111.153,299.356l-.687-2.2q-.064-.2-.243-.916H110.2q-.136.6-.239.922l-.708,2.191h-.656l-1.022-3.746h.595q.362,1.413.552,2.151a8.747,8.747,0,0,1,.217.994h.027c.025-.13.066-.3.121-.5s.105-.37.146-.49l.687-2.151h.615l.67,2.151a7.359,7.359,0,0,1,.26.987h.027a3.654,3.654,0,0,1,.074-.38q.058-.255.712-2.758h.588l-1.036,3.746Z"/><path class="cls-2" d="M116.6,299.356l-.687-2.2c-.044-.135-.124-.44-.243-.916h-.027c-.092.4-.171.706-.239.922l-.708,2.191h-.656l-1.022-3.746h.595q.361,1.413.552,2.151a8.747,8.747,0,0,1,.217.994h.027q.038-.195.121-.5c.056-.206.1-.37.146-.49l.687-2.151h.615l.67,2.151a7.186,7.186,0,0,1,.259.987h.028a3.4,3.4,0,0,1,.074-.38q.059-.255.712-2.758h.588l-1.036,3.746Z"/><path class="cls-2" d="M118.9,298.994a.509.509,0,0,1,.1-.347.376.376,0,0,1,.3-.118.4.4,0,0,1,.309.118.49.49,0,0,1,.111.347.475.475,0,0,1-.113.342.4.4,0,0,1-.307.12.4.4,0,0,1-.289-.108A.47.47,0,0,1,118.9,298.994Z"/><path class="cls-2" d="M122.056,298.956a1.963,1.963,0,0,0,.291-.021,1.912,1.912,0,0,0,.222-.047v.434a1.039,1.039,0,0,1-.271.074,2.108,2.108,0,0,1-.324.029q-1.086,0-1.087-1.145v-2.228h-.536v-.274l.536-.236.24-.8h.328v.868h1.087v.442h-1.087v2.2a.759.759,0,0,0,.16.519A.558.558,0,0,0,122.056,298.956Z"/><path class="cls-2" d="M124.9,299.425a1.722,1.722,0,0,1-1.311-.506,1.959,1.959,0,0,1-.48-1.4,2.176,2.176,0,0,1,.446-1.44,1.484,1.484,0,0,1,1.2-.533,1.411,1.411,0,0,1,1.114.463,1.774,1.774,0,0,1,.411,1.223v.358H123.7a1.487,1.487,0,0,0,.333,1,1.154,1.154,0,0,0,.891.342,3.026,3.026,0,0,0,1.2-.252v.506a3,3,0,0,1-.569.185A3.169,3.169,0,0,1,124.9,299.425Zm-.154-3.408a.923.923,0,0,0-.719.3,1.343,1.343,0,0,0-.316.812h1.958a1.243,1.243,0,0,0-.239-.821A.841.841,0,0,0,124.746,296.017Z"/><path class="cls-2" d="M129.661,298.335a.942.942,0,0,1-.389.807,1.842,1.842,0,0,1-1.094.283,2.356,2.356,0,0,1-1.162-.237v-.525a2.854,2.854,0,0,0,.579.215,2.389,2.389,0,0,0,.6.078,1.345,1.345,0,0,0,.683-.142.488.488,0,0,0,.049-.806,2.943,2.943,0,0,0-.739-.367,4.111,4.111,0,0,1-.744-.34,1.029,1.029,0,0,1-.328-.33.87.87,0,0,1-.107-.441.841.841,0,0,1,.372-.723,1.734,1.734,0,0,1,1.022-.265,3,3,0,0,1,1.183.246l-.2.461a2.733,2.733,0,0,0-1.022-.232,1.175,1.175,0,0,0-.608.127.389.389,0,0,0-.2.348.421.421,0,0,0,.077.257.759.759,0,0,0,.247.2,5.667,5.667,0,0,0,.657.278,2.44,2.44,0,0,1,.9.488A.862.862,0,0,1,129.661,298.335Z"/><path class="cls-2" d="M131.794,298.956a1.973,1.973,0,0,0,.291-.021,1.912,1.912,0,0,0,.222-.047v.434a1.06,1.06,0,0,1-.272.074,2.085,2.085,0,0,1-.323.029q-1.087,0-1.087-1.145v-2.228h-.536v-.274l.536-.236.239-.8h.329v.868h1.086v.442h-1.086v2.2a.759.759,0,0,0,.16.519A.558.558,0,0,0,131.794,298.956Z"/><path class="cls-2" d="M132.973,298.994a.509.509,0,0,1,.1-.347.376.376,0,0,1,.3-.118.4.4,0,0,1,.309.118.49.49,0,0,1,.111.347.48.48,0,0,1-.113.342.447.447,0,0,1-.6.012A.466.466,0,0,1,132.973,298.994Z"/><path class="cls-2" d="M136.415,299.425a1.6,1.6,0,0,1-1.26-.5,2.066,2.066,0,0,1-.445-1.417,2.126,2.126,0,0,1,.452-1.452,1.634,1.634,0,0,1,1.291-.513,2.544,2.544,0,0,1,.54.059,1.776,1.776,0,0,1,.424.136l-.175.482a2.668,2.668,0,0,0-.41-.125,1.835,1.835,0,0,0-.393-.05q-1.141,0-1.141,1.457a1.732,1.732,0,0,0,.278,1.059.97.97,0,0,0,.826.369,2.529,2.529,0,0,0,.96-.2v.5A2.03,2.03,0,0,1,136.415,299.425Z"/><path class="cls-2" d="M140.814,299.356v-2.423a.979.979,0,0,0-.208-.684.853.853,0,0,0-.653-.225,1.07,1.07,0,0,0-.863.321,1.628,1.628,0,0,0-.272,1.052v1.959h-.567v-5.318h.567v1.609a3.56,3.56,0,0,1-.027.483h.034a1.162,1.162,0,0,1,.476-.426,1.564,1.564,0,0,1,.707-.155,1.442,1.442,0,0,1,1.03.326,1.375,1.375,0,0,1,.344,1.038v2.443Z"/><path class="cls-2" d="M144.444,294.359l-1.863,5h-.567l1.863-5Z"/><path class="cls-2" d="M148.344,299.356l-.622-1.589h-2l-.615,1.589h-.588l1.975-5.017h.489l1.965,5.017Zm-.8-2.112-.581-1.548c-.076-.2-.153-.436-.233-.721a6.576,6.576,0,0,1-.215.721l-.588,1.548Z"/><path class="cls-2" d="M151.444,294.359l-1.863,5h-.567l1.863-5Z"/><path class="cls-2" d="M154.342,294.808a1.634,1.634,0,0,0-1.3.547,2.216,2.216,0,0,0-.477,1.5,2.253,2.253,0,0,0,.46,1.516,1.635,1.635,0,0,0,1.311.535,4.5,4.5,0,0,0,1.193-.188v.508a3.65,3.65,0,0,1-1.282.2,2.171,2.171,0,0,1-1.7-.67,2.757,2.757,0,0,1-.6-1.9,3,3,0,0,1,.289-1.354,2.062,2.062,0,0,1,.834-.894,2.518,2.518,0,0,1,1.283-.315,3.1,3.1,0,0,1,1.374.287l-.246.5A2.654,2.654,0,0,0,154.342,294.808Z"/><path class="cls-2" d="M158.43,294.359l-1.862,5H156l1.863-5Z"/><path class="cls-2" d="M159.189,294.359H160.6a2.658,2.658,0,0,1,1.439.3,1.048,1.048,0,0,1,.444.94,1.086,1.086,0,0,1-.247.733,1.2,1.2,0,0,1-.724.374v.034q1.138.195,1.139,1.2a1.282,1.282,0,0,1-.454,1.045,1.922,1.922,0,0,1-1.266.376h-1.743Zm.581,2.14h.957a1.555,1.555,0,0,0,.885-.193.744.744,0,0,0,.271-.651.66.66,0,0,0-.3-.607,1.884,1.884,0,0,0-.957-.186h-.855Zm0,.492v1.869h1.043a1.487,1.487,0,0,0,.911-.233.866.866,0,0,0,.305-.733.777.777,0,0,0-.312-.684,1.672,1.672,0,0,0-.952-.219Z"/><path class="cls-2" d="M163.557,298.994a.509.509,0,0,1,.105-.347.376.376,0,0,1,.3-.118.4.4,0,0,1,.309.118.49.49,0,0,1,.111.347.48.48,0,0,1-.113.342.447.447,0,0,1-.6.012A.466.466,0,0,1,163.557,298.994Z"/><path class="cls-2" d="M168.066,299.356v-2.423a.979.979,0,0,0-.209-.684.85.85,0,0,0-.653-.225,1.072,1.072,0,0,0-.863.321,1.629,1.629,0,0,0-.271,1.052v1.959H165.5v-5.318h.568v1.609a3.538,3.538,0,0,1-.028.483h.034a1.165,1.165,0,0,1,.477-.426,1.56,1.56,0,0,1,.706-.155,1.441,1.441,0,0,1,1.03.326,1.371,1.371,0,0,1,.344,1.038v2.443Z"/><path class="cls-2" d="M171.008,298.956a1.954,1.954,0,0,0,.291-.021,1.912,1.912,0,0,0,.222-.047v.434a1.039,1.039,0,0,1-.271.074,2.1,2.1,0,0,1-.324.029q-1.086,0-1.086-1.145v-2.228H169.3v-.274l.537-.236.239-.8h.328v.868h1.087v.442h-1.087v2.2a.759.759,0,0,0,.161.519A.554.554,0,0,0,171.008,298.956Z"/><path class="cls-2" d="M177.045,299.356v-2.437a1.008,1.008,0,0,0-.192-.671.739.739,0,0,0-.595-.224.957.957,0,0,0-.782.3,1.444,1.444,0,0,0-.253.937v2.091h-.568v-2.437a1.014,1.014,0,0,0-.191-.671.745.745,0,0,0-.6-.224.926.926,0,0,0-.781.32,1.729,1.729,0,0,0-.248,1.048v1.964h-.567V295.61h.461l.092.513h.028a1.105,1.105,0,0,1,.453-.427,1.372,1.372,0,0,1,.654-.154,1.114,1.114,0,0,1,1.149.636h.027a1.189,1.189,0,0,1,.485-.465,1.508,1.508,0,0,1,.725-.171,1.267,1.267,0,0,1,.952.326,1.463,1.463,0,0,1,.316,1.045v2.443Z"/><path class="cls-2" d="M179.348,299.356h-.567v-5.318h.567Z"/><polyline class="cls-3" points="86.539 204 86.539 220.5 102.047 220.5"/><polyline class="cls-3" points="86.539 216 86.539 274.5 102.047 274.5"/></svg>